<svg width="893" height="183" viewBox="0 0 893 183" fill="none" xmlns="http://www.w3.org/2000/svg">
<rect x="16.3975" width="876.477" height="182.955" rx="62.7273" fill="#262628"/>
<path d="M89.5789 76.5227V48.4H84.8221V60.1091H70.9176V48.4H66.1607V76.5227H70.9176V64.2386H84.8221V76.5227H89.5789ZM95.9333 85.6704H98.3901C104.715 85.6704 106.074 83.7886 108.165 77.725L118.202 48.4H113.236L106.283 70.0932L99.122 48.4H93.8424L103.983 76.5227L103.774 77.0977C102.52 81.4886 101.004 81.6977 97.8674 81.6977H95.9333V85.6704ZM150.014 61.6772L159.371 48.4H153.882L145.989 59.9523H142.016V48.4H137.259V59.9523H133.287L125.446 48.4H119.905L129.314 61.8341L118.964 76.5227H124.766L133.287 64.0818H137.259V76.5227H142.016V64.0818H146.146L154.614 76.5227H160.312L150.014 61.6772ZM188.254 76.5227V48.4H183.497V60.1091H169.593V48.4H164.836V76.5227H169.593V64.2386H183.497V76.5227H188.254ZM199.261 62.5659C199.261 54.8818 203.338 52.1113 207.676 52.1113C212.015 52.1113 216.092 55.0386 216.092 62.5659C216.092 69.7795 212.015 73.0204 207.676 73.0204C203.338 73.0204 199.261 70.0932 199.261 62.5659ZM207.676 47.9295C201.142 47.9295 194.19 52.3727 194.19 62.5659C194.19 72.7591 201.142 77.2023 207.676 77.2023C214.211 77.2023 221.163 72.7591 221.163 62.5659C221.163 52.3727 214.211 47.9295 207.676 47.9295ZM250.914 47.9295C242.602 47.9295 237.323 54.15 237.323 62.5136C237.323 71.0863 242.341 77.2023 250.443 77.2023C257.03 77.2023 261.996 72.6545 262.989 67.375H258.075C257.396 70.3023 254.625 73.0204 250.6 73.0204C246.418 73.0204 242.498 69.5704 242.498 62.4613C242.498 55.4045 246.418 52.1113 250.6 52.1113C254.312 52.1113 257.187 54.4636 257.866 57.8091H262.675C261.996 53 257.814 47.9295 250.914 47.9295ZM293.99 72.3932H290.069V48.4H271.094L270.728 57.4432C270.31 68.2113 268.638 72.3932 265.449 72.3932H264.194V82.7432H268.794V76.5227H289.39V82.7432H293.99V72.3932ZM285.313 72.3932H271.617C273.813 70.3023 275.015 66.225 275.433 57.9136L275.694 52.5295H285.313V72.3932ZM323.353 64.0295C323.928 55.0909 318.857 47.9295 310.232 47.9295C302.548 47.9295 296.589 53.575 296.589 62.5136C296.589 70.825 301.503 77.2023 310.389 77.2023C317.237 77.2023 321.732 73.1773 322.987 68.3682H318.073C316.871 71.1386 314.571 73.0204 310.389 73.0204C306.26 73.0204 301.869 70.0932 301.712 64.0295H323.353ZM310.232 52.0068C315.303 52.0068 318.178 55.9795 318.335 59.9523H301.764C302.182 54.3068 306.05 52.0068 310.232 52.0068ZM351.425 48.4H332.659L332.241 58.0182C331.666 69.675 329.261 72.3932 326.752 72.3932H326.229V76.5227H327.118C333.652 76.5227 336.109 70.6682 336.789 59.325L337.207 52.5295H346.668V76.5227H351.425V48.4ZM376.939 64.7613C376.939 71.4 372.705 73.4386 368.262 73.4386C364.864 73.4386 362.826 71.6613 362.826 68.9954C362.826 65.1272 368.314 63.8204 376.939 62.9841V64.7613ZM367.217 77.2023C372.235 77.2023 375.11 75.5818 376.835 72.6545C376.887 74.3273 377.044 75.4773 377.201 76.5227H382.01C381.435 73.8568 381.226 70.6682 381.278 65.9113L381.33 59.4295C381.382 51.4841 377.932 47.825 370.144 47.825C364.707 47.825 359.271 51.2227 358.853 57.2863H363.767C363.976 53.7841 366.223 51.6932 370.196 51.6932C373.751 51.6932 376.573 53.3659 376.573 58.5409V59.2204C365.073 60.475 357.546 62.4613 357.546 69.1C357.546 74.275 361.937 77.2023 367.217 77.2023ZM407.951 52.5295V48.4H383.958V52.5295H393.576V76.5227H398.333V52.5295H407.951ZM417.531 58.3318V48.4H412.774V76.5227H424.169C430.651 76.5227 434.728 74.1704 434.728 67.2182C434.728 61.2068 431.592 58.3318 424.222 58.3318H417.531ZM417.531 72.3932V62.4613H423.647C427.881 62.4613 430.076 63.5068 430.076 67.2182C430.076 70.9818 427.933 72.3932 423.751 72.3932H417.531ZM473.189 76.5227V48.4H468.432V61.2068C465.818 61.8341 463.623 62.1477 461.793 62.1477C457.821 62.1477 455.834 60.7363 455.834 56.5545V48.4H451.078V57.5477C451.078 63.6636 454.162 66.2772 460.068 66.2772C462.63 66.2772 465.139 65.9113 468.432 65.1272V76.5227H473.189ZM501.981 52.5295V48.4H477.988V52.5295H487.606V76.5227H492.363V52.5295H501.981ZM508.864 62.5659C508.864 54.8818 512.941 52.1113 517.28 52.1113C521.619 52.1113 525.696 55.0386 525.696 62.5659C525.696 69.7795 521.619 73.0204 517.28 73.0204C512.941 73.0204 508.864 70.0932 508.864 62.5659ZM517.28 47.9295C510.746 47.9295 503.794 52.3727 503.794 62.5659C503.794 72.7591 510.746 77.2023 517.28 77.2023C523.814 77.2023 530.766 72.7591 530.766 62.5659C530.766 52.3727 523.814 47.9295 517.28 47.9295ZM552.584 64.4477V59.9523H535.961V64.4477H552.584ZM579.675 52.5295V48.4H555.682V52.5295H565.3V76.5227H570.057V52.5295H579.675ZM586.559 62.5659C586.559 54.8818 590.636 52.1113 594.975 52.1113C599.313 52.1113 603.39 55.0386 603.39 62.5659C603.39 69.7795 599.313 73.0204 594.975 73.0204C590.636 73.0204 586.559 70.0932 586.559 62.5659ZM594.975 47.9295C588.44 47.9295 581.488 52.3727 581.488 62.5659C581.488 72.7591 588.44 77.2023 594.975 77.2023C601.509 77.2023 608.461 72.7591 608.461 62.5659C608.461 52.3727 601.509 47.9295 594.975 47.9295ZM612.764 76.5227H615.325L612.554 83.7886H615.586L618.775 76.9409V70.5113H612.764V76.5227ZM89.5789 144.523V116.4H84.8221V128.109H70.9176V116.4H66.1607V144.523H70.9176V132.239H84.8221V144.523H89.5789ZM122.174 132.03C122.749 123.091 117.679 115.93 109.054 115.93C101.37 115.93 95.4106 121.575 95.4106 130.514C95.4106 138.825 100.324 145.202 109.211 145.202C116.058 145.202 120.554 141.177 121.808 136.368H116.895C115.692 139.139 113.392 141.02 109.211 141.02C105.081 141.02 100.69 138.093 100.533 132.03H122.174ZM109.054 120.007C114.124 120.007 116.999 123.98 117.156 127.952H100.586C101.004 122.307 104.872 120.007 109.054 120.007ZM163.592 116.4H140.435V144.523H145.192V120.53H158.835V144.523H163.592V116.4ZM174.605 130.566C174.605 122.882 178.682 120.111 183.021 120.111C187.359 120.111 191.436 123.039 191.436 130.566C191.436 137.78 187.359 141.02 183.021 141.02C178.682 141.02 174.605 138.093 174.605 130.566ZM183.021 115.93C176.486 115.93 169.534 120.373 169.534 130.566C169.534 140.759 176.486 145.202 183.021 145.202C189.555 145.202 196.507 140.759 196.507 130.566C196.507 120.373 189.555 115.93 183.021 115.93ZM223.594 116.4H218.263L211.363 126.07L204.515 116.4H198.817L208.54 130.043L198.19 144.523H203.626L211.206 133.807L218.838 144.523H224.535L214.028 129.834L223.594 116.4ZM231.063 130.566C231.063 122.882 235.141 120.111 239.479 120.111C243.818 120.111 247.895 123.039 247.895 130.566C247.895 137.78 243.818 141.02 239.479 141.02C235.141 141.02 231.063 138.093 231.063 130.566ZM239.479 115.93C232.945 115.93 225.993 120.373 225.993 130.566C225.993 140.759 232.945 145.202 239.479 145.202C246.013 145.202 252.966 140.759 252.966 130.566C252.966 120.373 246.013 115.93 239.479 115.93ZM285.443 129.677L294.8 116.4H289.311L281.418 127.952H277.445V116.4H272.689V127.952H268.716L260.875 116.4H255.334L264.743 129.834L254.393 144.523H260.195L268.716 132.082H272.689V144.523H277.445V132.082H281.575L290.043 144.523H295.741L285.443 129.677ZM323.812 132.03C324.387 123.091 319.317 115.93 310.692 115.93C303.008 115.93 297.049 121.575 297.049 130.514C297.049 138.825 301.962 145.202 310.849 145.202C317.696 145.202 322.192 141.177 323.446 136.368H318.533C317.33 139.139 315.03 141.02 310.849 141.02C306.719 141.02 302.328 138.093 302.171 132.03H323.812ZM310.692 120.007C315.762 120.007 318.637 123.98 318.794 127.952H302.224C302.642 122.307 306.51 120.007 310.692 120.007ZM354.492 132.03C355.067 123.091 349.996 115.93 341.371 115.93C333.687 115.93 327.728 121.575 327.728 130.514C327.728 138.825 332.642 145.202 341.528 145.202C348.376 145.202 352.871 141.177 354.126 136.368H349.212C348.01 139.139 345.71 141.02 341.528 141.02C337.399 141.02 333.008 138.093 332.851 132.03H354.492ZM341.371 120.007C346.442 120.007 349.317 123.98 349.474 127.952H332.903C333.321 122.307 337.19 120.007 341.371 120.007ZM396.171 144.523V116.4H391.414V128.109H377.509V116.4H372.753V144.523H377.509V132.239H391.414V144.523H396.171ZM423.486 144.523H428.243V116.4H423.486L408.955 137.623V116.4H404.198V144.523H408.955L423.486 123.3V144.523ZM472.13 144.523V116.4H467.373V128.109H453.468V116.4H448.711V144.523H453.468V132.239H467.373V144.523H472.13ZM497.616 132.761C497.616 139.4 493.382 141.439 488.938 141.439C485.541 141.439 483.502 139.661 483.502 136.995C483.502 133.127 488.991 131.82 497.616 130.984V132.761ZM487.893 145.202C492.911 145.202 495.786 143.582 497.511 140.655C497.563 142.327 497.72 143.477 497.877 144.523H502.686C502.111 141.857 501.902 138.668 501.954 133.911L502.007 127.43C502.059 119.484 498.609 115.825 490.82 115.825C485.384 115.825 479.948 119.223 479.529 125.286H484.443C484.652 121.784 486.9 119.693 490.873 119.693C494.427 119.693 497.25 121.366 497.25 126.541V127.22C485.75 128.475 478.223 130.461 478.223 137.1C478.223 142.275 482.613 145.202 487.893 145.202ZM542.46 144.523V116.4H537.704V129.207C535.09 129.834 532.895 130.148 531.065 130.148C527.092 130.148 525.106 128.736 525.106 124.555V116.4H520.349V125.548C520.349 131.664 523.433 134.277 529.34 134.277C531.901 134.277 534.41 133.911 537.704 133.127V144.523H542.46ZM571.252 120.53V116.4H547.259V120.53H556.877V144.523H561.634V120.53H571.252ZM578.136 130.566C578.136 122.882 582.213 120.111 586.552 120.111C590.89 120.111 594.968 123.039 594.968 130.566C594.968 137.78 590.89 141.02 586.552 141.02C582.213 141.02 578.136 138.093 578.136 130.566ZM586.552 115.93C580.018 115.93 573.065 120.373 573.065 130.566C573.065 140.759 580.018 145.202 586.552 145.202C593.086 145.202 600.038 140.759 600.038 130.566C600.038 120.373 593.086 115.93 586.552 115.93ZM641.812 144.523V116.4H637.055V128.109H623.15V116.4H618.394V144.523H623.15V132.239H637.055V144.523H641.812ZM667.298 132.761C667.298 139.4 663.064 141.439 658.621 141.439C655.223 141.439 653.184 139.661 653.184 136.995C653.184 133.127 658.673 131.82 667.298 130.984V132.761ZM657.575 145.202C662.593 145.202 665.468 143.582 667.193 140.655C667.246 142.327 667.402 143.477 667.559 144.523H672.368C671.793 141.857 671.584 138.668 671.637 133.911L671.689 127.43C671.741 119.484 668.291 115.825 660.502 115.825C655.066 115.825 649.63 119.223 649.212 125.286H654.125C654.334 121.784 656.582 119.693 660.555 119.693C664.109 119.693 666.932 121.366 666.932 126.541V127.22C655.432 128.475 647.905 130.461 647.905 137.1C647.905 142.275 652.296 145.202 657.575 145.202ZM691.443 116.4V153.67H696.199V140.289C697.924 143.268 700.852 145.202 705.399 145.202C711.881 145.202 717.422 139.923 717.422 130.566C717.422 121.366 711.881 115.93 705.399 115.93C700.852 115.93 697.924 117.864 696.199 120.843V116.4H691.443ZM695.99 130.566C695.99 123.143 699.963 120.007 704.197 120.007C709.059 120.007 712.247 123.823 712.247 130.566C712.247 137.309 709.059 141.125 704.197 141.125C699.963 141.125 695.99 137.989 695.99 130.566ZM733.437 144.523C739.867 144.523 743.996 142.17 743.996 135.218C743.996 129.207 740.808 126.332 733.489 126.332H728.053V116.4H723.296V144.523H733.437ZM728.053 130.461H732.862C737.253 130.461 739.344 131.455 739.344 135.218C739.344 139.034 737.201 140.393 733.019 140.393H728.053V130.461ZM753.405 144.523V116.4H748.649V144.523H753.405ZM784.898 144.523V116.4H780.141V128.109H766.237V116.4H761.48V144.523H766.237V132.239H780.141V144.523H784.898ZM811.012 144.523H816.918L805.209 129.677L815.821 116.4H810.175L801.237 127.9H797.734V116.4H792.925V144.523H797.734V132.03H801.341L811.012 144.523ZM845.008 132.03C845.583 123.091 840.513 115.93 831.888 115.93C824.203 115.93 818.244 121.575 818.244 130.514C818.244 138.825 823.158 145.202 832.044 145.202C838.892 145.202 843.388 141.177 844.642 136.368H839.728C838.526 139.139 836.226 141.02 832.044 141.02C827.915 141.02 823.524 138.093 823.367 132.03H845.008ZM831.888 120.007C836.958 120.007 839.833 123.98 839.99 127.952H823.419C823.838 122.307 827.706 120.007 831.888 120.007Z" fill="white"/>
<path d="M1.34618 181.806C17.9998 184.368 34.44 175.198 39.7777 169.326C34.276 156.207 68.2424 124.342 45.824 124.341C40.6402 124.341 36.2127 110.761 17.3593 120.956C17.2914 125.077 17.3593 139.343 17.3593 141.772C17.3593 175.399 -1.85645 179.874 1.34618 181.806Z" fill="#262628"/>
</svg>
