<svg width="930" height="410" viewBox="0 0 930 410" fill="none" xmlns="http://www.w3.org/2000/svg">
<rect width="450" height="190" rx="25" fill="#DDFF20"/>
<path d="M24.1797 65H29.2188L40.1367 43.6719C40.4883 42.9297 40.7878 42.2852 41.0352 41.7383C41.2826 41.1914 41.5299 40.625 41.7773 40.0391H41.9531C42.2005 40.612 42.4479 41.1784 42.6953 41.7383C42.9427 42.2852 43.2487 42.9232 43.6133 43.6523L54.4141 65H60.0977L44.8047 36.4648H39.2969L24.1797 65ZM30.7031 58.0078H53.2617L51.543 54.082H32.4219L30.7031 58.0078ZM60.8203 50.7812C60.8203 55.6901 62.5195 59.388 65.918 61.875C69.3294 64.349 73.6328 65.5859 78.8281 65.5859C83.9323 65.5859 87.8516 64.7266 90.5859 63.0078C93.3333 61.2891 94.8698 58.763 95.1953 55.4297L95.2344 54.9805H90.293L90.2539 55.4297C89.9935 57.1094 88.9779 58.5547 87.207 59.7656C85.4492 60.9766 82.6628 61.582 78.8477 61.582C74.9414 61.582 71.8034 60.7552 69.4336 59.1016C67.0638 57.4349 65.8789 54.694 65.8789 50.8789V50.7031C65.8789 47.2917 67.0378 44.6549 69.3555 42.793C71.6862 40.931 74.8503 40 78.8477 40C82.3372 40 84.974 40.5729 86.7578 41.7188C88.5547 42.8646 89.707 44.3555 90.2148 46.1914L90.2734 46.6016H95.2148L95.1562 46.1328C94.4401 42.6172 92.7669 40.0456 90.1367 38.418C87.5195 36.7904 83.7435 35.9766 78.8086 35.9766C73.5872 35.9766 69.2839 37.2266 65.8984 39.7266C62.513 42.2135 60.8203 45.9115 60.8203 50.8203V50.7812ZM99.4336 65H104.355V36.5625H99.4336V65ZM111.328 65H124.727C129.362 65 133.268 63.7826 136.445 61.3477C139.635 58.9128 141.23 55.3711 141.23 50.7227C141.23 46.0482 139.648 42.5195 136.484 40.1367C133.32 37.7539 129.401 36.5625 124.727 36.5625H111.328V65ZM116.172 61.0352V40.5664H124.57C127.956 40.5664 130.749 41.3997 132.949 43.0664C135.15 44.7331 136.25 47.2852 136.25 50.7227V50.7617C136.25 54.2383 135.143 56.8229 132.93 58.5156C130.716 60.1953 127.93 61.0352 124.57 61.0352H116.172ZM167.734 65H172.617V54.4727L186.934 36.5625H181.641L171.641 49.043C171.38 49.3685 171.159 49.707 170.977 50.0586C170.794 50.4102 170.592 50.7682 170.371 51.1328H170.273C170.052 50.7552 169.844 50.3971 169.648 50.0586C169.466 49.707 169.245 49.3685 168.984 49.043L159.121 36.5625H153.164L167.734 54.8242V65ZM189.961 65H215.195V60.9766H194.766V52.3633H212.695V48.4375H194.766V40.625H214.941V36.5625H189.961V65ZM220.234 65H243.73V60.8984H225.117V36.5625H220.234V65ZM247.539 65H271.035V60.8984H252.422V36.5625H247.539V65ZM272.93 50.625C272.93 55.4948 274.642 59.2057 278.066 61.7578C281.491 64.3099 285.801 65.5859 290.996 65.5859C296.191 65.5859 300.521 64.3099 303.984 61.7578C307.448 59.2057 309.18 55.4948 309.18 50.625V50.7227C309.18 45.957 307.448 42.3112 303.984 39.7852C300.534 37.2461 296.204 35.9766 290.996 35.9766C285.801 35.9766 281.491 37.2461 278.066 39.7852C274.642 42.3112 272.93 45.957 272.93 50.7227V50.625ZM277.949 50.7617V50.6641C277.949 47.2005 279.167 44.5638 281.602 42.7539C284.036 40.944 287.174 40.0391 291.016 40.0391C294.87 40.0521 298.027 40.9635 300.488 42.7734C302.949 44.5703 304.18 47.2005 304.18 50.6641V50.8008C304.18 54.3034 302.943 56.9792 300.469 58.8281C298.008 60.6641 294.857 61.582 291.016 61.582C287.188 61.569 284.049 60.6445 281.602 58.8086C279.167 56.9727 277.949 54.2904 277.949 50.7617ZM321.387 65.0977H326.992L335.059 42.9297C335.176 42.5781 335.26 42.2266 335.312 41.875C335.365 41.5234 335.404 41.1784 335.43 40.8398H335.488C335.527 41.1784 335.573 41.5234 335.625 41.875C335.677 42.2266 335.762 42.5781 335.879 42.9297L344.023 65.0977H349.473L360.059 36.5625H355.332L347.52 58.5352C347.402 58.8867 347.318 59.2904 347.266 59.7461C347.227 60.2018 347.181 60.599 347.129 60.9375H347.07C347.018 60.599 346.966 60.2018 346.914 59.7461C346.862 59.2904 346.771 58.8867 346.641 58.5352L338.359 36.5625H332.871L324.863 58.5156C324.733 58.8802 324.642 59.2904 324.59 59.7461C324.538 60.1888 324.479 60.5859 324.414 60.9375H324.395C324.342 60.5859 324.284 60.1888 324.219 59.7461C324.154 59.2904 324.056 58.8802 323.926 58.5156L315.957 36.5625H310.859L321.387 65.0977Z" fill="black"/>
<path d="M27.7979 112.293L30.8154 112.278L39.3262 90.3643H36.2793L27.7979 112.293ZM37.6562 112.293H40.7031L49.2139 90.3643H46.167L37.6562 112.293ZM25.5859 106.697H49.7998V103.387H25.5859V106.697ZM27.1973 99.3438H51.3965V96.0625H27.1973V99.3438ZM54.502 112H64.126C67.6514 112 70.6201 111.092 73.0322 109.275C75.4443 107.449 76.6504 104.812 76.6504 101.365V101.263C76.6504 97.7959 75.4492 95.1641 73.0469 93.3672C70.6445 91.5703 67.6709 90.6719 64.126 90.6719H54.502V112ZM58.2666 108.938V93.7627H64.0381C66.5967 93.7627 68.6963 94.3779 70.3369 95.6084C71.9775 96.8389 72.7979 98.7188 72.7979 101.248V101.38C72.7979 103.938 71.9727 105.838 70.3223 107.078C68.6816 108.318 66.5869 108.938 64.0381 108.938H58.2666ZM80.4883 112H90.1123C93.6377 112 96.6064 111.092 99.0186 109.275C101.431 107.449 102.637 104.812 102.637 101.365V101.263C102.637 97.7959 101.436 95.1641 99.0332 93.3672C96.6309 91.5703 93.6572 90.6719 90.1123 90.6719H80.4883V112ZM84.2529 108.938V93.7627H90.0244C92.583 93.7627 94.6826 94.3779 96.3232 95.6084C97.9639 96.8389 98.7842 98.7188 98.7842 101.248V101.38C98.7842 103.938 97.959 105.838 96.3086 107.078C94.668 108.318 92.5732 108.938 90.0244 108.938H84.2529ZM106.475 112H110.254V103.108H122.998V100.062H110.254V93.792H124.478V90.6719H106.475V112ZM127.656 112H131.436V103.108H144.18V100.062H131.436V93.792H145.659V90.6719H127.656V112ZM147.988 112H167.251V108.982H153.73L161.143 103.533C162.705 102.342 163.999 101.199 165.024 100.105C166.06 99.0117 166.577 97.6592 166.577 96.0479C166.577 94.3877 165.786 93.0107 164.204 91.917C162.622 90.8135 160.366 90.2617 157.437 90.2617C154.409 90.2617 152.08 90.916 150.449 92.2246C148.818 93.5332 148.003 95.1445 148.003 97.0586V97.3516H151.797V97.0732C151.797 95.9893 152.251 95.1104 153.159 94.4365C154.067 93.7529 155.488 93.4111 157.422 93.4111C159.199 93.4111 160.513 93.6504 161.362 94.1289C162.212 94.6074 162.642 95.3203 162.651 96.2676C162.651 97.0684 162.212 97.918 161.333 98.8164C160.454 99.7148 159.551 100.521 158.623 101.233L147.988 109.305V112ZM169.712 101.438C169.712 104.896 170.591 107.591 172.349 109.524C174.106 111.448 176.602 112.41 179.834 112.41C183.057 112.41 185.557 111.458 187.334 109.554C189.121 107.649 190.015 104.949 190.015 101.453V101.072C190.015 97.6738 189.126 95.0225 187.349 93.1182C185.581 91.2139 183.076 90.2617 179.834 90.2617C176.631 90.2617 174.141 91.2188 172.363 93.1328C170.596 95.0469 169.712 97.6934 169.712 101.072V101.438ZM173.623 101.673V100.882C173.623 98.5283 174.136 96.6973 175.161 95.3887C176.187 94.0703 177.749 93.4111 179.849 93.4111C181.958 93.4111 183.53 94.0703 184.565 95.3887C185.61 96.6973 186.133 98.5283 186.133 100.882V101.673C186.133 104.124 185.615 106.009 184.58 107.327C183.555 108.646 181.978 109.305 179.849 109.305C177.729 109.305 176.162 108.646 175.146 107.327C174.131 106.009 173.623 104.124 173.623 101.673Z" fill="black" fill-opacity="0.6"/>
<rect x="480" width="450" height="190" rx="25" fill="white"/>
<path d="M515.527 65.0977H521.133L529.199 42.9297C529.316 42.5781 529.401 42.2266 529.453 41.875C529.505 41.5234 529.544 41.1784 529.57 40.8398H529.629C529.668 41.1784 529.714 41.5234 529.766 41.875C529.818 42.2266 529.902 42.5781 530.02 42.9297L538.164 65.0977H543.613L554.199 36.5625H549.473L541.66 58.5352C541.543 58.8867 541.458 59.2904 541.406 59.7461C541.367 60.2018 541.322 60.599 541.27 60.9375H541.211C541.159 60.599 541.107 60.2018 541.055 59.7461C541.003 59.2904 540.911 58.8867 540.781 58.5352L532.5 36.5625H527.012L519.004 58.5156C518.874 58.8802 518.783 59.2904 518.73 59.7461C518.678 60.1888 518.62 60.5859 518.555 60.9375H518.535C518.483 60.5859 518.424 60.1888 518.359 59.7461C518.294 59.2904 518.197 58.8802 518.066 58.5156L510.098 36.5625H505L515.527 65.0977ZM557.695 65H562.578V52.3828H583.203V65H588.066V36.5625H583.203V48.2617H562.578V36.5625H557.695V65ZM595.059 65H599.98V36.5625H595.059V65ZM603.887 40.625H616.738V65H621.621V40.625H634.492V36.5625H603.887V40.625ZM638.477 65H663.711V60.9766H643.281V52.3633H661.211V48.4375H643.281V40.625H663.457V36.5625H638.477V65Z" fill="black"/>
<path d="M507.798 112.293L510.815 112.278L519.326 90.3643H516.279L507.798 112.293ZM517.656 112.293H520.703L529.214 90.3643H526.167L517.656 112.293ZM505.586 106.697H529.8V103.387H505.586V106.697ZM507.197 99.3438H531.396V96.0625H507.197V99.3438ZM534.502 112H538.281V103.108H551.025V100.062H538.281V93.792H552.505V90.6719H534.502V112ZM555.684 112H559.463V103.108H572.207V100.062H559.463V93.792H573.687V90.6719H555.684V112ZM576.865 112H580.645V103.108H593.389V100.062H580.645V93.792H594.868V90.6719H576.865V112ZM598.047 112H601.826V103.108H614.57V100.062H601.826V93.792H616.05V90.6719H598.047V112ZM619.229 112H623.008V103.108H635.752V100.062H623.008V93.792H637.231V90.6719H619.229V112ZM640.41 112H644.189V103.108H656.934V100.062H644.189V93.792H658.413V90.6719H640.41V112Z" fill="black" fill-opacity="0.6"/>
<rect x="0.5" y="220.5" width="449" height="189" rx="24.5" fill="black" stroke="white"/>
<path d="M28.5547 285H41.9531C46.5885 285 50.4948 283.783 53.6719 281.348C56.862 278.913 58.457 275.371 58.457 270.723C58.457 266.048 56.875 262.52 53.7109 260.137C50.5469 257.754 46.6276 256.562 41.9531 256.562H28.5547V285ZM33.3984 281.035V260.566H41.7969C45.1823 260.566 47.9753 261.4 50.1758 263.066C52.3763 264.733 53.4766 267.285 53.4766 270.723V270.762C53.4766 274.238 52.3698 276.823 50.1562 278.516C47.9427 280.195 45.1562 281.035 41.7969 281.035H33.3984ZM63.5938 285H88.8281V280.977H68.3984V272.363H86.3281V268.438H68.3984V260.625H88.5742V256.562H63.5938V285ZM93.8672 285H119.102V280.977H98.6719V272.363H116.602V268.438H98.6719V260.625H118.848V256.562H93.8672V285ZM124.141 285H129.023V275.098H139.473C143.522 275.111 146.556 274.284 148.574 272.617C150.605 270.951 151.621 268.678 151.621 265.801C151.621 262.806 150.605 260.521 148.574 258.945C146.543 257.357 143.516 256.562 139.492 256.562H124.141V285ZM129.023 271.172V260.566H139.082C141.816 260.566 143.776 261.022 144.961 261.934C146.146 262.832 146.738 264.134 146.738 265.84C146.738 267.507 146.146 268.815 144.961 269.766C143.776 270.703 141.816 271.172 139.082 271.172H129.023ZM166.875 285H182.266C185.729 285 188.555 284.323 190.742 282.969C192.943 281.602 194.043 279.577 194.043 276.895C194.043 274.928 193.47 273.385 192.324 272.266C191.191 271.146 189.785 270.417 188.105 270.078V270.02C189.408 269.655 190.521 268.945 191.445 267.891C192.37 266.836 192.832 265.501 192.832 263.887C192.832 261.348 191.829 259.492 189.824 258.32C187.819 257.148 185.065 256.562 181.562 256.562H166.875V285ZM171.699 281.27V272.012H181.914C184.258 272.012 186.048 272.402 187.285 273.184C188.522 273.952 189.141 275.072 189.141 276.543C189.141 278.158 188.522 279.349 187.285 280.117C186.048 280.885 184.258 281.27 181.914 281.27H171.699ZM171.699 268.535V260.332H181.23C183.561 260.332 185.273 260.664 186.367 261.328C187.474 261.992 188.027 263.014 188.027 264.395C188.027 265.71 187.474 266.732 186.367 267.461C185.273 268.177 183.561 268.535 181.23 268.535H171.699ZM199.492 285H222.988V280.898H204.375V256.562H199.492V285ZM222.969 285H228.008L238.926 263.672C239.277 262.93 239.577 262.285 239.824 261.738C240.072 261.191 240.319 260.625 240.566 260.039H240.742C240.99 260.612 241.237 261.178 241.484 261.738C241.732 262.285 242.038 262.923 242.402 263.652L253.203 285H258.887L243.594 256.465H238.086L222.969 285ZM229.492 278.008H252.051L250.332 274.082H231.211L229.492 278.008ZM259.609 270.781C259.609 275.69 261.309 279.388 264.707 281.875C268.118 284.349 272.422 285.586 277.617 285.586C282.721 285.586 286.641 284.727 289.375 283.008C292.122 281.289 293.659 278.763 293.984 275.43L294.023 274.98H289.082L289.043 275.43C288.783 277.109 287.767 278.555 285.996 279.766C284.238 280.977 281.452 281.582 277.637 281.582C273.73 281.582 270.592 280.755 268.223 279.102C265.853 277.435 264.668 274.694 264.668 270.879V270.703C264.668 267.292 265.827 264.655 268.145 262.793C270.475 260.931 273.639 260 277.637 260C281.126 260 283.763 260.573 285.547 261.719C287.344 262.865 288.496 264.355 289.004 266.191L289.062 266.602H294.004L293.945 266.133C293.229 262.617 291.556 260.046 288.926 258.418C286.309 256.79 282.533 255.977 277.598 255.977C272.376 255.977 268.073 257.227 264.688 259.727C261.302 262.214 259.609 265.911 259.609 270.82V270.781ZM298.359 285H303.242V275.449L327.988 256.562H321.484L303.242 270.293V256.562H298.359V285ZM322.051 285H328.828L310.488 267.598L306.875 270.664L322.051 285Z" fill="white"/>
<path d="M27.7979 332.293L30.8154 332.278L39.3262 310.364H36.2793L27.7979 332.293ZM37.6562 332.293H40.7031L49.2139 310.364H46.167L37.6562 332.293ZM25.5859 326.697H49.7998V323.387H25.5859V326.697ZM27.1973 319.344H51.3965V316.062H27.1973V319.344ZM52.9932 321.438C52.9932 324.896 53.8721 327.591 55.6299 329.524C57.3877 331.448 59.8828 332.41 63.1152 332.41C66.3379 332.41 68.8379 331.458 70.6152 329.554C72.4023 327.649 73.2959 324.949 73.2959 321.453V321.072C73.2959 317.674 72.4072 315.022 70.6299 313.118C68.8623 311.214 66.3574 310.262 63.1152 310.262C59.9121 310.262 57.4219 311.219 55.6445 313.133C53.877 315.047 52.9932 317.693 52.9932 321.072V321.438ZM56.9043 321.673V320.882C56.9043 318.528 57.417 316.697 58.4424 315.389C59.4678 314.07 61.0303 313.411 63.1299 313.411C65.2393 313.411 66.8115 314.07 67.8467 315.389C68.8916 316.697 69.4141 318.528 69.4141 320.882V321.673C69.4141 324.124 68.8965 326.009 67.8613 327.327C66.8359 328.646 65.2588 329.305 63.1299 329.305C61.0107 329.305 59.4434 328.646 58.4277 327.327C57.4121 326.009 56.9043 324.124 56.9043 321.673ZM75.376 321.438C75.376 324.896 76.2549 327.591 78.0127 329.524C79.7705 331.448 82.2656 332.41 85.498 332.41C88.7207 332.41 91.2207 331.458 92.998 329.554C94.7852 327.649 95.6787 324.949 95.6787 321.453V321.072C95.6787 317.674 94.79 315.022 93.0127 313.118C91.2451 311.214 88.7402 310.262 85.498 310.262C82.2949 310.262 79.8047 311.219 78.0273 313.133C76.2598 315.047 75.376 317.693 75.376 321.072V321.438ZM79.2871 321.673V320.882C79.2871 318.528 79.7998 316.697 80.8252 315.389C81.8506 314.07 83.4131 313.411 85.5127 313.411C87.6221 313.411 89.1943 314.07 90.2295 315.389C91.2744 316.697 91.7969 318.528 91.7969 320.882V321.673C91.7969 324.124 91.2793 326.009 90.2441 327.327C89.2188 328.646 87.6416 329.305 85.5127 329.305C83.3936 329.305 81.8262 328.646 80.8105 327.327C79.7949 326.009 79.2871 324.124 79.2871 321.673ZM97.7588 321.438C97.7588 324.896 98.6377 327.591 100.396 329.524C102.153 331.448 104.648 332.41 107.881 332.41C111.104 332.41 113.604 331.458 115.381 329.554C117.168 327.649 118.062 324.949 118.062 321.453V321.072C118.062 317.674 117.173 315.022 115.396 313.118C113.628 311.214 111.123 310.262 107.881 310.262C104.678 310.262 102.188 311.219 100.41 313.133C98.6426 315.047 97.7588 317.693 97.7588 321.072V321.438ZM101.67 321.673V320.882C101.67 318.528 102.183 316.697 103.208 315.389C104.233 314.07 105.796 313.411 107.896 313.411C110.005 313.411 111.577 314.07 112.612 315.389C113.657 316.697 114.18 318.528 114.18 320.882V321.673C114.18 324.124 113.662 326.009 112.627 327.327C111.602 328.646 110.024 329.305 107.896 329.305C105.776 329.305 104.209 328.646 103.193 327.327C102.178 326.009 101.67 324.124 101.67 321.673ZM120.142 321.438C120.142 324.896 121.021 327.591 122.778 329.524C124.536 331.448 127.031 332.41 130.264 332.41C133.486 332.41 135.986 331.458 137.764 329.554C139.551 327.649 140.444 324.949 140.444 321.453V321.072C140.444 317.674 139.556 315.022 137.778 313.118C136.011 311.214 133.506 310.262 130.264 310.262C127.061 310.262 124.57 311.219 122.793 313.133C121.025 315.047 120.142 317.693 120.142 321.072V321.438ZM124.053 321.673V320.882C124.053 318.528 124.565 316.697 125.591 315.389C126.616 314.07 128.179 313.411 130.278 313.411C132.388 313.411 133.96 314.07 134.995 315.389C136.04 316.697 136.562 318.528 136.562 320.882V321.673C136.562 324.124 136.045 326.009 135.01 327.327C133.984 328.646 132.407 329.305 130.278 329.305C128.159 329.305 126.592 328.646 125.576 327.327C124.561 326.009 124.053 324.124 124.053 321.673ZM142.524 321.438C142.524 324.896 143.403 327.591 145.161 329.524C146.919 331.448 149.414 332.41 152.646 332.41C155.869 332.41 158.369 331.458 160.146 329.554C161.934 327.649 162.827 324.949 162.827 321.453V321.072C162.827 317.674 161.938 315.022 160.161 313.118C158.394 311.214 155.889 310.262 152.646 310.262C149.443 310.262 146.953 311.219 145.176 313.133C143.408 315.047 142.524 317.693 142.524 321.072V321.438ZM146.436 321.673V320.882C146.436 318.528 146.948 316.697 147.974 315.389C148.999 314.07 150.562 313.411 152.661 313.411C154.771 313.411 156.343 314.07 157.378 315.389C158.423 316.697 158.945 318.528 158.945 320.882V321.673C158.945 324.124 158.428 326.009 157.393 327.327C156.367 328.646 154.79 329.305 152.661 329.305C150.542 329.305 148.975 328.646 147.959 327.327C146.943 326.009 146.436 324.124 146.436 321.673ZM164.907 321.438C164.907 324.896 165.786 327.591 167.544 329.524C169.302 331.448 171.797 332.41 175.029 332.41C178.252 332.41 180.752 331.458 182.529 329.554C184.316 327.649 185.21 324.949 185.21 321.453V321.072C185.21 317.674 184.321 315.022 182.544 313.118C180.776 311.214 178.271 310.262 175.029 310.262C171.826 310.262 169.336 311.219 167.559 313.133C165.791 315.047 164.907 317.693 164.907 321.072V321.438ZM168.818 321.673V320.882C168.818 318.528 169.331 316.697 170.356 315.389C171.382 314.07 172.944 313.411 175.044 313.411C177.153 313.411 178.726 314.07 179.761 315.389C180.806 316.697 181.328 318.528 181.328 320.882V321.673C181.328 324.124 180.811 326.009 179.775 327.327C178.75 328.646 177.173 329.305 175.044 329.305C172.925 329.305 171.357 328.646 170.342 327.327C169.326 326.009 168.818 324.124 168.818 321.673Z" fill="white" fill-opacity="0.6"/>
<path d="M480 245C480 231.193 491.193 220 505 220H905C918.807 220 930 231.193 930 245V385C930 398.807 918.807 410 905 410H505C491.193 410 480 398.807 480 385V245Z" fill="url(#paint0_linear_4755_813)"/>
<path d="M508.555 285H513.438V272.383H534.062V285H538.926V256.562H534.062V268.262H513.438V256.562H508.555V285ZM557.285 285H562.188V256.328H559.199L546.191 260.371V264.824L557.285 261.055V285ZM585.625 270.625C585.625 275.612 587.337 279.355 590.762 281.855C594.186 284.342 598.62 285.586 604.062 285.586C608.099 285.586 611.439 285.137 614.082 284.238C616.738 283.34 618.737 282.396 620.078 281.406V270.645H603.711V274.492H615.312V279.453C614.245 280.013 612.786 280.508 610.938 280.938C609.102 281.367 606.829 281.582 604.121 281.582C600.02 281.582 596.745 280.69 594.297 278.906C591.862 277.122 590.645 274.414 590.645 270.781V270.645C590.645 267.09 591.855 264.434 594.277 262.676C596.699 260.905 599.72 260.02 603.34 260.02C606.96 260.02 609.661 260.449 611.445 261.309C613.242 262.168 614.368 263.444 614.824 265.137L614.863 265.371H619.746L619.688 264.98C619.323 262.038 617.767 259.805 615.02 258.281C612.272 256.745 608.392 255.977 603.379 255.977C598.418 255.977 594.219 257.22 590.781 259.707C587.344 262.194 585.625 265.866 585.625 270.723V270.625ZM625.078 285H629.961V274.316H640.469C644.18 274.303 647.083 273.503 649.18 271.914C651.289 270.312 652.344 268.125 652.344 265.352C652.344 262.578 651.309 260.423 649.238 258.887C647.168 257.337 644.251 256.562 640.488 256.562H625.078V285ZM629.941 270.488V260.508H640.176C642.741 260.508 644.596 260.951 645.742 261.836C646.888 262.708 647.454 263.913 647.441 265.449C647.441 266.96 646.868 268.177 645.723 269.102C644.59 270.026 642.741 270.488 640.176 270.488H629.941ZM648.789 285H654.609L645.156 272.305L639.707 272.09L648.789 285ZM653.906 285H658.945L669.863 263.672C670.215 262.93 670.514 262.285 670.762 261.738C671.009 261.191 671.257 260.625 671.504 260.039H671.68C671.927 260.612 672.174 261.178 672.422 261.738C672.669 262.285 672.975 262.923 673.34 263.652L684.141 285H689.824L674.531 256.465H669.023L653.906 285ZM660.43 278.008H682.988L681.27 274.082H662.148L660.43 278.008ZM692.578 285H705.977C710.612 285 714.518 283.783 717.695 281.348C720.885 278.913 722.48 275.371 722.48 270.723C722.48 266.048 720.898 262.52 717.734 260.137C714.57 257.754 710.651 256.562 705.977 256.562H692.578V285ZM697.422 281.035V260.566H705.82C709.206 260.566 711.999 261.4 714.199 263.066C716.4 264.733 717.5 267.285 717.5 270.723V270.762C717.5 274.238 716.393 276.823 714.18 278.516C711.966 280.195 709.18 281.035 705.82 281.035H697.422ZM727.48 285H732.402V256.562H727.48V285ZM739.375 285H764.609V280.977H744.18V272.363H762.109V268.438H744.18V260.625H764.355V256.562H739.375V285ZM769.648 285H773.887V264.531C773.887 264.232 773.867 263.88 773.828 263.477C773.802 263.073 773.757 262.715 773.691 262.402H773.867C774.01 262.676 774.219 263.001 774.492 263.379C774.779 263.757 775.098 264.147 775.449 264.551L794.297 285H799.18V256.562H794.941V276.895C794.941 277.259 794.961 277.617 795 277.969C795.039 278.307 795.085 278.659 795.137 279.023H794.98C794.85 278.789 794.648 278.49 794.375 278.125C794.102 277.76 793.815 277.409 793.516 277.07L774.551 256.562H769.648V285ZM803.262 260.625H816.113V285H820.996V260.625H833.867V256.562H803.262V260.625Z" fill="black"/>
<path d="M507.798 332.293L510.815 332.278L519.326 310.364H516.279L507.798 332.293ZM517.656 332.293H520.703L529.214 310.364H526.167L517.656 332.293ZM505.586 326.697H529.8V323.387H505.586V326.697ZM507.197 319.344H531.396V316.062H507.197V319.344ZM534.502 332H538.281V323.108H551.025V320.062H538.281V313.792H552.505V310.672H534.502V332ZM555.684 332H559.463V323.108H572.207V320.062H559.463V313.792H573.687V310.672H555.684V332ZM576.865 332H586.489C590.015 332 592.983 331.092 595.396 329.275C597.808 327.449 599.014 324.812 599.014 321.365V321.263C599.014 317.796 597.812 315.164 595.41 313.367C593.008 311.57 590.034 310.672 586.489 310.672H576.865V332ZM580.63 328.938V313.763H586.401C588.96 313.763 591.06 314.378 592.7 315.608C594.341 316.839 595.161 318.719 595.161 321.248V321.38C595.161 323.938 594.336 325.838 592.686 327.078C591.045 328.318 588.95 328.938 586.401 328.938H580.63ZM610.879 332H614.688V310.467H612.563L602.749 313.455V316.868L610.879 314.188V332ZM624.121 326.243C624.131 328.04 625.039 329.515 626.846 330.667C628.652 331.819 631.035 332.396 633.994 332.396C637.09 332.396 639.517 331.736 641.274 330.418C643.032 329.1 643.911 327.298 643.911 325.013C643.921 322.757 643.091 321.019 641.421 319.798C639.761 318.577 637.617 317.967 634.99 317.967C633.496 317.967 632.227 318.167 631.182 318.567C630.137 318.958 629.321 319.373 628.735 319.812L629.409 313.938H642.402V310.672H626.406L625.176 321.585L628.618 323.108C629.292 322.503 630.034 321.995 630.845 321.585C631.665 321.175 632.744 320.97 634.082 320.97C635.947 320.97 637.417 321.307 638.491 321.98C639.565 322.654 640.103 323.689 640.103 325.086C640.103 326.473 639.575 327.537 638.521 328.279C637.466 329.021 635.957 329.393 633.994 329.393C632.061 329.393 630.557 329.124 629.482 328.587C628.418 328.04 627.886 327.264 627.886 326.258V325.965H624.121V326.243ZM644.512 332H648.364L656.201 316.326C656.475 315.75 656.709 315.232 656.904 314.773C657.1 314.314 657.285 313.855 657.461 313.396H657.622C657.808 313.855 657.998 314.314 658.193 314.773C658.389 315.232 658.623 315.75 658.896 316.326L666.631 332H670.996L659.834 310.584H655.571L644.512 332ZM649.331 326.902H665.957L664.653 323.855H650.62L649.331 326.902Z" fill="black" fill-opacity="0.6"/>
<path d="M735.798 332.293L738.815 332.278L747.326 310.364H744.279L735.798 332.293ZM745.656 332.293H748.703L757.214 310.364H754.167L745.656 332.293ZM733.586 326.697H757.8V323.387H733.586V326.697ZM735.197 319.344H759.396V316.062H735.197V319.344ZM762.502 332H781.179V328.895H766.237V322.566H779.304V319.505H766.237V313.807H781.003V310.672H762.502V332ZM784.826 332H794.45C797.976 332 800.944 331.092 803.356 329.275C805.769 327.449 806.975 324.812 806.975 321.365V321.263C806.975 317.796 805.773 315.164 803.371 313.367C800.969 311.57 797.995 310.672 794.45 310.672H784.826V332ZM788.591 328.938V313.763H794.362C796.921 313.763 799.021 314.378 800.661 315.608C802.302 316.839 803.122 318.719 803.122 321.248V321.38C803.122 323.938 802.297 325.838 800.646 327.078C799.006 328.318 796.911 328.938 794.362 328.938H788.591ZM807.326 332H811.179L819.016 316.326C819.289 315.75 819.523 315.232 819.719 314.773C819.914 314.314 820.1 313.855 820.275 313.396H820.437C820.622 313.855 820.812 314.314 821.008 314.773C821.203 315.232 821.438 315.75 821.711 316.326L829.445 332H833.811L822.648 310.584H818.386L807.326 332ZM812.146 326.902H828.771L827.468 323.855H813.435L812.146 326.902ZM835.803 332H846.921C849.606 332 851.789 331.492 853.469 330.477C855.148 329.451 855.988 327.928 855.988 325.906C855.988 324.461 855.568 323.318 854.729 322.479C853.889 321.629 852.824 321.072 851.535 320.809V320.75C852.551 320.477 853.4 319.954 854.084 319.183C854.777 318.401 855.124 317.415 855.124 316.224C855.124 314.271 854.348 312.859 852.795 311.99C851.242 311.111 849.104 310.672 846.379 310.672H835.803V332ZM839.538 329.1V322.303H846.716C848.532 322.303 849.899 322.596 850.817 323.182C851.735 323.758 852.194 324.578 852.194 325.643C852.194 326.824 851.735 327.698 850.817 328.265C849.899 328.821 848.532 329.1 846.716 329.1H839.538ZM839.538 319.578V313.602H846.188C847.995 313.602 849.313 313.841 850.144 314.319C850.974 314.798 851.389 315.545 851.389 316.561C851.389 317.518 850.974 318.26 850.144 318.787C849.313 319.314 847.995 319.578 846.188 319.578H839.538ZM859.914 332H863.693V323.108H876.438V320.062H863.693V313.792H877.917V310.672H859.914V332ZM881.096 332H890.72C894.245 332 897.214 331.092 899.626 329.275C902.038 327.449 903.244 324.812 903.244 321.365V321.263C903.244 317.796 902.043 315.164 899.641 313.367C897.238 311.57 894.265 310.672 890.72 310.672H881.096V332ZM884.86 328.938V313.763H890.632C893.19 313.763 895.29 314.378 896.931 315.608C898.571 316.839 899.392 318.719 899.392 321.248V321.38C899.392 323.938 898.566 325.838 896.916 327.078C895.275 328.318 893.181 328.938 890.632 328.938H884.86Z" fill="black" fill-opacity="0.6"/>
<defs>
<linearGradient id="paint0_linear_4755_813" x1="705" y1="220" x2="705" y2="410" gradientUnits="userSpaceOnUse">
<stop stop-color="#FFD15A"/>
<stop offset="1" stop-color="#EDABFD"/>
</linearGradient>
</defs>
</svg>
