<svg width="528" height="387" viewBox="0 0 528 387" fill="none" xmlns="http://www.w3.org/2000/svg">
<ellipse cx="392.986" cy="208.52" rx="158.809" ry="84.5729" transform="rotate(-70 392.986 208.52)" fill="black"/>
<path d="M446.98 60.1707C490.872 76.1459 502.279 155.514 472.458 237.445C442.638 319.376 382.883 372.843 338.991 356.868" stroke="#DDFF20" stroke-width="1.8794"/>
<path d="M415.192 48.601C436.652 56.4118 450.337 79.9067 454.87 112.012C459.397 144.071 454.744 184.46 439.787 225.554C424.83 266.648 402.433 300.578 378.358 322.227C354.248 343.907 328.663 353.109 307.203 345.298C285.743 337.488 272.059 313.993 267.525 281.888C262.998 249.828 267.651 209.439 282.608 168.345C297.565 127.252 319.962 93.3212 344.038 71.6721C368.147 49.9922 393.732 40.7901 415.192 48.601Z" fill="black" stroke="#DDFF20" stroke-width="1.8794"/>
<line x1="308.971" y1="345.942" x2="338.994" y2="356.87" stroke="#DDFF20" stroke-width="1.8794"/>
<line x1="418.725" y1="49.8875" x2="448.748" y2="60.8149" stroke="#DDFF20" stroke-width="1.8794"/>
<path d="M408.366 59.1157C427.12 65.9418 438.86 87.2383 442.396 116.645C445.926 145.993 441.231 183.124 427.426 221.054C413.62 258.984 393.35 290.446 371.781 310.659C350.169 330.912 327.488 339.681 308.733 332.854C289.978 326.028 278.239 304.732 274.702 275.325C271.173 245.977 275.868 208.847 289.673 170.916C303.479 132.986 323.749 101.525 345.317 81.3114C366.929 61.0578 389.611 52.2895 408.366 59.1157Z" fill="black" stroke="#DDFF20" stroke-width="1.8794"/>
<line x1="336.908" y1="346.109" x2="369.58" y2="358.001" stroke="#DDFF20" stroke-width="1.8794"/>
<line x1="357.945" y1="337.766" x2="389.734" y2="349.336" stroke="#DDFF20" stroke-width="1.8794"/>
<line x1="373.685" y1="327.495" x2="405.474" y2="339.065" stroke="#DDFF20" stroke-width="1.8794"/>
<line x1="386.532" y1="314.17" x2="418.321" y2="325.74" stroke="#DDFF20" stroke-width="1.8794"/>
<line x1="400.026" y1="299.082" x2="432.699" y2="310.973" stroke="#DDFF20" stroke-width="1.8794"/>
<line x1="411.75" y1="283.349" x2="444.422" y2="295.241" stroke="#DDFF20" stroke-width="1.8794"/>
<line x1="422.355" y1="265.209" x2="455.027" y2="277.1" stroke="#DDFF20" stroke-width="1.8794"/>
<line x1="431.191" y1="246.424" x2="463.863" y2="258.316" stroke="#DDFF20" stroke-width="1.8794"/>
<line x1="441.314" y1="224.108" x2="473.986" y2="236" stroke="#DDFF20" stroke-width="1.8794"/>
<line y1="-0.939699" x2="34.205" y2="-0.939699" transform="matrix(0.939693 0.34202 0.34202 -0.939693 436.609 63.396)" stroke="#DDFF20" stroke-width="1.8794"/>
<line y1="-0.939699" x2="33.8292" y2="-0.939699" transform="matrix(0.939693 0.34202 0.34202 -0.939693 448.422 83.6948)" stroke="#DDFF20" stroke-width="1.8794"/>
<line y1="-0.939699" x2="33.8292" y2="-0.939699" transform="matrix(0.939693 0.34202 0.34202 -0.939693 453.876 101.68)" stroke="#DDFF20" stroke-width="1.8794"/>
<line y1="-0.939699" x2="33.8292" y2="-0.939699" transform="matrix(0.939693 0.34202 0.34202 -0.939693 456.919 120.789)" stroke="#DDFF20" stroke-width="1.8794"/>
<line y1="-0.939699" x2="34.7689" y2="-0.939699" transform="matrix(0.939693 0.34202 0.34202 -0.939693 457.558 141.021)" stroke="#DDFF20" stroke-width="1.8794"/>
<line y1="-0.939699" x2="34.7689" y2="-0.939699" transform="matrix(0.939693 0.34202 0.34202 -0.939693 456.428 160.609)" stroke="#DDFF20" stroke-width="1.8794"/>
<line y1="-0.939699" x2="34.7689" y2="-0.939699" transform="matrix(0.939693 0.34202 0.34202 -0.939693 452.889 181.321)" stroke="#DDFF20" stroke-width="1.8794"/>
<line y1="-0.939699" x2="34.7689" y2="-0.939699" transform="matrix(0.939693 0.34202 0.34202 -0.939693 447.585 201.391)" stroke="#DDFF20" stroke-width="1.8794"/>
<path fill-rule="evenodd" clip-rule="evenodd" d="M374.071 207.144L374.064 207.15C369.034 211.158 363.755 211.906 358.263 209.907L348.294 206.279L346.795 210.399L366.224 217.471L359.526 235.874L340.097 228.802L335.768 240.694L325.484 236.951L329.812 225.059L325.534 223.502L332.232 205.099L336.51 206.656L338.01 202.535L333.759 200.988L340.938 181.264L345.189 182.811L359.552 143.35L379.804 150.721C385.265 152.709 388.859 156.515 390.247 162.491C391.701 168.672 390.532 176.8 387.052 186.362C383.573 195.92 379.218 203.01 374.071 207.144ZM388.532 164.727C389.792 170.083 388.834 177.125 385.657 185.854C382.48 194.583 378.638 200.758 374.131 204.378C369.639 207.958 364.723 208.776 359.382 206.832L348.018 202.696L344.28 212.966L363.71 220.038L359.25 232.291L339.821 225.219L335.492 237.111L327.998 234.384L332.327 222.491L328.048 220.934L332.508 208.682L336.786 210.239L340.525 199.968L336.273 198.421L341.214 184.847L345.465 186.394L359.828 146.933L378.685 153.797C384.008 155.734 387.29 159.377 388.532 164.727ZM364.077 193.168C367.384 194.372 370.059 194.257 372.103 192.824C374.147 191.392 376.094 188.133 377.945 183.047C379.694 178.242 380.231 174.674 379.557 172.343C378.898 169.972 376.915 168.185 373.609 166.981L362.49 162.934L352.959 189.122L364.077 193.168ZM355.473 186.554L365.196 190.093C368.466 191.283 370.791 191.013 372.282 189.968C373.484 189.126 374.897 187.079 376.55 182.54C378.073 178.353 378.265 176.054 377.87 174.687L377.864 174.667C377.382 172.931 375.761 171.247 372.489 170.056L362.766 166.517L355.473 186.554Z" fill="#DDFF20"/>
<ellipse cx="197.762" cy="192.782" rx="158.809" ry="84.5729" transform="rotate(-40 197.762 192.782)" fill="black"/>
<path d="M318.698 91.3052C348.722 127.086 318.916 201.524 252.126 257.568C185.335 313.612 106.852 330.039 76.8281 294.258" stroke="#DDFF20" stroke-width="1.8794"/>
<path d="M296.952 65.3907C311.632 82.8852 311.735 110.074 299.609 140.145C287.5 170.173 263.276 202.824 229.776 230.934C196.276 259.044 159.914 277.23 128.24 283.941C96.5201 290.661 69.7619 285.838 55.0823 268.344C40.4026 250.849 40.2992 223.66 52.4258 193.589C64.535 163.562 88.7589 130.91 122.259 102.8C155.759 74.6906 192.121 56.5046 223.795 49.7936C255.514 43.073 282.273 47.8962 296.952 65.3907Z" fill="black" stroke="#DDFF20" stroke-width="1.8794"/>
<line x1="56.2911" y1="269.784" x2="76.8281" y2="294.259" stroke="#DDFF20" stroke-width="1.8794"/>
<line x1="299.368" y1="68.2695" x2="319.905" y2="92.7445" stroke="#DDFF20" stroke-width="1.8794"/>
<path d="M285.783 71.0828C298.612 86.3718 298.13 110.685 286.49 137.92C274.873 165.101 252.242 194.909 221.32 220.855C190.399 246.801 157.114 263.912 128.329 270.633C99.4855 277.367 75.4584 273.62 62.6294 258.331C49.8004 243.042 50.2823 218.729 61.9228 191.494C73.54 164.313 96.1711 134.504 127.092 108.559C158.013 82.6127 191.299 65.5015 220.084 58.7807C248.927 52.0465 272.954 55.7938 285.783 71.0828Z" fill="black" stroke="#DDFF20" stroke-width="1.8794"/>
<line x1="80.4034" y1="283.899" x2="102.752" y2="310.533" stroke="#DDFF20" stroke-width="1.8794"/>
<line x1="102.795" y1="287.192" x2="124.54" y2="313.107" stroke="#DDFF20" stroke-width="1.8794"/>
<line x1="121.56" y1="286.166" x2="143.305" y2="312.08" stroke="#DDFF20" stroke-width="1.8794"/>
<line x1="139.348" y1="281.052" x2="161.093" y2="306.967" stroke="#DDFF20" stroke-width="1.8794"/>
<line x1="158.578" y1="274.729" x2="180.927" y2="301.364" stroke="#DDFF20" stroke-width="1.8794"/>
<line x1="176.598" y1="266.97" x2="198.947" y2="293.604" stroke="#DDFF20" stroke-width="1.8794"/>
<line x1="194.852" y1="256.56" x2="217.201" y2="283.194" stroke="#DDFF20" stroke-width="1.8794"/>
<line x1="211.896" y1="244.71" x2="234.245" y2="271.345" stroke="#DDFF20" stroke-width="1.8794"/>
<line x1="231.819" y1="230.446" x2="254.168" y2="257.081" stroke="#DDFF20" stroke-width="1.8794"/>
<line y1="-0.939699" x2="34.205" y2="-0.939699" transform="matrix(0.642788 0.766044 0.766044 -0.642788 308.101 88.9111)" stroke="#DDFF20" stroke-width="1.8794"/>
<line y1="-0.939699" x2="33.8292" y2="-0.939699" transform="matrix(0.642788 0.766044 0.766044 -0.642788 308.182 112.396)" stroke="#DDFF20" stroke-width="1.8794"/>
<line y1="-0.939699" x2="33.8292" y2="-0.939699" transform="matrix(0.642788 0.766044 0.766044 -0.642788 303.912 130.698)" stroke="#DDFF20" stroke-width="1.8794"/>
<line y1="-0.939699" x2="33.8292" y2="-0.939699" transform="matrix(0.642788 0.766044 0.766044 -0.642788 296.993 148.769)" stroke="#DDFF20" stroke-width="1.8794"/>
<line y1="-0.939699" x2="34.7689" y2="-0.939699" transform="matrix(0.642788 0.766044 0.766044 -0.642788 287.427 166.609)" stroke="#DDFF20" stroke-width="1.8794"/>
<line y1="-0.939699" x2="34.7689" y2="-0.939699" transform="matrix(0.642788 0.766044 0.766044 -0.642788 276.657 183.009)" stroke="#DDFF20" stroke-width="1.8794"/>
<line y1="-0.939699" x2="34.7689" y2="-0.939699" transform="matrix(0.642788 0.766044 0.766044 -0.642788 263.233 199.177)" stroke="#DDFF20" stroke-width="1.8794"/>
<line y1="-0.939699" x2="34.7689" y2="-0.939699" transform="matrix(0.642788 0.766044 0.766044 -0.642788 248.605 213.906)" stroke="#DDFF20" stroke-width="1.8794"/>
<path fill-rule="evenodd" clip-rule="evenodd" d="M182.068 182.132L182.058 182.133C175.699 183.09 170.753 181.098 166.996 176.62L160.177 168.494L156.818 171.312L170.109 187.151L155.106 199.74L141.816 183.901L132.121 192.036L125.086 183.652L134.781 175.517L131.854 172.029L146.857 159.441L149.783 162.929L153.142 160.11L150.234 156.645L166.314 143.152L169.222 146.618L201.39 119.625L215.244 136.135C218.979 140.587 220.189 145.68 218.403 151.549C216.571 157.629 211.496 164.083 203.7 170.625C195.908 177.163 188.592 181.125 182.068 182.132ZM215.8 152.628C214.213 157.896 209.862 163.516 202.746 169.487C195.63 175.458 189.216 178.884 183.503 179.766C177.823 180.621 173.156 178.871 169.503 174.517L161.73 165.253L153.357 172.279L166.647 188.118L156.659 196.499L143.368 180.66L133.674 188.795L128.547 182.686L138.242 174.551L135.316 171.063L145.304 162.682L148.231 166.169L156.603 159.144L153.695 155.678L164.761 146.393L167.669 149.859L199.838 122.866L212.737 138.238C216.378 142.578 217.399 147.374 215.8 152.628ZM180.4 165.031C182.662 167.727 185.036 168.965 187.523 168.746C190.009 168.528 193.325 166.679 197.471 163.2C201.388 159.914 203.637 157.092 204.219 154.736C204.834 152.353 204.01 149.814 201.748 147.118L194.143 138.055L172.795 155.968L180.4 165.031ZM176.256 155.002L182.907 162.928C185.144 165.593 187.293 166.522 189.106 166.363C190.568 166.234 192.816 165.168 196.516 162.063C199.929 159.199 201.245 157.304 201.586 155.922L201.591 155.902C202.041 154.158 201.479 151.889 199.242 149.222L192.591 141.296L176.256 155.002Z" fill="#DDFF20"/>
</svg>
