<svg width="1440" height="900" viewBox="0 0 1440 900" fill="none" xmlns="http://www.w3.org/2000/svg">
<path d="M0 25.6C0 16.6392 0 12.1587 1.7439 8.73615C3.27787 5.72556 5.72556 3.27787 8.73615 1.7439C12.1587 0 16.6392 0 25.6 0H1414.4C1423.36 0 1427.84 0 1431.26 1.7439C1434.27 3.27787 1436.72 5.72556 1438.26 8.73615C1440 12.1587 1440 16.6392 1440 25.6V56H0V25.6Z" fill="#353535"/>
<circle cx="30" cy="28" r="6" fill="#ED6B5D"/>
<circle cx="50" cy="28" r="6" fill="#F4BE50"/>
<circle cx="70" cy="28" r="6" fill="#61C554"/>
<path d="M111.4 28C111.4 28.2304 111.482 28.4332 111.655 28.6083L118.883 35.7512C119.038 35.9171 119.238 36 119.475 36C119.949 36 120.314 35.6406 120.314 35.1613C120.314 34.9217 120.213 34.7189 120.067 34.5622L113.432 28L120.067 21.4378C120.213 21.2811 120.314 21.0691 120.314 20.8387C120.314 20.3594 119.949 20 119.475 20C119.238 20 119.038 20.0829 118.883 20.2396L111.655 27.3917C111.482 27.5576 111.4 27.7696 111.4 28Z" fill="#B5B5B5"/>
<path d="M164.314 28C164.314 27.7696 164.222 27.5576 164.049 27.3917L156.831 20.2396C156.667 20.0829 156.466 20 156.229 20C155.765 20 155.4 20.3594 155.4 20.8387C155.4 21.0691 155.491 21.2811 155.637 21.4378L162.272 28L155.637 34.5622C155.491 34.7189 155.4 34.9217 155.4 35.1613C155.4 35.6406 155.765 36 156.229 36C156.466 36 156.667 35.9171 156.831 35.7512L164.049 28.6083C164.222 28.4332 164.314 28.2304 164.314 28Z" fill="#4D4D4D"/>
<path d="M696.161 34H701.695C702.584 34 703.056 33.5107 703.056 32.5443V28.3302C703.056 27.3639 702.584 26.8807 701.695 26.8807H696.161C695.272 26.8807 694.8 27.3639 694.8 28.3302V32.5443C694.8 33.5107 695.272 34 696.161 34ZM695.858 27.3517H696.82V25.2844C696.82 23.7431 697.794 22.9235 698.925 22.9235C700.056 22.9235 701.042 23.7431 701.042 25.2844V27.3517H701.997V25.4189C701.997 23.1193 700.509 22 698.925 22C697.346 22 695.858 23.1193 695.858 25.4189V27.3517Z" fill="#B5B5B5"/>
<path d="M717.826 28.75V34H716.485V22.3636H717.826V26.6364H717.94C718.144 26.1856 718.451 25.8277 718.86 25.5625C719.273 25.2936 719.822 25.1591 720.508 25.1591C721.103 25.1591 721.623 25.2784 722.07 25.517C722.517 25.7519 722.864 26.1136 723.11 26.6023C723.36 27.0871 723.485 27.7045 723.485 28.4545V34H722.144V28.5455C722.144 27.8523 721.964 27.3163 721.604 26.9375C721.248 26.5549 720.754 26.3636 720.121 26.3636C719.682 26.3636 719.288 26.4564 718.94 26.642C718.595 26.8277 718.322 27.0985 718.121 27.4545C717.924 27.8106 717.826 28.2424 717.826 28.75ZM729.484 34.1818C728.696 34.1818 728.004 33.9943 727.41 33.6193C726.819 33.2443 726.357 32.7197 726.023 32.0455C725.694 31.3712 725.529 30.5833 725.529 29.6818C725.529 28.7727 725.694 27.9792 726.023 27.3011C726.357 26.6231 726.819 26.0966 727.41 25.7216C728.004 25.3466 728.696 25.1591 729.484 25.1591C730.272 25.1591 730.961 25.3466 731.552 25.7216C732.147 26.0966 732.609 26.6231 732.938 27.3011C733.272 27.9792 733.438 28.7727 733.438 29.6818C733.438 30.5833 733.272 31.3712 732.938 32.0455C732.609 32.7197 732.147 33.2443 731.552 33.6193C730.961 33.9943 730.272 34.1818 729.484 34.1818ZM729.484 32.9773C730.082 32.9773 730.575 32.8239 730.961 32.517C731.347 32.2102 731.633 31.8068 731.819 31.3068C732.004 30.8068 732.097 30.2652 732.097 29.6818C732.097 29.0985 732.004 28.5549 731.819 28.0511C731.633 27.5473 731.347 27.1402 730.961 26.8295C730.575 26.5189 730.082 26.3636 729.484 26.3636C728.885 26.3636 728.393 26.5189 728.006 26.8295C727.62 27.1402 727.334 27.5473 727.148 28.0511C726.963 28.5549 726.87 29.0985 726.87 29.6818C726.87 30.2652 726.963 30.8068 727.148 31.3068C727.334 31.8068 727.62 32.2102 728.006 32.517C728.393 32.8239 728.885 32.9773 729.484 32.9773ZM739.281 25.2727V26.4091H734.758V25.2727H739.281ZM736.076 23.1818H737.417V31.5C737.417 31.8788 737.472 32.1629 737.582 32.3523C737.695 32.5379 737.839 32.6629 738.013 32.7273C738.192 32.7879 738.379 32.8182 738.576 32.8182C738.724 32.8182 738.845 32.8106 738.94 32.7955C739.034 32.7765 739.11 32.7614 739.167 32.75L739.44 33.9545C739.349 33.9886 739.222 34.0227 739.059 34.0568C738.896 34.0947 738.69 34.1136 738.44 34.1136C738.061 34.1136 737.69 34.0322 737.326 33.8693C736.966 33.7064 736.667 33.4583 736.428 33.125C736.193 32.7917 736.076 32.3712 736.076 31.8636V23.1818ZM742.826 22.3636V34H741.485V22.3636H742.826ZM745.282 34V25.2727H746.623V34H745.282ZM745.964 23.8182C745.702 23.8182 745.477 23.7292 745.288 23.5511C745.102 23.3731 745.009 23.1591 745.009 22.9091C745.009 22.6591 745.102 22.4451 745.288 22.267C745.477 22.089 745.702 22 745.964 22C746.225 22 746.449 22.089 746.634 22.267C746.824 22.4451 746.918 22.6591 746.918 22.9091C746.918 23.1591 746.824 23.3731 746.634 23.5511C746.449 23.7292 746.225 23.8182 745.964 23.8182ZM750.42 28.75V34H749.079V25.2727H750.374V26.6364H750.488C750.692 26.1932 751.003 25.8371 751.42 25.5682C751.836 25.2955 752.374 25.1591 753.033 25.1591C753.624 25.1591 754.141 25.2803 754.585 25.5227C755.028 25.7614 755.372 26.125 755.619 26.6136C755.865 27.0985 755.988 27.7121 755.988 28.4545V34H754.647V28.5455C754.647 27.8598 754.469 27.3258 754.113 26.9432C753.757 26.5568 753.268 26.3636 752.647 26.3636C752.219 26.3636 751.836 26.4564 751.499 26.642C751.166 26.8277 750.903 27.0985 750.71 27.4545C750.516 27.8106 750.42 28.2424 750.42 28.75ZM762.097 34.1818C761.256 34.1818 760.531 33.9962 759.921 33.625C759.315 33.25 758.847 32.7273 758.518 32.0568C758.192 31.3826 758.029 30.5985 758.029 29.7045C758.029 28.8106 758.192 28.0227 758.518 27.3409C758.847 26.6553 759.306 26.1212 759.893 25.7386C760.484 25.3523 761.173 25.1591 761.961 25.1591C762.415 25.1591 762.864 25.2348 763.308 25.3864C763.751 25.5379 764.154 25.7841 764.518 26.125C764.881 26.4621 765.171 26.9091 765.387 27.4659C765.603 28.0227 765.711 28.7083 765.711 29.5227V30.0909H758.984V28.9318H764.347C764.347 28.4394 764.249 28 764.052 27.6136C763.859 27.2273 763.582 26.9223 763.222 26.6989C762.866 26.4754 762.446 26.3636 761.961 26.3636C761.427 26.3636 760.965 26.4962 760.575 26.7614C760.188 27.0227 759.891 27.3636 759.683 27.7841C759.474 28.2045 759.37 28.6553 759.37 29.1364V29.9091C759.37 30.5682 759.484 31.1269 759.711 31.5852C759.942 32.0398 760.262 32.3864 760.671 32.625C761.08 32.8598 761.556 32.9773 762.097 32.9773C762.45 32.9773 762.768 32.928 763.052 32.8295C763.34 32.7273 763.588 32.5758 763.796 32.375C764.004 32.1705 764.165 31.9167 764.279 31.6136L765.575 31.9773C765.438 32.4167 765.209 32.803 764.887 33.1364C764.565 33.4659 764.167 33.7235 763.694 33.9091C763.22 34.0909 762.688 34.1818 762.097 34.1818ZM768.728 34.0909C768.448 34.0909 768.207 33.9905 768.006 33.7898C767.806 33.589 767.705 33.3485 767.705 33.0682C767.705 32.7879 767.806 32.5473 768.006 32.3466C768.207 32.1458 768.448 32.0455 768.728 32.0455C769.008 32.0455 769.249 32.1458 769.45 32.3466C769.65 32.5473 769.751 32.7879 769.751 33.0682C769.751 33.2538 769.703 33.4242 769.609 33.5795C769.518 33.7348 769.395 33.8598 769.239 33.9545C769.088 34.0455 768.917 34.0909 768.728 34.0909ZM778.339 27.2273L777.134 27.5682C777.058 27.3674 776.947 27.1723 776.799 26.983C776.655 26.7898 776.458 26.6307 776.208 26.5057C775.958 26.3807 775.638 26.3182 775.248 26.3182C774.714 26.3182 774.269 26.4413 773.913 26.6875C773.56 26.9299 773.384 27.2386 773.384 27.6136C773.384 27.947 773.505 28.2102 773.748 28.4034C773.99 28.5966 774.369 28.7576 774.884 28.8864L776.18 29.2045C776.96 29.3939 777.541 29.6837 777.924 30.0739C778.307 30.4602 778.498 30.9583 778.498 31.5682C778.498 32.0682 778.354 32.5152 778.066 32.9091C777.782 33.303 777.384 33.6136 776.873 33.8409C776.362 34.0682 775.767 34.1818 775.089 34.1818C774.199 34.1818 773.462 33.9886 772.879 33.6023C772.295 33.2159 771.926 32.6515 771.771 31.9091L773.043 31.5909C773.165 32.0606 773.394 32.4129 773.731 32.6477C774.072 32.8826 774.517 33 775.066 33C775.691 33 776.187 32.8674 776.555 32.6023C776.926 32.3333 777.112 32.0114 777.112 31.6364C777.112 31.3333 777.005 31.0795 776.793 30.875C776.581 30.6667 776.255 30.5114 775.816 30.4091L774.362 30.0682C773.562 29.8788 772.975 29.5852 772.6 29.1875C772.229 28.786 772.043 28.2841 772.043 27.6818C772.043 27.1894 772.182 26.7538 772.458 26.375C772.738 25.9962 773.119 25.6989 773.6 25.483C774.085 25.267 774.634 25.1591 775.248 25.1591C776.112 25.1591 776.79 25.3485 777.282 25.7273C777.778 26.1061 778.13 26.6061 778.339 27.2273ZM781.857 28.75V34H780.516V22.3636H781.857V26.6364H781.971C782.175 26.1856 782.482 25.8277 782.891 25.5625C783.304 25.2936 783.853 25.1591 784.539 25.1591C785.134 25.1591 785.655 25.2784 786.102 25.517C786.549 25.7519 786.895 26.1136 787.141 26.6023C787.391 27.0871 787.516 27.7045 787.516 28.4545V34H786.175V28.5455C786.175 27.8523 785.996 27.3163 785.636 26.9375C785.28 26.5549 784.785 26.3636 784.153 26.3636C783.713 26.3636 783.319 26.4564 782.971 26.642C782.626 26.8277 782.353 27.0985 782.153 27.4545C781.956 27.8106 781.857 28.2424 781.857 28.75Z" fill="white"/>
<path d="M1049.05 29.0673C1049.05 31.804 1051.22 34 1053.92 34C1056.62 34 1058.79 31.804 1058.79 29.0673C1058.79 28.7998 1058.6 28.6048 1058.33 28.6048C1058.07 28.6048 1057.9 28.7998 1057.9 29.0673C1057.9 31.3079 1056.13 33.1026 1053.92 33.1026C1051.71 33.1026 1049.94 31.3079 1049.94 29.0673C1049.94 26.8323 1051.71 25.0432 1053.92 25.0432C1054.34 25.0432 1054.73 25.0766 1055.06 25.1547L1053.41 26.8045C1053.33 26.8936 1053.28 27.0051 1053.28 27.1222C1053.28 27.3785 1053.47 27.568 1053.72 27.568C1053.86 27.568 1053.96 27.5235 1054.04 27.4398L1056.31 25.1324C1056.41 25.0376 1056.45 24.9261 1056.45 24.798C1056.45 24.6753 1056.4 24.5527 1056.31 24.4635L1054.04 22.1338C1053.96 22.0446 1053.85 22 1053.72 22C1053.47 22 1053.28 22.2006 1053.28 22.457C1053.28 22.5741 1053.33 22.6856 1053.4 22.7747L1054.87 24.2406C1054.58 24.1849 1054.26 24.1458 1053.92 24.1458C1051.22 24.1458 1049.05 26.3363 1049.05 29.0673Z" fill="#B5B5B5"/>
<path d="M446.8 14.5H1061.2C1063.45 14.5 1065.1 14.5004 1066.41 14.6073C1067.72 14.7138 1068.63 14.9234 1069.4 15.3175C1070.82 16.0365 1071.96 17.1839 1072.68 18.5951C1073.08 19.3685 1073.29 20.2832 1073.39 21.5863C1073.5 22.8953 1073.5 24.5515 1073.5 26.8V29.2C1073.5 31.4485 1073.5 33.1047 1073.39 34.4137C1073.29 35.7168 1073.08 36.6315 1072.68 37.4049C1071.96 38.8161 1070.82 39.9635 1069.4 40.6825C1068.63 41.0766 1067.72 41.2862 1066.41 41.3927C1065.1 41.4996 1063.45 41.5 1061.2 41.5H446.8C444.552 41.5 442.895 41.4996 441.586 41.3927C440.283 41.2862 439.368 41.0766 438.595 40.6825C437.184 39.9635 436.037 38.8161 435.317 37.4049C434.923 36.6315 434.714 35.7168 434.607 34.4137C434.5 33.1047 434.5 31.4485 434.5 29.2V26.8C434.5 24.5515 434.5 22.8953 434.607 21.5863C434.714 20.2832 434.923 19.3685 435.317 18.5951C436.037 17.1839 437.184 16.0365 438.595 15.3175C439.368 14.9234 440.283 14.7138 441.586 14.6073C442.895 14.5004 444.552 14.5 446.8 14.5Z" stroke="#4D4D4D"/>
<path d="M1348.09 30.4493C1348.39 30.4493 1348.66 30.1941 1348.66 29.8963V22.6159L1348.61 21.5525L1349.09 22.0558L1350.17 23.2043C1350.26 23.3177 1350.41 23.3744 1350.55 23.3744C1350.84 23.3744 1351.07 23.1617 1351.07 22.8711C1351.07 22.7222 1351 22.6088 1350.9 22.5024L1348.5 20.1914C1348.36 20.0496 1348.24 20 1348.09 20C1347.95 20 1347.83 20.0496 1347.68 20.1914L1345.28 22.5024C1345.17 22.6088 1345.12 22.7222 1345.12 22.8711C1345.12 23.1617 1345.33 23.3744 1345.63 23.3744C1345.76 23.3744 1345.92 23.3177 1346.02 23.2043L1347.09 22.0558L1347.57 21.5525L1347.53 22.6159V29.8963C1347.53 30.1941 1347.78 30.4493 1348.09 30.4493ZM1344.03 36H1352.16C1353.64 36 1354.38 35.2627 1354.38 33.8024V26.7275C1354.38 25.2672 1353.64 24.5299 1352.16 24.5299H1350.18V25.6712H1352.14C1352.84 25.6712 1353.24 26.0541 1353.24 26.7913V33.7386C1353.24 34.4759 1352.84 34.8587 1352.14 34.8587H1344.04C1343.33 34.8587 1342.94 34.4759 1342.94 33.7386V26.7913C1342.94 26.0541 1343.33 25.6712 1344.04 25.6712H1346V24.5299H1344.03C1342.54 24.5299 1341.8 25.2672 1341.8 26.7275V33.8024C1341.8 35.2627 1342.54 36 1344.03 36Z" fill="#B5B5B5"/>
<path d="M1392 28C1392 28.4752 1392.4 28.863 1392.86 28.863H1399.14V35.137C1399.14 35.6024 1399.52 36 1400 36C1400.48 36 1400.87 35.6024 1400.87 35.137V28.863H1407.14C1407.6 28.863 1408 28.4752 1408 28C1408 27.5248 1407.6 27.1273 1407.14 27.1273H1400.87V20.863C1400.87 20.3976 1400.48 20 1400 20C1399.52 20 1399.14 20.3976 1399.14 20.863V27.1273H1392.86C1392.4 27.1273 1392 27.5248 1392 28Z" fill="#B5B5B5"/>
<g filter="url(#filter0_b_4755_1579)">
<rect y="56" width="1440" height="94.5" fill="url(#paint0_linear_4755_1579)"/>
</g>
<path d="M1057.47 104.148C1057.47 106.495 1058.09 108.271 1059.33 109.477C1060.57 110.684 1062.14 111.287 1064.04 111.287C1065.92 111.287 1067.35 110.835 1068.33 109.932C1069.32 109.029 1069.88 107.882 1070.03 106.491L1070.04 106.373H1068.2L1068.19 106.481C1068.09 107.417 1067.71 108.195 1067.05 108.815C1066.39 109.428 1065.39 109.734 1064.04 109.734C1062.65 109.734 1061.52 109.263 1060.65 108.32C1059.77 107.378 1059.33 105.987 1059.33 104.148V103.456C1059.33 101.59 1059.77 100.193 1060.64 99.2633C1061.51 98.3339 1062.64 97.8691 1064.04 97.8691C1065.34 97.8691 1066.34 98.1625 1067.03 98.7491C1067.73 99.3292 1068.12 100.12 1068.19 101.122L1068.2 101.231H1070.04L1070.03 101.112C1069.92 99.6555 1069.35 98.4921 1068.31 97.6219C1067.27 96.7518 1065.85 96.3168 1064.04 96.3168C1062.14 96.3168 1060.57 96.9265 1059.33 98.146C1058.09 99.3655 1057.47 101.135 1057.47 103.456V104.148ZM1070.93 102.18H1074.76V111H1076.53V102.18H1080.35V100.786H1070.93V102.18ZM1081.5 107.994C1081.5 109.022 1081.85 109.813 1082.55 110.367C1083.25 110.914 1084.19 111.188 1085.39 111.188C1086.39 111.188 1087.22 111.023 1087.86 110.693C1088.5 110.364 1088.96 109.982 1089.23 109.547C1089.26 109.823 1089.31 110.094 1089.39 110.357C1089.48 110.621 1089.57 110.835 1089.67 111H1091.38V110.842C1091.25 110.552 1091.15 110.219 1091.08 109.843C1091.01 109.461 1090.97 109.055 1090.97 108.627V103.99C1090.97 102.836 1090.6 101.966 1089.85 101.379C1089.11 100.793 1088.04 100.499 1086.65 100.499C1085.23 100.499 1084.13 100.779 1083.35 101.34C1082.56 101.9 1082.17 102.625 1082.17 103.515V103.614H1083.95V103.525C1083.95 103.044 1084.17 102.655 1084.6 102.358C1085.05 102.062 1085.71 101.913 1086.6 101.913C1087.53 101.913 1088.19 102.088 1088.59 102.437C1088.99 102.78 1089.19 103.291 1089.19 103.97V104.721H1086.31C1084.81 104.715 1083.63 104.998 1082.78 105.572C1081.92 106.145 1081.5 106.953 1081.5 107.994ZM1083.27 107.905C1083.27 107.292 1083.55 106.821 1084.1 106.491C1084.65 106.155 1085.46 105.987 1086.53 105.987H1089.19V107.411C1089.19 107.991 1088.84 108.531 1088.14 109.032C1087.45 109.533 1086.65 109.784 1085.77 109.784C1084.91 109.784 1084.27 109.626 1083.87 109.309C1083.47 108.986 1083.27 108.518 1083.27 107.905ZM1092.74 102.18H1096.57V111H1098.34V102.18H1102.16V100.786H1092.74V102.18ZM1102.94 115.103C1103.15 115.169 1103.36 115.219 1103.59 115.252C1103.82 115.285 1104.08 115.301 1104.37 115.301C1105.21 115.301 1105.91 115.047 1106.49 114.54C1107.07 114.032 1107.55 113.314 1107.94 112.384L1112.79 100.786H1111.05L1108.28 107.678C1108.18 107.941 1108.08 108.189 1108 108.419C1107.92 108.65 1107.85 108.877 1107.78 109.102H1107.72C1107.66 108.877 1107.59 108.65 1107.5 108.419C1107.43 108.189 1107.33 107.941 1107.22 107.678L1104.34 100.786H1102.54L1106.9 110.931V110.951C1106.43 112.19 1106.01 112.971 1105.64 113.294C1105.26 113.624 1104.8 113.788 1104.25 113.788C1104.04 113.788 1103.82 113.772 1103.59 113.739C1103.36 113.706 1103.14 113.663 1102.94 113.61V115.103ZM1113.58 106.036C1113.58 107.592 1114.05 108.858 1114.99 109.833C1115.93 110.802 1117.23 111.287 1118.88 111.287C1120.4 111.287 1121.56 110.924 1122.36 110.199C1123.15 109.467 1123.55 108.63 1123.55 107.688V107.628H1121.77V107.698C1121.77 108.317 1121.53 108.831 1121.08 109.24C1120.63 109.642 1119.89 109.843 1118.88 109.843C1117.69 109.843 1116.81 109.487 1116.24 108.775C1115.68 108.063 1115.39 107.154 1115.39 106.046V105.74C1115.39 104.626 1115.68 103.716 1116.24 103.011C1116.82 102.305 1117.7 101.953 1118.88 101.953C1119.88 101.953 1120.62 102.157 1121.07 102.566C1121.53 102.968 1121.76 103.475 1121.76 104.089V104.148H1123.55V104.079C1123.55 103.143 1123.15 102.312 1122.36 101.587C1121.56 100.862 1120.4 100.499 1118.88 100.499C1117.23 100.499 1115.93 100.987 1114.99 101.963C1114.05 102.932 1113.58 104.191 1113.58 105.74V106.036ZM1129.79 106.036C1129.79 107.592 1130.26 108.858 1131.21 109.833C1132.15 110.802 1133.44 111.287 1135.09 111.287C1136.61 111.287 1137.77 110.924 1138.57 110.199C1139.37 109.467 1139.77 108.63 1139.77 107.688V107.628H1137.99V107.698C1137.98 108.317 1137.75 108.831 1137.3 109.24C1136.84 109.642 1136.11 109.843 1135.09 109.843C1133.9 109.843 1133.03 109.487 1132.46 108.775C1131.89 108.063 1131.61 107.154 1131.61 106.046V105.74C1131.61 104.626 1131.89 103.716 1132.46 103.011C1133.03 102.305 1133.91 101.953 1135.09 101.953C1136.1 101.953 1136.83 102.157 1137.29 102.566C1137.74 102.968 1137.97 103.475 1137.98 104.089V104.148H1139.77V104.079C1139.77 103.143 1139.37 102.312 1138.57 101.587C1137.78 100.862 1136.62 100.499 1135.09 100.499C1133.44 100.499 1132.15 100.987 1131.21 101.963C1130.26 102.932 1129.79 104.191 1129.79 105.74V106.036ZM1141.08 106.036C1141.08 107.592 1141.56 108.858 1142.51 109.833C1143.46 110.802 1144.81 111.287 1146.57 111.287C1147.68 111.287 1148.62 111.079 1149.38 110.664C1150.14 110.249 1150.7 109.797 1151.06 109.309L1149.92 108.36C1149.59 108.755 1149.15 109.102 1148.59 109.398C1148.03 109.688 1147.36 109.833 1146.57 109.833C1145.3 109.833 1144.37 109.481 1143.76 108.775C1143.16 108.063 1142.85 107.154 1142.85 106.046V105.74C1142.85 104.632 1143.14 103.726 1143.72 103.021C1144.3 102.309 1145.17 101.953 1146.31 101.953C1147.39 101.953 1148.17 102.22 1148.65 102.754C1149.13 103.288 1149.38 103.967 1149.38 104.791V104.87H1142.13V106.284H1151.16V105.562C1151.16 104.006 1150.74 102.773 1149.89 101.864C1149.05 100.954 1147.85 100.499 1146.28 100.499C1144.72 100.499 1143.46 100.987 1142.51 101.963C1141.56 102.938 1141.08 104.197 1141.08 105.74V106.036ZM1153.25 115.133H1155.02V109.705C1155.37 110.14 1155.85 110.499 1156.46 110.782C1157.06 111.066 1157.79 111.208 1158.64 111.208C1160.1 111.208 1161.26 110.723 1162.13 109.754C1163.01 108.785 1163.45 107.546 1163.45 106.036V105.74C1163.45 104.237 1163.01 103.001 1162.14 102.032C1161.27 101.063 1160.11 100.578 1158.64 100.578C1157.79 100.578 1157.04 100.74 1156.4 101.063C1155.77 101.386 1155.29 101.768 1154.98 102.21H1154.95L1154.87 100.786H1153.25V115.133ZM1155.02 107.905V103.881C1155.27 103.4 1155.67 102.974 1156.22 102.605C1156.77 102.23 1157.44 102.042 1158.23 102.042C1159.41 102.042 1160.27 102.388 1160.81 103.08C1161.36 103.766 1161.63 104.652 1161.63 105.74V106.036C1161.63 107.131 1161.36 108.024 1160.81 108.716C1160.27 109.401 1159.41 109.744 1158.23 109.744C1157.44 109.744 1156.76 109.556 1156.21 109.181C1155.66 108.798 1155.26 108.373 1155.02 107.905ZM1165.77 111H1171.35C1172.5 111 1173.4 110.743 1174.05 110.229C1174.7 109.715 1175.03 108.996 1175.03 108.073C1175.03 107.434 1174.83 106.916 1174.42 106.521C1174.03 106.119 1173.51 105.862 1172.88 105.75V105.72C1173.43 105.568 1173.86 105.305 1174.18 104.929C1174.5 104.547 1174.66 104.072 1174.66 103.505C1174.66 102.595 1174.35 101.917 1173.72 101.468C1173.1 101.013 1172.22 100.786 1171.07 100.786H1165.77V111ZM1167.54 105.117V102.18H1171.07C1171.71 102.18 1172.16 102.302 1172.45 102.546C1172.73 102.79 1172.87 103.136 1172.87 103.584C1172.87 104.059 1172.73 104.435 1172.45 104.711C1172.17 104.982 1171.71 105.117 1171.07 105.117H1167.54ZM1167.54 109.606V106.501H1171.35C1172.01 106.501 1172.49 106.643 1172.79 106.926C1173.1 107.21 1173.25 107.582 1173.25 108.044C1173.25 108.518 1173.09 108.897 1172.78 109.181C1172.48 109.464 1172 109.606 1171.35 109.606H1167.54ZM1176.92 106.036C1176.92 107.592 1177.39 108.858 1178.34 109.833C1179.29 110.802 1180.64 111.287 1182.4 111.287C1183.52 111.287 1184.45 111.079 1185.21 110.664C1185.98 110.249 1186.54 109.797 1186.89 109.309L1185.76 108.36C1185.43 108.755 1184.98 109.102 1184.42 109.398C1183.87 109.688 1183.19 109.833 1182.4 109.833C1181.14 109.833 1180.2 109.481 1179.6 108.775C1178.99 108.063 1178.69 107.154 1178.69 106.046V105.74C1178.69 104.632 1178.98 103.726 1179.56 103.021C1180.14 102.309 1181 101.953 1182.15 101.953C1183.22 101.953 1184 102.22 1184.48 102.754C1184.97 103.288 1185.21 103.967 1185.21 104.791V104.87H1177.96V106.284H1186.99V105.562C1186.99 104.006 1186.57 102.773 1185.73 101.864C1184.88 100.954 1183.68 100.499 1182.12 100.499C1180.55 100.499 1179.3 100.987 1178.34 101.963C1177.39 102.938 1176.92 104.197 1176.92 105.74V106.036ZM1189.09 115.133H1190.86V109.705C1191.21 110.14 1191.68 110.499 1192.29 110.782C1192.9 111.066 1193.63 111.208 1194.48 111.208C1195.93 111.208 1197.1 110.723 1197.97 109.754C1198.84 108.785 1199.28 107.546 1199.28 106.036V105.74C1199.28 104.237 1198.85 103.001 1197.98 102.032C1197.11 101.063 1195.94 100.578 1194.48 100.578C1193.62 100.578 1192.87 100.74 1192.23 101.063C1191.6 101.386 1191.13 101.768 1190.82 102.21H1190.78L1190.7 100.786H1189.09V115.133ZM1190.86 107.905V103.881C1191.1 103.4 1191.5 102.974 1192.05 102.605C1192.61 102.23 1193.28 102.042 1194.06 102.042C1195.24 102.042 1196.1 102.388 1196.64 103.08C1197.19 103.766 1197.46 104.652 1197.46 105.74V106.036C1197.46 107.131 1197.19 108.024 1196.64 108.716C1196.1 109.401 1195.24 109.744 1194.06 109.744C1193.27 109.744 1192.6 109.556 1192.04 109.181C1191.49 108.798 1191.09 108.373 1190.86 107.905ZM1200.94 106.036C1200.94 107.585 1201.43 108.848 1202.42 109.823C1203.4 110.799 1204.71 111.287 1206.35 111.287C1207.99 111.287 1209.3 110.799 1210.28 109.823C1211.26 108.848 1211.75 107.585 1211.75 106.036V105.74C1211.75 104.197 1211.26 102.938 1210.28 101.963C1209.3 100.987 1207.99 100.499 1206.35 100.499C1204.71 100.499 1203.4 100.987 1202.42 101.963C1201.43 102.938 1200.94 104.197 1200.94 105.74V106.036ZM1202.76 105.74C1202.76 104.646 1203.06 103.742 1203.66 103.031C1204.27 102.312 1205.17 101.953 1206.35 101.953C1207.53 101.953 1208.42 102.312 1209.02 103.031C1209.63 103.742 1209.93 104.646 1209.93 105.74V106.046C1209.93 107.147 1209.63 108.053 1209.02 108.765C1208.42 109.477 1207.53 109.833 1206.35 109.833C1205.17 109.833 1204.27 109.477 1203.66 108.765C1203.06 108.053 1202.76 107.147 1202.76 106.046V105.74ZM1214.06 111H1219.64C1220.79 111 1221.69 110.743 1222.34 110.229C1222.99 109.715 1223.32 108.996 1223.32 108.073C1223.32 107.434 1223.12 106.916 1222.72 106.521C1222.32 106.119 1221.81 105.862 1221.17 105.75V105.72C1221.72 105.568 1222.15 105.305 1222.47 104.929C1222.79 104.547 1222.95 104.072 1222.95 103.505C1222.95 102.595 1222.64 101.917 1222.01 101.468C1221.39 101.013 1220.51 100.786 1219.36 100.786H1214.06V111ZM1215.83 105.117V102.18H1219.36C1220 102.18 1220.45 102.302 1220.74 102.546C1221.02 102.79 1221.16 103.136 1221.16 103.584C1221.16 104.059 1221.02 104.435 1220.74 104.711C1220.46 104.982 1220 105.117 1219.36 105.117H1215.83ZM1215.83 109.606V106.501H1219.64C1220.3 106.501 1220.78 106.643 1221.08 106.926C1221.39 107.21 1221.54 107.582 1221.54 108.044C1221.54 108.518 1221.38 108.897 1221.07 109.181C1220.77 109.464 1220.29 109.606 1219.64 109.606H1215.83Z" fill="white"/>
<path d="M887.984 104.148C887.984 106.495 888.604 108.271 889.843 109.477C891.082 110.684 892.651 111.287 894.549 111.287C896.428 111.287 897.859 110.835 898.841 109.932C899.829 109.029 900.396 107.882 900.541 106.491L900.551 106.373H898.712L898.702 106.481C898.603 107.417 898.224 108.195 897.565 108.815C896.906 109.428 895.901 109.734 894.549 109.734C893.165 109.734 892.035 109.263 891.158 108.32C890.281 107.378 889.843 105.987 889.843 104.148V103.456C889.843 101.59 890.278 100.193 891.148 99.2633C892.018 98.3339 893.152 97.8691 894.549 97.8691C895.855 97.8691 896.853 98.1625 897.545 98.7491C898.244 99.3292 898.63 100.12 898.702 101.122L898.712 101.231H900.551L900.541 101.112C900.436 99.6555 899.862 98.4921 898.821 97.6219C897.786 96.7518 896.362 96.3168 894.549 96.3168C892.651 96.3168 891.082 96.9265 889.843 98.146C888.604 99.3655 887.984 101.135 887.984 103.456V104.148ZM901.965 106.036C901.965 107.592 902.44 108.858 903.389 109.833C904.338 110.802 905.693 111.287 907.453 111.287C908.567 111.287 909.503 111.079 910.261 110.664C911.026 110.249 911.586 109.797 911.942 109.309L910.805 108.36C910.475 108.755 910.03 109.102 909.47 109.398C908.916 109.688 908.244 109.833 907.453 109.833C906.187 109.833 905.251 109.481 904.645 108.775C904.038 108.063 903.735 107.154 903.735 106.046V105.74C903.735 104.632 904.025 103.726 904.605 103.021C905.185 102.309 906.049 101.953 907.196 101.953C908.27 101.953 909.048 102.22 909.529 102.754C910.017 103.288 910.261 103.967 910.261 104.791V104.87H903.013V106.284H912.041V105.562C912.041 104.006 911.619 102.773 910.775 101.864C909.931 100.954 908.728 100.499 907.166 100.499C905.604 100.499 904.345 100.987 903.389 101.963C902.44 102.938 901.965 104.197 901.965 105.74V106.036ZM914.137 115.133H915.907V109.705C916.256 110.14 916.734 110.499 917.341 110.782C917.947 111.066 918.675 111.208 919.526 111.208C920.983 111.208 922.146 110.723 923.016 109.754C923.893 108.785 924.331 107.546 924.331 106.036V105.74C924.331 104.237 923.896 103.001 923.026 102.032C922.156 101.063 920.989 100.578 919.526 100.578C918.669 100.578 917.921 100.74 917.281 101.063C916.648 101.386 916.177 101.768 915.867 102.21H915.828L915.749 100.786H914.137V115.133ZM915.907 107.905V103.881C916.151 103.4 916.55 102.974 917.103 102.605C917.657 102.23 918.326 102.042 919.11 102.042C920.29 102.042 921.151 102.388 921.691 103.08C922.238 103.766 922.512 104.652 922.512 105.74V106.036C922.512 107.131 922.238 108.024 921.691 108.716C921.151 109.401 920.29 109.744 919.11 109.744C918.319 109.744 917.647 109.556 917.093 109.181C916.54 108.798 916.144 108.373 915.907 107.905ZM926.655 111H932.231C933.378 111 934.278 110.743 934.931 110.229C935.583 109.715 935.91 108.996 935.91 108.073C935.91 107.434 935.709 106.916 935.307 106.521C934.911 106.119 934.397 105.862 933.764 105.75V105.72C934.311 105.568 934.743 105.305 935.059 104.929C935.382 104.547 935.544 104.072 935.544 103.505C935.544 102.595 935.231 101.917 934.604 101.468C933.985 101.013 933.102 100.786 931.955 100.786H926.655V111ZM928.425 105.117V102.18H931.955C932.587 102.18 933.046 102.302 933.329 102.546C933.612 102.79 933.754 103.136 933.754 103.584C933.754 104.059 933.612 104.435 933.329 104.711C933.052 104.982 932.594 105.117 931.955 105.117H928.425ZM928.425 109.606V106.501H932.231C932.891 106.501 933.372 106.643 933.675 106.926C933.978 107.21 934.13 107.582 934.13 108.044C934.13 108.518 933.975 108.897 933.665 109.181C933.362 109.464 932.884 109.606 932.231 109.606H928.425ZM938.461 111H940.24L945.184 104.177C945.323 103.973 945.448 103.779 945.56 103.594C945.672 103.403 945.774 103.218 945.867 103.04H945.965C945.946 103.245 945.932 103.466 945.926 103.703C945.919 103.934 945.916 104.151 945.916 104.355V111H947.676V100.786H945.896L940.952 107.618C940.814 107.816 940.689 108.007 940.577 108.192C940.471 108.37 940.366 108.551 940.26 108.736H940.181C940.194 108.531 940.204 108.317 940.211 108.093C940.217 107.862 940.221 107.641 940.221 107.431V100.786H938.461V111ZM949.98 106.036C949.98 107.592 950.451 108.858 951.394 109.833C952.336 110.802 953.632 111.287 955.28 111.287C956.802 111.287 957.963 110.924 958.76 110.199C959.558 109.467 959.957 108.63 959.957 107.688V107.628H958.177V107.698C958.17 108.317 957.939 108.831 957.485 109.24C957.03 109.642 956.295 109.843 955.28 109.843C954.093 109.843 953.216 109.487 952.65 108.775C952.083 108.063 951.799 107.154 951.799 106.046V105.74C951.799 104.626 952.083 103.716 952.65 103.011C953.223 102.305 954.1 101.953 955.28 101.953C956.288 101.953 957.02 102.157 957.475 102.566C957.93 102.968 958.16 103.475 958.167 104.089V104.148H959.957V104.079C959.957 103.143 959.558 102.312 958.76 101.587C957.969 100.862 956.809 100.499 955.28 100.499C953.632 100.499 952.336 100.987 951.394 101.963C950.451 102.932 949.98 104.191 949.98 105.74V106.036ZM963.704 100.786H961.934V111H966.74C968.018 111 969.004 110.69 969.696 110.071C970.395 109.451 970.744 108.627 970.744 107.599C970.744 106.537 970.395 105.713 969.696 105.127C969.004 104.54 968.018 104.247 966.74 104.247H963.704V100.786ZM966.74 105.641C967.557 105.641 968.13 105.822 968.46 106.185C968.796 106.541 968.964 107.012 968.964 107.599C968.964 108.198 968.796 108.683 968.46 109.052C968.13 109.421 967.557 109.606 966.74 109.606H963.704V105.641H966.74ZM972.227 111H974.007V100.786H972.227V111Z" fill="white"/>
<path fill-rule="evenodd" clip-rule="evenodd" d="M985.683 103.539C985.965 103.201 986.472 103.153 986.814 103.43L992.813 108.296L998.811 103.43C999.153 103.153 999.66 103.201 999.942 103.539C1000.22 103.876 1000.17 104.375 999.832 104.653L993.571 109.732C993.13 110.089 992.495 110.089 992.054 109.732L985.793 104.653C985.45 104.375 985.401 103.876 985.683 103.539Z" fill="white" fill-opacity="0.6"/>
<path d="M718.336 111H720.165V105.364H723.546C725.24 105.364 726.536 104.969 727.432 104.177C728.329 103.38 728.777 102.312 728.777 100.974C728.777 99.616 728.329 98.5481 727.432 97.7703C726.536 96.9924 725.24 96.6035 723.546 96.6035H718.336V111ZM720.165 103.861V98.1064H723.546C724.799 98.1064 725.676 98.3734 726.177 98.9073C726.684 99.4347 726.938 100.124 726.938 100.974C726.938 101.811 726.684 102.503 726.177 103.05C725.676 103.591 724.799 103.861 723.546 103.861H720.165ZM730.102 106.036C730.102 107.592 730.577 108.858 731.526 109.833C732.475 110.802 733.83 111.287 735.59 111.287C736.704 111.287 737.64 111.079 738.398 110.664C739.162 110.249 739.723 109.797 740.079 109.309L738.942 108.36C738.612 108.755 738.167 109.102 737.607 109.398C737.053 109.688 736.381 109.833 735.59 109.833C734.324 109.833 733.388 109.481 732.781 108.775C732.175 108.063 731.872 107.154 731.872 106.046V105.74C731.872 104.632 732.162 103.726 732.742 103.021C733.322 102.309 734.186 101.953 735.333 101.953C736.407 101.953 737.185 102.22 737.666 102.754C738.154 103.288 738.398 103.967 738.398 104.791V104.87H731.15V106.284H740.177V105.562C740.177 104.006 739.756 102.773 738.912 101.864C738.068 100.954 736.865 100.499 735.303 100.499C733.741 100.499 732.482 100.987 731.526 101.963C730.577 102.938 730.102 104.197 730.102 105.74V106.036ZM742.274 111H756.502V100.786H754.722V109.606H750.273V100.786H748.493V109.606H744.044V100.786H742.274V111ZM758.796 106.036C758.796 107.592 759.271 108.858 760.22 109.833C761.169 110.802 762.524 111.287 764.284 111.287C765.398 111.287 766.334 111.079 767.092 110.664C767.856 110.249 768.417 109.797 768.773 109.309L767.636 108.36C767.306 108.755 766.861 109.102 766.301 109.398C765.747 109.688 765.075 109.833 764.284 109.833C763.018 109.833 762.082 109.481 761.476 108.775C760.869 108.063 760.566 107.154 760.566 106.046V105.74C760.566 104.632 760.856 103.726 761.436 103.021C762.016 102.309 762.88 101.953 764.027 101.953C765.101 101.953 765.879 102.22 766.36 102.754C766.848 103.288 767.092 103.967 767.092 104.791V104.87H759.844V106.284H768.872V105.562C768.872 104.006 768.45 102.773 767.606 101.864C766.762 100.954 765.559 100.499 763.997 100.499C762.435 100.499 761.176 100.987 760.22 101.963C759.271 102.938 758.796 104.197 758.796 105.74V106.036ZM770.968 100.786V111H772.738V106.491H778.225V111H780.005V100.786H778.225V105.087H772.738V100.786H770.968ZM782.971 111H784.751L789.695 104.177C789.833 103.973 789.959 103.779 790.071 103.594C790.183 103.403 790.285 103.218 790.377 103.04H790.476C790.456 103.245 790.443 103.466 790.437 103.703C790.43 103.934 790.427 104.151 790.427 104.355V111H792.187V100.786H790.407L785.463 107.618C785.325 107.816 785.199 108.007 785.087 108.192C784.982 108.37 784.876 108.551 784.771 108.736H784.692C784.705 108.531 784.715 108.317 784.722 108.093C784.728 107.862 784.731 107.641 784.731 107.431V100.786H782.971V111ZM796.458 111L799.603 106.758L797.813 106.6L794.491 111H796.458ZM801.936 111H803.716V100.786H798.812C797.52 100.786 796.531 101.083 795.845 101.676C795.16 102.263 794.817 103.044 794.817 104.019C794.817 104.975 795.16 105.736 795.845 106.303C796.531 106.864 797.52 107.144 798.812 107.144L799.069 107.253H801.936V111ZM798.812 105.858C797.988 105.858 797.411 105.69 797.081 105.354C796.758 105.011 796.597 104.566 796.597 104.019C796.597 103.492 796.761 103.054 797.091 102.704C797.421 102.355 797.994 102.18 798.812 102.18H801.936V105.858H798.812Z" fill="white"/>
<path fill-rule="evenodd" clip-rule="evenodd" d="M815.808 103.539C816.09 103.201 816.597 103.153 816.939 103.43L822.938 108.296L828.936 103.43C829.278 103.153 829.785 103.201 830.067 103.539C830.349 103.876 830.3 104.375 829.957 104.653L823.696 109.732C823.255 110.089 822.62 110.089 822.179 109.732L815.918 104.653C815.575 104.375 815.526 103.876 815.808 103.539Z" fill="white" fill-opacity="0.6"/>
<g filter="url(#filter1_d_4755_1579)">
<path d="M45 103.25C45 95.2028 45 91.1792 46.5022 88.0789C47.9711 85.0474 50.4167 82.5992 53.4451 81.1288C56.5422 79.625 60.5616 79.625 68.6004 79.625H183.231C191.27 79.625 195.289 79.625 198.386 81.1288C201.415 82.5992 203.86 85.0474 205.329 88.0789C206.831 91.1792 206.831 95.2028 206.831 103.25C206.831 111.297 206.831 115.321 205.329 118.421C203.86 121.453 201.415 123.901 198.386 125.371C195.289 126.875 191.27 126.875 183.231 126.875H68.6004C60.5616 126.875 56.5422 126.875 53.4451 125.371C50.4167 123.901 47.9711 121.453 46.5022 118.421C45 115.321 45 111.297 45 103.25Z" fill="url(#paint1_linear_4755_1579)"/>
<path d="M153.46 94.625H150.066V111.675H153.46V94.625Z" fill="black"/>
<path d="M165.252 94.6814H161.859V111.731H165.252V94.6814Z" fill="black"/>
<path d="M161.856 111.725L164.286 110.021L153.464 94.6366L151.033 96.3399L161.856 111.725Z" fill="black"/>
<path d="M146.673 94.7041H143.279V111.754H146.673V94.7041Z" fill="black"/>
<path d="M130.327 94.7249H126.934V111.775H130.327V94.7249Z" fill="black"/>
<path d="M139.886 111.775V108.811H126.934V111.775H139.886Z" fill="black"/>
<path d="M117.771 94.7559H114.378V111.806H117.771V94.7559Z" fill="black"/>
<path d="M108.609 94.7557V97.7197H123.54V94.7557H108.609Z" fill="black"/>
<path fill-rule="evenodd" clip-rule="evenodd" d="M97.1836 97.8383C94.1692 97.8383 91.7256 100.277 91.7256 103.286C91.7256 106.295 94.1692 108.734 97.1836 108.734C100.198 108.734 102.642 106.295 102.642 103.286C102.642 100.277 100.198 97.8383 97.1836 97.8383ZM88.6149 103.286C88.6149 98.5626 92.4512 94.7332 97.1836 94.7332C101.916 94.7332 105.752 98.5626 105.752 103.286C105.752 108.01 101.916 111.84 97.1836 111.84C92.4512 111.84 88.6149 108.01 88.6149 103.286Z" fill="black"/>
<path d="M73.1177 94.7686H69.7241V111.819H73.1177V94.7686Z" fill="black"/>
<path d="M85.2213 94.825H81.8278V111.875H85.2213V94.825Z" fill="black"/>
<path d="M81.8278 104.987V102.023H75.9173V104.987H81.8278Z" fill="black"/>
<path d="M172.039 94.6497H168.646V111.7H172.039V94.6497Z" fill="black"/>
<path d="M182.107 111.7V108.736H168.674V111.7H182.107Z" fill="black"/>
<path d="M182.079 97.6136V94.6497H168.646V97.6136H182.079Z" fill="black"/>
<path d="M177.95 104.614V101.65H172.04V104.614H177.95Z" fill="black"/>
</g>
<g filter="url(#filter2_b_4755_1579)">
<rect x="1282.5" y="85.25" width="112.5" height="37.125" rx="13.5" fill="#1A1A1A"/>
<path d="M1310.09 111H1315.59C1317.1 111 1318.32 110.651 1319.23 109.952C1320.15 109.247 1320.62 108.222 1320.62 106.877C1320.62 105.934 1320.37 105.179 1319.87 104.613C1319.38 104.039 1318.75 103.65 1317.99 103.446V103.406C1318.61 103.202 1319.13 102.849 1319.55 102.348C1319.98 101.841 1320.19 101.188 1320.19 100.391C1320.19 99.0524 1319.75 98.0867 1318.88 97.4934C1318 96.9001 1316.8 96.6035 1315.28 96.6035H1310.09V111ZM1311.89 109.497V104.247H1315.59C1316.69 104.247 1317.49 104.481 1318.02 104.949C1318.54 105.417 1318.8 106.056 1318.8 106.867C1318.8 107.711 1318.54 108.36 1318.02 108.815C1317.49 109.27 1316.69 109.497 1315.59 109.497H1311.89ZM1311.89 102.764V98.1064H1315.28C1316.37 98.1064 1317.16 98.2976 1317.64 98.6799C1318.13 99.0557 1318.37 99.6292 1318.37 100.4C1318.37 101.145 1318.13 101.725 1317.64 102.141C1317.16 102.556 1316.37 102.764 1315.28 102.764H1311.89ZM1322.43 106.036C1322.43 107.585 1322.92 108.848 1323.9 109.823C1324.88 110.799 1326.19 111.287 1327.83 111.287C1329.48 111.287 1330.78 110.799 1331.76 109.823C1332.74 108.848 1333.23 107.585 1333.23 106.036V105.74C1333.23 104.197 1332.74 102.938 1331.76 101.963C1330.78 100.987 1329.48 100.499 1327.83 100.499C1326.19 100.499 1324.88 100.987 1323.9 101.963C1322.92 102.938 1322.43 104.197 1322.43 105.74V106.036ZM1324.24 105.74C1324.24 104.646 1324.54 103.742 1325.14 103.031C1325.75 102.312 1326.65 101.953 1327.83 101.953C1329.01 101.953 1329.9 102.312 1330.5 103.031C1331.11 103.742 1331.41 104.646 1331.41 105.74V106.046C1331.41 107.147 1331.11 108.053 1330.5 108.765C1329.9 109.477 1329.01 109.833 1327.83 109.833C1326.65 109.833 1325.75 109.477 1325.14 108.765C1324.54 108.053 1324.24 107.147 1324.24 106.046V105.74ZM1335.55 111H1337.33L1342.27 104.177C1342.41 103.973 1342.53 103.779 1342.65 103.594C1342.76 103.403 1342.86 103.218 1342.95 103.04H1343.05C1343.03 103.245 1343.02 103.466 1343.01 103.703C1343.01 103.934 1343 104.151 1343 104.355V111H1344.76V100.786H1342.98L1338.04 107.618C1337.9 107.816 1337.77 108.007 1337.66 108.192C1337.56 108.37 1337.45 108.551 1337.35 108.736H1337.27C1337.28 108.531 1337.29 108.317 1337.3 108.093C1337.3 107.862 1337.31 107.641 1337.31 107.431V100.786H1335.55V111ZM1340.14 97.8098C1339.68 97.8098 1339.3 97.6813 1339 97.4242C1338.7 97.1605 1338.44 96.7255 1338.22 96.119L1336.83 96.9397C1337.16 97.7175 1337.61 98.2844 1338.18 98.6404C1338.74 98.9963 1339.4 99.1743 1340.14 99.1743C1340.89 99.1743 1341.55 98.9963 1342.12 98.6404C1342.7 98.2778 1343.14 97.7109 1343.47 96.9397L1342.08 96.1289C1341.86 96.7222 1341.59 97.1506 1341.29 97.4143C1340.99 97.678 1340.61 97.8098 1340.14 97.8098ZM1346.54 102.18H1350.37V111H1352.14V102.18H1355.96V100.786H1346.54V102.18ZM1357.75 111H1359.53L1364.48 104.177C1364.62 103.973 1364.74 103.779 1364.85 103.594C1364.97 103.403 1365.07 103.218 1365.16 103.04H1365.26C1365.24 103.245 1365.23 103.466 1365.22 103.703C1365.21 103.934 1365.21 104.151 1365.21 104.355V111H1366.97V100.786H1365.19L1360.25 107.618C1360.11 107.816 1359.98 108.007 1359.87 108.192C1359.76 108.37 1359.66 108.551 1359.55 108.736H1359.47C1359.49 108.531 1359.5 108.317 1359.5 108.093C1359.51 107.862 1359.51 107.641 1359.51 107.431V100.786H1357.75V111Z" fill="white"/>
</g>
<rect x="0.5" y="0.5" width="1439" height="899" rx="17.5" stroke="#353535"/>
<defs>
<filter id="filter0_b_4755_1579" x="-45" y="11" width="1530" height="184.5" filterUnits="userSpaceOnUse" color-interpolation-filters="sRGB">
<feFlood flood-opacity="0" result="BackgroundImageFix"/>
<feGaussianBlur in="BackgroundImageFix" stdDeviation="22.5"/>
<feComposite in2="SourceAlpha" operator="in" result="effect1_backgroundBlur_4755_1579"/>
<feBlend mode="normal" in="SourceGraphic" in2="effect1_backgroundBlur_4755_1579" result="shape"/>
</filter>
<filter id="filter1_d_4755_1579" x="3.8147e-06" y="34.625" width="251.831" height="137.25" filterUnits="userSpaceOnUse" color-interpolation-filters="sRGB">
<feFlood flood-opacity="0" result="BackgroundImageFix"/>
<feColorMatrix in="SourceAlpha" type="matrix" values="0 0 0 0 0 0 0 0 0 0 0 0 0 0 0 0 0 0 127 0" result="hardAlpha"/>
<feOffset/>
<feGaussianBlur stdDeviation="22.5"/>
<feComposite in2="hardAlpha" operator="out"/>
<feColorMatrix type="matrix" values="0 0 0 0 0.823529 0 0 0 0 1 0 0 0 0 0.12549 0 0 0 0.6 0"/>
<feBlend mode="normal" in2="BackgroundImageFix" result="effect1_dropShadow_4755_1579"/>
<feBlend mode="normal" in="SourceGraphic" in2="effect1_dropShadow_4755_1579" result="shape"/>
</filter>
<filter id="filter2_b_4755_1579" x="1269.93" y="72.6765" width="137.647" height="62.2721" filterUnits="userSpaceOnUse" color-interpolation-filters="sRGB">
<feFlood flood-opacity="0" result="BackgroundImageFix"/>
<feGaussianBlur in="BackgroundImageFix" stdDeviation="6.28676"/>
<feComposite in2="SourceAlpha" operator="in" result="effect1_backgroundBlur_4755_1579"/>
<feBlend mode="normal" in="SourceGraphic" in2="effect1_backgroundBlur_4755_1579" result="shape"/>
</filter>
<linearGradient id="paint0_linear_4755_1579" x1="720" y1="56" x2="720" y2="150.5" gradientUnits="userSpaceOnUse">
<stop/>
<stop offset="0.414294" stop-opacity="0.812468"/>
<stop offset="0.685144" stop-opacity="0.57232"/>
<stop offset="0.81536" stop-opacity="0.326156"/>
<stop offset="1" stop-opacity="0"/>
</linearGradient>
<linearGradient id="paint1_linear_4755_1579" x1="206.831" y1="126.875" x2="180.522" y2="40.5075" gradientUnits="userSpaceOnUse">
<stop stop-color="#81FF1F"/>
<stop offset="0.567708" stop-color="#E4FF20"/>
<stop offset="0.975139" stop-color="#FBFF20"/>
</linearGradient>
</defs>
</svg>
