<svg width="1025" height="156" viewBox="0 0 1025 156" fill="none" xmlns="http://www.w3.org/2000/svg">
<path d="M763.72 0H732.769V154.191H763.72V0Z" fill="black"/>
<path d="M871.276 0.510376H840.325V154.702H871.276V0.510376Z" fill="black"/>
<path d="M840.297 154.64L862.461 139.237L763.752 0.103707L741.588 15.5074L840.297 154.64Z" fill="black"/>
<path d="M701.817 0.716064H670.866V154.907H701.817V0.716064Z" fill="black"/>
<path d="M552.738 0.90332H521.785V155.095H552.738V0.90332Z" fill="black"/>
<path d="M639.915 155.094V128.29H521.783V155.094H639.915Z" fill="black"/>
<path d="M438.216 1.18384H407.265V155.375H438.216V1.18384Z" fill="black"/>
<path d="M354.649 1.18386V27.9886L490.835 27.9886V1.18386L354.649 1.18386Z" fill="black"/>
<path fill-rule="evenodd" clip-rule="evenodd" d="M250.5 29.9538C223.237 29.9538 201.135 51.9126 201.135 79C201.135 106.088 223.237 128.046 250.5 128.046C277.764 128.046 299.865 106.088 299.865 79C299.865 51.9125 277.764 29.9538 250.5 29.9538ZM173 79C173 36.4742 207.698 2 250.5 2C293.303 2 328 36.4743 328 79C328 121.526 293.303 156 250.5 156C207.698 156 173 121.526 173 79Z" fill="black"/>
<path d="M30.9512 1.2981H0V155.489H30.9512V1.2981Z" fill="black"/>
<path d="M141.345 1.80847H110.394V156H141.345V1.80847Z" fill="black"/>
<path d="M110.394 93.7109V66.9062H56.4869V93.7109H110.394Z" fill="black"/>
<path d="M933.178 0.223511H902.227V154.415H933.178V0.223511Z" fill="black"/>
<path d="M1025 154.415V127.611L902.485 127.611V154.415H1025Z" fill="black"/>
<path d="M1024.74 27.0283V0.223511L902.227 0.223511V27.0283L1024.74 27.0283Z" fill="black"/>
<path d="M987.086 90.3391V63.5343H933.179V90.3391H987.086Z" fill="black"/>
</svg>
