<svg width="154" height="44" viewBox="0 0 154 44" fill="none" xmlns="http://www.w3.org/2000/svg">
<rect width="154" height="44" rx="22" fill="#92FF00"/>
<path d="M27.7255 31.88C28.1055 31.88 28.7655 31.38 28.7655 31.04C28.7655 30.9 28.7055 30.78 28.5655 30.58L26.6655 28.02C25.8855 26.98 25.0055 25.94 24.7255 24.58C24.4855 23.52 24.3055 22.42 24.1255 21.34C24.0655 21.04 24.0255 20.76 23.9655 20.46C23.9655 20.24 24.1455 20.32 23.9055 20.38C24.9055 20.12 25.8055 18.92 25.8055 17.88L25.7455 17.76C25.7455 17.76 25.7455 17.74 25.7055 17.7C25.6255 17.58 25.5255 17.46 25.4255 17.36C24.6655 16.74 23.7855 16.1 22.9655 15.46C22.3255 15 22.0455 14.78 21.6855 14.5C21.5055 14.36 21.2055 14.24 20.9855 14.24C20.2455 14.24 19.6655 15.28 19.5055 16.66C19.3455 17.86 19.0455 19.02 18.7255 20.2C18.5855 20.72 18.4255 21.28 18.3055 21.78C18.3055 21.98 18.3655 22.16 18.5255 22.48C18.6255 22.66 18.6455 22.7 18.6455 22.8C18.6855 23 18.7455 23.34 18.8055 23.72C19.2455 26.52 19.5255 29.12 20.1655 29.12C20.6255 29.12 21.1655 28.56 21.1655 28.14C21.1655 28.02 21.1055 27.92 20.9855 27.7C20.8855 27.48 20.8255 27.34 20.8055 27.16C20.7255 26.82 20.6655 26.44 20.5855 26.06C20.3655 24.98 20.1655 23.92 19.9855 22.82C19.9855 22.48 20.5255 22.14 21.9855 21.5C22.1055 21.44 22.2655 21.38 22.3855 21.32C22.4455 21.42 22.5655 21.8 22.7055 22.84C22.9855 25.1 23.6255 26.74 24.7455 28.14C25.0255 28.48 25.4855 29.16 25.9255 29.8C26.7255 30.98 27.2855 31.88 27.7255 31.88ZM19.8855 21.02C19.8655 21.02 19.8255 21 19.7055 20.96C19.6455 20.94 19.6055 20.94 19.5255 20.9L19.7255 21.16C19.9055 20.6 20.0655 20.16 20.2255 19.7C20.5655 18.72 20.8655 17.82 21.0655 16.82C21.1655 16.2 21.2455 16.28 21.0455 16.28C21.1255 16.28 23.9455 18.08 23.9455 18.78C23.9455 18.86 23.6055 19.08 23.4855 19.08C22.9855 19.08 22.8255 19.2 22.3855 19.64C21.6055 20.42 20.4855 21.02 19.8855 21.02ZM30.8182 29.5H30.8582C32.2982 29.5 33.4582 24.98 33.4582 23.96C33.4582 23.76 33.4382 23.54 33.3982 23.36C33.3782 23.16 33.3582 22.98 33.3582 22.8C33.3582 22.78 33.6982 22.72 34.1582 22.72C34.5382 22.72 34.8182 22.72 35.0582 22.74C35.2582 22.74 35.4582 22.74 35.6782 22.74C35.9582 22.74 37.4182 24.56 38.2382 26.04C38.3182 26.2 38.4382 26.5 38.5582 26.76C38.8582 27.52 39.2382 28.48 40.1182 28.48C40.4782 28.48 40.8582 28.08 40.8582 27.7C40.8582 27.68 40.8382 27.62 40.8182 27.56L40.8382 27.62L40.8182 27.54C40.6782 27.24 40.5182 26.86 40.3782 26.52C39.9582 25.52 39.5582 24.52 38.6182 23.68C38.3182 23.44 38.0782 23.06 38.0782 22.82C38.0782 22.7 38.0982 22.58 38.1582 22.36C38.2182 22.1 38.2382 21.98 38.2382 21.86C38.2382 21.58 37.8382 21.36 37.4182 21.36L37.2182 21.38C36.9782 21.38 36.9582 21.36 36.7982 21.04C36.6582 20.74 36.5382 20.56 36.2982 20.34C35.0582 19.12 34.5982 17.48 34.1382 15.8C34.0182 15.34 33.9582 15.14 33.8782 14.88C33.7982 14.58 33.5182 14.24 33.1982 14.24C32.8982 14.24 32.4582 14.48 32.3382 14.72C31.5582 16.36 30.7382 18.14 30.7382 19.96C30.7382 20.54 30.8382 21.08 31.0782 21.66C31.0982 21.68 31.1182 21.74 31.1582 21.84C31.2982 22.2 31.3382 22.38 31.3382 22.58C31.3382 22.72 31.2982 22.9 31.2382 23.1C30.7782 24.28 30.5182 25.48 30.2582 26.7C30.1382 27.2 30.0182 27.74 29.8982 28.22L30.0382 28.44C30.0582 28.44 30.0982 28.46 30.1382 28.48C30.0782 28.44 30.0382 28.36 30.0382 28.46C30.0382 28.48 30.0382 28.52 30.0382 28.56C30.0182 28.64 30.0182 28.68 30.0182 28.72C30.0182 29.14 30.3382 29.44 30.8182 29.5ZM33.1782 21.38C32.5382 21.38 32.4582 21.3 32.4582 19.74C32.4582 18.92 32.6382 18.14 32.8182 17.34C32.8782 17.08 32.9382 16.8 32.9982 16.56C32.9982 16.54 33.0182 16.52 33.0382 16.48H32.5582C32.6582 16.62 32.7382 16.92 32.8982 17.54C32.9982 17.98 33.0382 18.16 33.1382 18.4C33.4982 19.3 34.0782 20.1 34.6182 20.86C34.7582 21.06 34.8382 21.14 34.9182 21.28C34.8982 21.36 34.8182 21.38 34.3582 21.38C33.7582 21.38 34.2182 21.94 34.2182 21.56L33.9182 21.36C33.7582 21.36 33.6182 21.36 33.4982 21.38C33.3782 21.38 33.2782 21.38 33.1782 21.38ZM46.012 29.46C46.092 29.46 46.232 29.44 46.392 29.4C46.552 29.36 46.712 29.32 46.872 29.32C47.972 29.32 49.052 29.3 50.152 29.28C51.232 29.28 52.332 29.26 53.412 29.26C53.792 29.26 54.192 29.26 54.572 29.26C54.972 29.28 55.352 29.28 55.752 29.28C56.732 29.28 57.572 28.68 57.572 27.94C57.572 27.64 57.132 27.56 56.732 27.56C55.792 27.56 54.992 27.6 54.212 27.66C53.432 27.7 52.652 27.74 51.752 27.74C51.592 27.74 51.392 27.72 51.212 27.7C51.072 27.7 50.932 27.68 50.832 27.68C50.292 27.68 49.772 27.68 49.232 27.7C48.712 27.7 48.172 27.72 47.632 27.72C47.432 27.72 47.552 27.76 47.552 27.74C47.552 27.68 47.572 27.6 47.612 27.54C48.252 26.08 48.912 24.68 49.452 23.26C50.192 21.32 51.132 19.96 52.332 19.04C52.552 18.88 52.672 18.78 53.012 18.54C53.752 18.04 54.552 17.5 54.992 16.64C55.032 16.58 55.032 16.58 55.052 16.54C55.232 16.26 55.292 16.12 55.292 16C55.292 15.72 54.972 15.56 54.532 15.52C54.672 15.52 54.652 15.58 54.592 15.4C54.472 15.1 54.312 14.94 54.012 14.94C53.892 14.94 53.712 14.98 53.552 15.04C53.492 15.06 53.472 15.06 53.432 15.06C53.212 15.16 53.052 15.2 52.692 15.34C51.592 15.74 50.552 16.12 49.432 16.12C48.352 16.12 47.252 15.86 46.152 15.6C45.052 15.32 43.932 15.06 42.772 15.06C41.892 15.06 41.232 15.58 41.232 16.26C41.232 16.74 41.832 17.3 42.312 16.86C42.552 16.74 42.812 16.68 43.132 16.68C43.572 16.68 44.032 16.8 44.512 16.94C44.772 17.02 44.892 17.06 45.052 17.1C46.452 17.44 47.852 17.76 49.292 17.76C50.152 17.76 51.012 17.64 51.792 17.38C51.832 17.38 51.892 17.4 51.952 17.42C52.012 17.42 52.052 17.42 52.112 17.44L51.892 17.16C51.852 17.22 51.832 17.24 51.812 17.3C51.752 17.46 51.752 17.5 51.772 17.44C51.492 17.8 51.272 18.06 50.772 18.66C50.092 19.46 49.392 20.3 48.892 21.16C48.132 22.46 47.552 23.78 46.972 25.14C46.772 25.6 46.572 26.08 46.372 26.5C46.292 26.68 46.252 26.76 46.112 27.04C45.792 27.66 45.432 28.38 45.432 28.96C45.432 29.28 45.652 29.46 46.012 29.46ZM62.3443 30.42C62.5243 30.42 62.7443 30.34 62.9043 30.22C63.1043 30.08 63.2243 30 63.5243 29.8C64.1643 29.38 64.8643 28.92 65.4043 28.4C66.6643 27.26 67.1443 25.86 67.1443 23.46C67.1443 22.9 67.1243 22.36 67.1043 21.8C66.9843 18.16 64.4643 14.62 61.9243 14.62C60.9643 14.62 59.9243 15.02 58.6243 15.9C58.2843 16.12 58.2243 16.36 58.1643 16.92C58.1443 17 58.1443 17.08 58.1243 17.14L58.5243 17.36C58.8443 17.26 59.0843 17.18 59.3843 17.12L59.0043 16.92C59.0043 17.06 59.0043 17.08 59.0243 17.04L59.0443 17.02C58.2643 17.8 57.9843 18.62 57.7643 20.68L57.7843 20.76C57.8443 21.04 57.9443 21.4 58.0243 21.76C58.2043 22.6 58.4243 23.52 58.8043 24.44C59.3043 25.6 59.9443 26.78 60.5643 27.92C60.9243 28.58 61.2643 29.2 61.6243 29.88C61.7643 30.24 62.0043 30.42 62.3443 30.42ZM63.0843 28.5C63.1643 28.5 63.0843 28.52 63.0243 28.4C62.8243 28 62.5643 27.54 62.3243 27.1C61.6843 25.92 61.0643 24.8 60.5243 23.54C60.1843 22.72 59.9643 21.8 59.7443 20.88C59.6243 20.44 59.5243 20.02 59.4043 19.58C59.6243 18.26 59.9843 17.62 60.7243 17.24C60.9443 17.12 61.0643 16.96 61.2443 16.66C61.5243 16.2 61.5443 16.24 61.4843 16.24L61.3843 16.22C61.3843 16.24 61.4043 16.24 61.4243 16.24C61.5643 16.3 61.7843 16.38 61.9643 16.44C62.6643 16.68 62.8843 16.82 63.1243 17.08C64.6443 18.82 65.4243 20.88 65.4243 23.16C65.4243 24.28 65.2443 25.46 64.8843 26.7C64.6443 27.48 64.1443 27.96 63.0043 28.5C62.9643 28.5 62.9243 28.52 62.8843 28.54L63.0843 28.5ZM73.862 28.74C74.602 28.68 75.422 28.46 76.382 28.02C78.162 27.24 79.082 25.38 79.082 22.68C79.082 21.76 78.822 21.3 78.062 21.3C77.622 21.3 77.302 21.7 77.302 22.18C77.302 22.36 77.322 22.54 77.342 22.72C77.342 22.88 77.362 23.02 77.362 23.18C77.362 25.04 76.322 27.12 73.862 27.12C70.762 27.12 69.702 26.24 69.702 23.66C69.702 21.5 70.702 19.76 71.782 17.88C72.042 17.42 72.482 17.24 73.202 17.24C73.722 17.24 74.122 17.4 74.562 17.74C74.702 17.86 74.922 18.02 75.122 18.16C75.962 18.78 76.682 19.3 76.682 20.4C76.682 20.64 76.642 20.86 76.602 21.04C76.582 21.3 77.102 21.74 77.402 21.74C78.022 21.74 78.182 21.2 78.182 20.36C78.182 19.48 78.002 18.94 77.522 18.44C76.422 17.3 74.862 15.88 73.102 15.88C72.142 15.88 70.602 16.04 70.382 17.36C70.282 18.04 69.902 18.58 69.462 19.2C69.122 19.7 68.722 20.26 68.522 20.82C68.182 21.74 68.022 22.64 68.022 23.58C68.022 24 68.042 24.36 68.102 24.72C68.122 24.84 68.142 25.02 68.142 25.18C68.202 26.12 68.362 26.52 68.902 26.94C70.482 28.24 72.202 28.86 73.862 28.74ZM94.1774 30.24C94.8174 30.24 95.0974 30.06 95.3774 29.42L95.3974 29.34C95.3974 29.06 94.6974 28.7 94.3974 28.7C94.3374 28.7 94.2774 28.7 94.2174 28.72C94.1774 28.72 94.1374 28.72 94.0974 28.72C93.8774 28.72 93.7774 28.48 93.6574 27.5C93.5374 26.46 93.3974 26 93.0374 25.58C93.0174 25.56 92.9374 23.74 92.9374 21.58C92.9374 20.58 92.9974 19.82 93.1374 19.22V19.18C93.1374 18.58 92.9774 18 92.8374 17.44C92.7574 17.14 92.7174 17 92.6774 16.82C92.6174 16.56 92.1774 16.44 91.7774 16.44C90.9774 16.44 89.9974 16.92 89.6974 17.48C89.5574 17.72 89.4574 17.88 89.2174 18.28C88.8374 18.9 88.4174 19.56 88.1174 20.18C87.8174 20.8 87.6374 21.4 87.4574 22.02C87.3974 22.24 87.3174 22.46 87.2774 22.64C87.2374 22.76 87.2174 22.84 87.1574 23.06C86.9974 23.72 86.8774 24.04 86.8174 24.1L87.2374 24.16C87.1974 24.1 87.0974 23.94 87.0174 23.84C86.8374 23.58 86.7774 23.46 86.7774 23.34C86.7774 23.32 86.7774 23.28 86.7774 23.2C86.7974 23.12 86.7974 23.08 86.7974 23.02C86.7974 22.6 86.5974 22.2 86.3974 21.84C86.2374 21.5 86.0774 21.2 86.0374 20.8C85.9574 20.12 85.8774 19.42 85.7974 18.72C85.6174 17.28 85.4574 15.86 85.3174 14.42C85.2374 13.72 84.6574 13.68 84.1974 13.68C83.8374 13.68 83.1774 13.68 83.1174 14.44C83.0974 14.82 82.9774 15.14 82.8374 15.5C82.7974 15.64 82.7374 15.8 82.6974 15.92C82.4974 16.52 82.4974 17.08 82.4974 17.64C82.4774 18.16 82.4774 18.68 82.3374 19.14C81.8574 20.62 81.7974 21.36 81.7374 22.2C81.6774 22.88 81.6174 23.62 81.3374 24.82C81.3174 24.9 81.3174 24.92 81.1974 25.04C80.9974 25.24 80.9174 25.34 80.8974 25.44C80.6574 26.16 80.4774 26.82 80.2774 27.52C80.1774 27.9 80.0574 28.32 79.9574 28.7C79.9374 28.76 79.9374 28.76 79.9174 28.8C79.8174 29.02 79.7974 29.1 79.7974 29.2C79.7974 29.54 80.2174 29.76 80.6774 29.76C81.0974 29.76 81.3774 29.52 81.4974 29.1C81.5574 28.94 81.5774 28.82 81.6774 28.46C82.2774 26.2 82.4774 25.96 82.2974 26C82.8974 25.72 83.0774 25.38 83.1174 24.56C83.1174 24.42 83.1374 24.26 83.1574 24.16C83.4574 22.44 83.5774 21.48 83.7374 20.42C83.8374 19.6 83.9774 18.72 84.1774 17.44C84.1974 17.3 84.1974 17.2 84.2174 17.02C84.2374 16.84 84.2374 16.66 84.2974 16.48H83.7174L83.7574 16.66C83.9374 19 84.2374 21.46 85.0174 23.76C85.0774 23.94 85.1574 24.16 85.2174 24.34C85.4374 24.96 85.6374 25.5 85.6374 26.06C85.6374 26.24 85.6374 26.3 85.6174 26.34C85.6174 26.48 85.5974 26.58 85.5974 26.7C85.5774 26.82 85.5774 26.88 85.5774 26.96C85.5774 27.42 86.0974 28.02 86.5574 28.02C87.2374 28.02 87.6174 27.4 88.0174 25.96C88.1174 25.64 88.1774 25.42 88.3374 24.88C88.5974 23.96 88.8574 23.02 89.0974 22.12C89.4774 20.58 90.3174 19.38 91.2374 18.1C91.3574 17.92 91.3774 17.94 91.3374 17.94C91.0174 17.94 91.2974 17.46 91.2974 19.08C91.2974 19.7 91.2574 20.38 91.2174 21.1C91.1574 21.88 91.1174 22.72 91.1174 23.52C91.1174 24.72 91.2174 25.6 91.4374 26.38C91.5174 26.74 91.6174 27.14 91.6774 27.48C92.0374 29.06 92.2974 30.24 94.1774 30.24ZM98.9365 29.6L98.9765 29.56C99.0165 29.48 99.0165 29.46 99.0765 29.36C99.2165 29.06 99.2565 28.92 99.2765 28.78C99.2765 28.66 99.2965 28.58 99.2965 28.42C99.2965 28.1 99.3165 27.94 99.3765 27.86C99.4765 27.72 99.5565 27.54 99.5565 27.4C99.5565 27.28 99.5165 27.22 99.4165 27.14C99.3965 27.12 99.3565 27.02 99.3365 26.8C99.2565 26.36 99.0565 26.16 98.5965 26.16C98.0765 26.16 97.6765 26.38 97.6765 26.76C97.6765 26.78 97.7365 26.76 97.6565 26.82C97.4765 26.92 97.3765 27 97.3765 27.16C97.3765 27.24 97.3965 27.32 97.4165 27.48C97.4565 27.6 97.4565 27.66 97.4565 27.72C97.4565 27.8 97.4565 27.88 97.4165 28.04C97.3965 28.24 97.3765 28.34 97.3765 28.44C97.3765 29.24 97.6565 29.84 98.2965 29.84C98.5565 29.84 98.8165 29.74 98.9365 29.6ZM103.773 29.44C104.053 29.44 104.333 29.3 104.493 29.08L104.473 28.82L104.453 28.8V29.08C104.613 28.92 104.693 28.76 104.693 28.58C104.693 28.4 104.633 28.28 104.513 28.16C104.513 28.1 104.493 28.04 104.493 27.96C104.473 27.86 104.473 27.8 104.473 27.74C104.473 27.7 104.473 27.68 104.493 27.64C104.513 27.52 104.513 27.48 104.513 27.42C104.513 27.04 104.453 26.66 104.393 26.28C104.413 26.24 104.433 26.22 104.453 26.18C104.573 25.94 104.673 25.74 104.813 25.66C105.133 25.44 105.373 25.16 105.453 24.82C105.553 24.5 105.633 24.24 105.813 23.68C105.913 23.38 106.013 23.06 106.093 22.76C106.273 22.8 106.433 22.82 106.613 22.84C107.053 22.88 107.553 23.06 108.073 23.22C108.333 23.3 108.513 23.36 108.653 23.4C108.833 23.9 108.953 24.88 109.073 25.9C109.333 28.1 109.513 28.86 109.893 29.22C109.973 29.32 110.213 29.38 110.413 29.38C110.853 29.38 111.233 29.1 111.233 28.74C111.233 28.32 111.013 27.46 110.813 27.12C110.713 26.62 110.673 26.1 110.613 25.56C110.573 24.9 110.513 24.24 110.333 23.58C110.573 23.46 110.773 23.24 110.773 23.02C110.773 22.6 110.333 22.42 110.013 22.34C109.793 21.44 109.533 20.72 109.173 20.04C109.093 19.9 109.053 19.74 108.993 19.52C108.813 18.74 108.273 17.22 107.973 16.4C107.953 16.34 107.933 16.26 107.873 16.12C107.773 15.82 107.733 15.66 107.733 15.5C107.793 15.38 107.833 15.26 107.833 15.16C107.833 14.7 107.313 14.38 106.773 14.46L107.133 14.66V14.6C107.133 14.56 107.133 14.52 107.153 14.44C107.193 14.32 107.193 14.28 107.193 14.2C107.193 13.78 106.853 13.46 106.413 13.46C105.853 13.46 105.553 13.84 105.553 14.46C105.553 14.9 105.693 15.26 106.033 15.64C106.073 15.68 106.133 15.8 106.213 16.08C106.233 16.14 106.253 16.18 106.273 16.26C106.673 17.28 107.073 18.52 107.433 19.82C107.533 20.24 107.733 20.7 107.933 21.12C108.153 21.64 108.253 21.88 108.353 22.2L108.713 21.94C108.613 21.92 108.473 21.86 108.333 21.82C107.913 21.7 107.513 21.56 107.033 21.5C106.853 21.48 106.673 21.44 106.473 21.38C106.633 20.68 106.793 20 106.913 19.34C106.953 19.12 106.993 18.96 107.073 18.74C107.173 18.46 107.293 18.12 107.293 17.82C107.293 17.36 107.013 17.02 106.573 17.02C106.333 17.02 106.073 17.14 105.993 17.34C105.533 18.24 105.113 20.14 104.933 21.16L105.333 21.02C105.273 21 105.153 20.94 105.053 20.9C104.813 20.8 104.533 20.68 104.233 20.68C103.833 20.68 103.493 20.96 103.493 21.32C103.493 21.82 104.173 22.12 104.613 22.3C104.413 23.02 104.193 23.7 103.953 24.4L103.973 24.38C103.933 24.38 103.893 24.4 103.853 24.42L104.293 24.6C104.293 24.04 103.973 23.62 103.453 23.62C103.053 23.62 102.713 23.92 102.713 24.28C102.713 24.56 102.753 24.86 102.773 25.12C102.813 25.38 102.833 25.64 102.833 25.9C102.793 26 102.773 26.1 102.773 26.18C102.773 26.3 102.813 26.42 102.913 26.58C102.933 26.64 102.933 26.64 102.933 26.68C102.933 26.78 102.933 26.86 102.913 26.96C102.893 27.12 102.893 27.2 102.893 27.3C102.893 27.9 102.953 29.9 103.513 28.64L102.993 28.82C103.053 29.18 103.393 29.44 103.773 29.44ZM124.843 25.24C123.763 23.98 121.283 22.18 119.243 21.16C119.163 21.12 119.023 21.08 118.863 21.02C119.003 20.86 119.283 20.52 119.803 19.92C121.163 18.42 121.663 17.78 121.663 17.52C121.663 16.84 120.223 16.44 118.283 16.44C117.343 16.44 115.963 16.48 115.043 16.94C114.543 17.18 113.803 18.06 113.803 18.4C113.803 18.7 114.163 19.14 114.483 19.14C114.763 19.14 114.983 19.02 115.183 18.78C115.303 18.64 115.303 18.7 115.143 18.7C115.123 18.7 115.663 20.24 115.663 20.32C115.663 20.96 115.823 21.26 116.343 21.56C116.363 21.56 116.843 23.1 117.343 25.02C117.503 25.7 117.583 25.98 117.643 26.18C117.523 26.3 117.403 26.46 117.383 26.58C117.323 27.02 117.863 27.5 118.343 27.46C119.003 27.42 119.323 26.9 119.323 26.1C119.323 25.56 118.463 22.88 118.263 22.36L118.283 22.42C118.283 22.4 118.263 22.4 118.263 22.38C118.443 22.46 118.643 22.54 118.823 22.62C119.703 22.98 120.063 23.14 120.503 23.42C120.683 23.52 121.103 23.86 122.083 24.74C123.343 25.86 124.103 26.54 124.523 26.54C124.863 26.54 125.183 26.28 125.183 25.96C125.183 25.76 125.043 25.48 124.843 25.24ZM117.403 20.04C117.283 20.04 117.163 19.94 117.063 19.7C117.023 19.62 116.923 19.44 116.843 19.3C116.503 18.6 116.363 18.28 116.363 18.14C116.363 18.06 116.623 18.02 117.543 18C117.803 17.98 118.083 17.98 118.283 17.96C118.363 17.96 118.443 17.96 118.543 17.96C118.643 17.94 118.783 17.94 118.903 17.94C119.183 17.94 119.303 17.96 119.323 18C117.863 19.78 117.583 20.04 117.403 20.04ZM133.575 28.3C134.035 28.26 134.335 27.78 134.335 27.26C134.335 27.2 134.335 27.16 134.315 27.08C134.315 27 134.315 26.96 134.315 26.94C134.275 26.4 134.235 25.88 134.195 25.34C134.115 24.16 134.035 22.96 133.875 21.78C133.775 21.04 133.575 20.28 133.375 19.54C133.235 19.08 133.115 18.66 133.015 18.16C133.015 18.14 133.015 18.12 133.015 18.08C133.015 17.78 133.335 17.66 134.535 17.44C135.395 17.3 136.495 17.12 136.495 16.48C136.495 16.04 136.095 15.78 135.495 15.78C134.875 15.78 134.195 15.96 133.575 16.14C133.295 16.2 133.015 16.28 132.775 16.34C132.595 16.32 132.375 16.1 132.115 15.84C131.735 15.46 131.475 15.28 131.135 15.28C131.055 15.28 130.915 15.3 130.775 15.34C130.695 15.36 130.595 15.38 130.555 15.38L130.315 15.66C130.315 15.68 130.335 15.72 130.375 15.78C130.475 16.08 130.635 16.34 130.795 16.46C130.835 16.5 130.895 16.54 130.935 16.58C131.115 16.72 131.135 16.76 131.135 16.78C131.135 16.86 130.315 17.04 129.615 17.04C129.115 17.04 128.575 16.9 127.995 16.74C127.535 16.6 127.335 16.56 127.055 16.5C126.695 16.48 126.275 16.72 126.275 17.04C126.275 17.96 129.135 18.4 130.455 18.4C130.615 18.4 130.755 18.38 130.975 18.34C131.135 18.3 131.255 18.28 131.335 18.28C131.435 18.28 131.495 18.38 131.535 18.94C131.555 19.14 131.555 19.24 131.575 19.36C132.255 21.44 132.595 23.68 132.595 26.22C132.595 26.32 132.595 26.42 132.575 26.54C132.575 26.68 132.555 26.82 132.555 26.98C132.555 27.9 132.835 28.38 133.575 28.3Z" fill="#201F1E"/>
</svg>
