<svg width="154" height="44" viewBox="0 0 154 44" fill="none" xmlns="http://www.w3.org/2000/svg">
<rect width="154" height="44" rx="22" fill="#92FF00"/>
<path d="M22.4899 25.0156C22.4039 24.8294 22.3323 24.679 22.275 24.5645C22.2321 24.4499 22.2106 24.3138 22.2106 24.1562C22.2106 24.0273 22.2249 23.9128 22.2536 23.8125C22.2965 23.6979 22.318 23.5762 22.318 23.4473C22.318 23.1322 22.3037 22.8385 22.275 22.5664C22.2607 22.2943 22.2392 21.9935 22.2106 21.6641C22.1963 21.6211 22.1461 21.5853 22.0602 21.5566C21.9743 21.528 21.8812 21.4922 21.7809 21.4492C21.6806 21.3919 21.5875 21.3132 21.5016 21.2129C21.43 21.1126 21.3942 20.9694 21.3942 20.7832C21.3942 20.6113 21.43 20.4681 21.5016 20.3535C21.5875 20.2246 21.6735 20.11 21.7594 20.0098C21.8454 19.8952 21.9241 19.7806 21.9957 19.666C22.0817 19.5371 22.1246 19.3867 22.1246 19.2148C22.1246 19.1432 22.1175 19.0143 22.1032 18.8281C22.0888 18.6276 22.0745 18.4199 22.0602 18.2051C22.0602 17.9902 22.053 17.7897 22.0387 17.6035C22.0387 17.403 22.0387 17.2669 22.0387 17.1953V17.1523V17.1094C22.096 16.9805 22.139 16.873 22.1676 16.7871C22.2106 16.7012 22.2536 16.6367 22.2965 16.5938C22.3395 16.5508 22.3968 16.5221 22.4684 16.5078C22.54 16.4792 22.6331 16.4648 22.7477 16.4648C23.0485 16.4648 23.2705 16.5221 23.4137 16.6367C23.5569 16.7513 23.6572 16.8874 23.7145 17.0449C23.7718 17.1882 23.8076 17.3242 23.8219 17.4531C23.8362 17.582 23.872 17.6536 23.9293 17.668L25.4762 16.3145H25.5621C26.0635 15.985 26.5934 15.7344 27.152 15.5625C27.7106 15.3763 28.2978 15.2832 28.9137 15.2832C29.0999 15.2832 29.3219 15.3047 29.5797 15.3477C29.8519 15.3906 30.1025 15.4694 30.3317 15.584C30.5752 15.6842 30.7757 15.8203 30.9332 15.9922C31.1051 16.1641 31.1911 16.3789 31.1911 16.6367C31.1911 16.9232 31.1552 17.2168 31.0836 17.5176C31.012 17.8184 30.9118 18.1191 30.7829 18.4199C30.6683 18.7064 30.525 18.9857 30.3532 19.2578C30.1956 19.5156 30.0237 19.7376 29.8375 19.9238C29.7659 20.0814 29.3076 20.4824 28.4625 21.127C27.6175 21.7715 26.3571 22.7311 24.6813 24.0059L34.9938 24.6504C35.137 24.6647 35.3304 24.679 35.5739 24.6934C35.8317 24.6934 36.0752 24.7148 36.3043 24.7578C36.5478 24.8008 36.7555 24.8867 36.9274 25.0156C37.0993 25.1302 37.1852 25.3092 37.1852 25.5527C37.1852 25.6816 37.1637 25.7891 37.1207 25.875C37.0921 25.9466 37.0491 26.0111 36.9918 26.0684C36.9489 26.1113 36.8916 26.1543 36.82 26.1973C36.7627 26.2402 36.7054 26.2975 36.6481 26.3691H36.2829H35.9176C35.6312 26.3405 35.3304 26.3047 35.0153 26.2617C34.7145 26.2188 34.3564 26.1686 33.9411 26.1113C33.54 26.054 33.0674 25.9967 32.5231 25.9395C31.9788 25.8822 31.3271 25.832 30.568 25.7891C29.8089 25.7461 28.9209 25.7103 27.9039 25.6816C26.9013 25.653 25.734 25.6387 24.402 25.6387C24.3877 25.6387 24.3662 25.6602 24.3375 25.7031C24.3232 25.7461 24.3161 25.7819 24.3161 25.8105C24.3161 26.3548 24.359 26.8919 24.445 27.4219C24.5452 27.9375 24.5954 28.4531 24.5954 28.9688C24.5954 29.069 24.581 29.1836 24.5524 29.3125C24.5381 29.4271 24.5023 29.5417 24.445 29.6562C24.3877 29.7565 24.3161 29.8424 24.2301 29.9141C24.1442 29.9857 24.0368 30.0215 23.9079 30.0215C23.8219 30.0215 23.7217 30.0072 23.6071 29.9785C23.4925 29.9355 23.3779 29.8783 23.2633 29.8066C23.1631 29.735 23.07 29.6562 22.984 29.5703C22.8981 29.4844 22.848 29.3841 22.8336 29.2695L22.4899 25.0156ZM23.9293 20.2676C23.9293 20.6257 23.9365 20.9622 23.9508 21.2773C23.9651 21.5924 23.9866 21.9362 24.0153 22.3086H24.0797C24.0941 22.3086 24.1299 22.2943 24.1871 22.2656C24.2444 22.237 24.3877 22.151 24.6168 22.0078C24.846 21.8503 25.1969 21.6139 25.6696 21.2988C26.1422 20.9694 26.8082 20.5111 27.6676 19.9238C27.8395 19.8236 28.0257 19.6517 28.2262 19.4082C28.4267 19.1647 28.6129 18.8997 28.7848 18.6133C28.9567 18.3268 29.0999 18.0475 29.2145 17.7754C29.3291 17.4889 29.3864 17.2526 29.3864 17.0664C29.3864 16.9232 29.3148 16.8516 29.1715 16.8516C29.0426 16.8516 28.928 16.8516 28.8278 16.8516C28.6129 16.8516 28.3694 16.8874 28.0973 16.959C27.8252 17.0306 27.4957 17.1738 27.109 17.3887C26.7366 17.6035 26.2855 17.9115 25.7555 18.3125C25.2399 18.7135 24.6312 19.2507 23.9293 19.9238V20.2676ZM42.8571 24.0059C42.7282 24.235 42.5778 24.5143 42.4059 24.8438C42.2483 25.1589 42.0765 25.5026 41.8903 25.875C41.7041 26.2331 41.4964 26.5983 41.2672 26.9707C41.0524 27.3288 40.8232 27.6582 40.5797 27.959C40.3506 28.2598 40.1071 28.5176 39.8493 28.7324C39.5914 28.9329 39.3265 29.0547 39.0543 29.0977C38.9398 29.0977 38.8108 29.0905 38.6676 29.0762C38.5244 29.0475 38.3812 29.0117 38.2379 28.9688C38.0947 28.9115 37.973 28.8398 37.8727 28.7539C37.7868 28.6536 37.7438 28.5247 37.7438 28.3672C37.7581 26.9062 37.8655 25.5814 38.0661 24.3926C38.2666 23.1895 38.5817 22.1367 39.0114 21.2344C39.4411 20.3177 39.9925 19.5586 40.6657 18.957C41.3388 18.3555 42.1552 17.9258 43.1149 17.668C43.1435 17.668 43.1937 17.668 43.2653 17.668C43.3512 17.6536 43.4085 17.6465 43.4371 17.6465C43.8668 17.6322 44.1748 17.8327 44.361 18.248C44.5615 18.6491 44.7047 19.2936 44.7907 20.1816C44.8909 21.0553 44.9554 22.1868 44.984 23.5762C45.027 24.9512 45.1058 26.6055 45.2204 28.5391C45.2633 28.6966 45.2848 28.8327 45.2848 28.9473C45.2991 29.0618 45.3063 29.1979 45.3063 29.3555C45.3063 29.5703 45.2418 29.735 45.1129 29.8496C44.984 29.9499 44.8193 30 44.6188 30C44.2034 30 43.9098 29.8854 43.7379 29.6562C43.5661 29.4271 43.4515 29.1191 43.3942 28.7324C43.3942 28.7181 43.3799 28.6035 43.3512 28.3887C43.3369 28.1738 43.3082 27.9303 43.2653 27.6582C43.2366 27.3717 43.208 27.0853 43.1793 26.7988C43.1507 26.5124 43.1292 26.276 43.1149 26.0898V26.0039C43.0862 25.8607 43.0648 25.6816 43.0504 25.4668C43.0504 25.252 43.0361 25.0443 43.0075 24.8438C42.9788 24.6003 42.9573 24.3568 42.943 24.1133L42.8571 24.0059ZM42.3844 19.752C41.9977 20.0384 41.6181 20.4251 41.2457 20.9121C40.8733 21.3991 40.6084 21.8717 40.4508 22.3301C40.3792 22.5449 40.3004 22.8385 40.2145 23.2109C40.1286 23.5833 40.0498 23.9557 39.9782 24.3281C39.9209 24.6862 39.8707 25.0228 39.8278 25.3379C39.7848 25.6387 39.7633 25.832 39.7633 25.918C39.7776 25.918 39.792 25.9036 39.8063 25.875C39.8349 25.8464 39.8564 25.8249 39.8707 25.8105C40.7588 24.9512 41.3818 24.0273 41.7399 23.0391C42.1123 22.0365 42.3271 20.9408 42.3844 19.752ZM48.6149 29.1406C48.6149 29.112 48.6149 29.069 48.6149 29.0117C48.6292 28.9544 48.6435 28.9186 48.6579 28.9043L51.7301 23.082C51.7731 22.9818 51.8232 22.8457 51.8805 22.6738C51.9521 22.4876 52.0166 22.3086 52.0739 22.1367C52.1312 21.9505 52.1813 21.7858 52.2243 21.6426C52.2672 21.4993 52.2887 21.4134 52.2887 21.3848V21.1484C51.8161 21.1484 51.3004 21.263 50.7418 21.4922C50.1832 21.707 49.6318 21.8932 49.0875 22.0508C48.5433 22.2083 48.0348 22.2513 47.5621 22.1797C47.0895 22.0938 46.7028 21.75 46.402 21.1484C46.402 20.9766 46.5023 20.8405 46.7028 20.7402C46.9033 20.6257 47.068 20.5684 47.1969 20.5684C47.2256 20.5684 47.3115 20.5827 47.4547 20.6113C47.6123 20.64 47.7054 20.6543 47.734 20.6543C48.1494 20.6113 48.5648 20.5254 48.9801 20.3965C49.3955 20.2676 49.8037 20.1387 50.2047 20.0098C50.6201 19.8809 51.0283 19.7734 51.4293 19.6875C51.8447 19.5872 52.2529 19.5514 52.6539 19.5801C52.8258 19.5801 53.012 19.5872 53.2125 19.6016C53.4274 19.6016 53.6207 19.6302 53.7926 19.6875C53.9788 19.7305 54.1364 19.8164 54.2653 19.9453C54.3942 20.0742 54.4586 20.2533 54.4586 20.4824C54.4586 20.6829 54.4228 20.8906 54.3512 21.1055C54.2939 21.3203 54.208 21.5065 54.0934 21.6641L51.5582 27.5508V27.7441L53.1051 27.0137H53.1911L60.195 24.8223H60.5387C60.6533 24.8223 60.7822 24.8366 60.9254 24.8652C61.083 24.8796 61.2262 24.9154 61.3551 24.9727C61.484 25.0156 61.5914 25.0872 61.6774 25.1875C61.7633 25.2878 61.8063 25.4167 61.8063 25.5742C61.8349 25.7604 61.7204 25.9251 61.4625 26.0684C61.2047 26.2116 60.8395 26.3548 60.3668 26.498C59.8942 26.627 59.3284 26.7702 58.6696 26.9277C58.025 27.071 57.3232 27.2572 56.5641 27.4863C55.805 27.7012 55.0029 27.9661 54.1579 28.2812C53.3271 28.5964 52.4892 28.9831 51.6442 29.4414C51.6012 29.4271 51.4938 29.4486 51.3219 29.5059C51.15 29.5632 50.9567 29.6348 50.7418 29.7207C50.5413 29.7923 50.3408 29.8639 50.1403 29.9355C49.9541 29.9928 49.818 30.0215 49.7321 30.0215C49.5029 30.0215 49.2594 29.9427 49.0016 29.7852C48.7438 29.6133 48.6149 29.3984 48.6149 29.1406ZM62.7965 25.1055C62.7965 24.0117 62.8603 22.918 62.9879 21.8242C63.1155 20.7122 63.2431 19.6276 63.3707 18.5703C63.3707 18.4245 63.4072 18.3151 63.4801 18.2422C63.553 18.1693 63.626 18.0872 63.6989 17.9961C63.6989 17.9779 63.7171 17.9414 63.7536 17.8867C63.79 17.832 63.8082 17.7956 63.8082 17.7773C64.0817 17.1211 64.5283 16.5742 65.1481 16.1367C65.7679 15.681 66.4332 15.4531 67.1442 15.4531C67.5452 15.4531 67.8825 15.5078 68.1559 15.6172C68.4293 15.7083 68.6663 15.8542 68.8668 16.0547C69.0674 16.237 69.2496 16.4648 69.4137 16.7383C69.5778 16.9935 69.7601 17.2852 69.9606 17.6133C70.1064 17.9414 70.2249 18.3151 70.3161 18.7344C70.4072 19.1536 70.471 19.582 70.5075 20.0195C70.5621 20.457 70.5986 20.8945 70.6168 21.332C70.6351 21.7513 70.6442 22.1432 70.6442 22.5078C70.6077 23.1094 70.5348 23.7474 70.4254 24.4219C70.3343 25.0781 70.1793 25.7253 69.9606 26.3633C69.7418 26.9831 69.4411 27.5573 69.0582 28.0859C68.6937 28.6146 68.2197 29.0521 67.6364 29.3984C67.3994 29.5443 67.1351 29.681 66.8434 29.8086C66.57 29.9362 66.2965 30 66.0231 30C65.3851 30 64.8564 29.8451 64.4371 29.5352C64.0361 29.207 63.708 28.7969 63.4528 28.3047C63.2158 27.8125 63.0426 27.2839 62.9332 26.7188C62.8421 26.1354 62.7965 25.5977 62.7965 25.1055ZM64.8473 26.1992C64.8655 26.3268 64.8929 26.4909 64.9293 26.6914C64.984 26.8919 65.0478 27.0924 65.1207 27.293C65.2119 27.4935 65.3213 27.6667 65.4489 27.8125C65.5765 27.9583 65.7405 28.0312 65.9411 28.0312C66.0869 28.0312 66.2236 27.9948 66.3512 27.9219C66.497 27.849 66.6155 27.776 66.7067 27.7031C67.1806 27.3385 67.5543 26.901 67.8278 26.3906C68.1194 25.8802 68.3382 25.3424 68.484 24.7773C68.6299 24.194 68.721 23.6107 68.7575 23.0273C68.7939 22.4258 68.8121 21.8516 68.8121 21.3047C68.8121 21.2318 68.8121 21.1133 68.8121 20.9492C68.8121 20.7852 68.803 20.6211 68.7848 20.457C68.7848 20.2747 68.7848 20.1016 68.7848 19.9375C68.7848 19.7734 68.7848 19.6641 68.7848 19.6094C68.7666 19.4089 68.721 19.1445 68.6481 18.8164C68.5752 18.4701 68.4749 18.1419 68.3473 17.832C68.2197 17.5039 68.0465 17.2214 67.8278 16.9844C67.6273 16.7474 67.3812 16.6289 67.0895 16.6289C66.9254 16.6289 66.734 16.6836 66.5153 16.793C66.2965 16.8841 66.0869 17.0026 65.8864 17.1484C65.7041 17.2943 65.54 17.4674 65.3942 17.668C65.2666 17.8503 65.2028 18.0326 65.2028 18.2148C65.2028 18.3607 65.2392 18.4792 65.3121 18.5703C65.4033 18.6615 65.4489 18.7982 65.4489 18.9805V19.2812C65.4306 19.3359 65.3942 19.5 65.3395 19.7734C65.303 20.0286 65.2575 20.3021 65.2028 20.5938C65.1481 20.8854 65.0934 21.168 65.0387 21.4414C65.0023 21.6966 64.9749 21.8516 64.9567 21.9062C64.8838 22.362 64.8382 22.8268 64.82 23.3008C64.82 23.7747 64.82 24.2305 64.82 24.668C64.82 24.7227 64.82 24.8229 64.82 24.9688C64.82 25.1146 64.82 25.2695 64.82 25.4336C64.8382 25.5977 64.8473 25.7526 64.8473 25.8984C64.8473 26.0443 64.8473 26.1445 64.8473 26.1992ZM73.2857 26.1973C73.3001 26.1113 73.3001 25.8822 73.2857 25.5098C73.2714 25.1374 73.2643 24.679 73.2643 24.1348C73.2786 23.5762 73.2929 22.9674 73.3072 22.3086C73.3359 21.6497 73.386 20.9837 73.4576 20.3105C73.5436 19.6374 73.6581 18.9928 73.8014 18.377C73.9589 17.7467 74.1594 17.2025 74.4029 16.7441C74.4889 16.3574 74.6966 16.0924 75.026 15.9492C75.3554 15.7917 75.8209 15.6986 76.4225 15.6699C76.8092 15.6699 77.1386 15.7702 77.4107 15.9707C77.6829 16.1712 77.912 16.4219 78.0982 16.7227C78.2988 17.0091 78.4706 17.3242 78.6139 17.668C78.7571 18.0117 78.886 18.3197 79.0006 18.5918V18.6992C79.1008 18.9857 79.1725 19.4154 79.2154 19.9883C79.2727 20.5469 79.3085 21.1413 79.3229 21.7715C79.3515 22.3874 79.3658 22.9818 79.3658 23.5547C79.3658 24.1276 79.3658 24.5645 79.3658 24.8652C79.3658 25.2949 79.3085 25.8105 79.1939 26.4121C79.0794 26.9993 78.8932 27.5579 78.6354 28.0879C78.3919 28.6178 78.0696 29.069 77.6686 29.4414C77.2675 29.8138 76.7877 30 76.2291 30C75.7564 30 75.3339 29.8783 74.9615 29.6348C74.6035 29.3913 74.2955 29.0833 74.0377 28.7109C73.7942 28.3242 73.608 27.9089 73.4791 27.4648C73.3502 27.0208 73.2857 26.5983 73.2857 26.1973ZM75.3697 27.6367C75.3984 27.7943 75.4771 27.959 75.6061 28.1309C75.7493 28.2884 75.914 28.3672 76.1002 28.3672H76.2721C76.8736 27.8229 77.2675 27.1999 77.4537 26.498C77.6399 25.7819 77.733 25.0299 77.733 24.2422C77.733 24.056 77.7258 23.7695 77.7115 23.3828C77.6972 22.9961 77.6686 22.5664 77.6256 22.0938C77.5969 21.6068 77.554 21.0983 77.4967 20.5684C77.4394 20.0384 77.3678 19.5443 77.2818 19.0859C77.1959 18.6133 77.0956 18.2051 76.9811 17.8613C76.8665 17.5176 76.7304 17.2812 76.5729 17.1523C76.5585 17.1667 76.537 17.1953 76.5084 17.2383C76.4941 17.2812 76.4869 17.3099 76.4869 17.3242C76.1861 17.6966 75.914 18.2051 75.6705 18.8496C75.427 19.4941 75.2408 20.2604 75.1119 21.1484C74.9973 22.0221 74.9472 23.0104 74.9615 24.1133C74.9902 25.2018 75.1262 26.3763 75.3697 27.6367ZM81.6234 29.3555C81.5948 27.7656 81.5518 26.1829 81.4945 24.6074C81.4515 23.0176 81.43 21.4277 81.43 19.8379C81.43 19.7233 81.43 19.5228 81.43 19.2363C81.43 18.9355 81.43 18.6204 81.43 18.291C81.4444 17.9616 81.4515 17.6536 81.4515 17.3672C81.4515 17.0807 81.4515 16.8802 81.4515 16.7656C81.5088 16.5365 81.5948 16.3574 81.7093 16.2285C81.8239 16.0853 82.003 16.0137 82.2464 16.0137C82.4899 16.0137 82.7048 16.0924 82.891 16.25C83.0772 16.3932 83.2276 16.5651 83.3421 16.7656L86.4359 22.7383C86.4502 22.7669 86.5004 22.8529 86.5863 22.9961C86.6722 23.1393 86.7367 23.2396 86.7796 23.2969C86.794 23.3112 86.8155 23.3255 86.8441 23.3398C86.8727 23.3542 86.8871 23.3685 86.8871 23.3828L86.973 23.1895L88.7992 16.7656C88.9281 16.5651 89.0212 16.3431 89.0785 16.0996C89.1501 15.8418 89.2217 15.5911 89.2933 15.3477C89.3793 15.1042 89.4795 14.875 89.5941 14.6602C89.723 14.4453 89.9092 14.2663 90.1527 14.123H90.3246C90.7113 14.123 90.9977 14.2376 91.1839 14.4668C91.3701 14.6816 91.499 14.9538 91.5707 15.2832C91.6423 15.5983 91.6709 15.9349 91.6566 16.293C91.6566 16.6367 91.6638 16.9375 91.6781 17.1953C91.6781 17.2956 91.6852 17.4889 91.6996 17.7754C91.7282 18.0618 91.7569 18.3984 91.7855 18.7852C91.8142 19.1719 91.8428 19.5872 91.8714 20.0312C91.9001 20.4609 91.9216 20.8691 91.9359 21.2559C91.9645 21.6426 91.986 21.9792 92.0004 22.2656C92.029 22.5521 92.0433 22.7383 92.0433 22.8242V22.9102C92.0576 23.0391 92.0863 23.2539 92.1293 23.5547C92.1722 23.8555 92.2152 24.1777 92.2582 24.5215C92.3155 24.8509 92.3656 25.166 92.4086 25.4668C92.4515 25.7676 92.4873 25.9753 92.516 26.0898C92.5303 26.1615 92.5518 26.2689 92.5804 26.4121C92.6234 26.5553 92.6664 26.7129 92.7093 26.8848C92.7666 27.0423 92.8168 27.1927 92.8597 27.3359C92.9027 27.4792 92.9385 27.5794 92.9671 27.6367C92.9099 27.9661 92.8239 28.224 92.7093 28.4102C92.6091 28.582 92.3799 28.668 92.0218 28.668C91.9789 28.668 91.9144 28.668 91.8285 28.668C91.7425 28.6536 91.6924 28.6465 91.6781 28.6465C91.6351 28.6178 91.5492 28.5462 91.4203 28.4316C91.3057 28.3171 91.2412 28.2383 91.2269 28.1953L90.8832 27.0137L90.2386 22.1152V21.9219C90.2243 21.6641 90.2171 21.3919 90.2171 21.1055C90.2171 20.8047 90.21 20.5039 90.1957 20.2031C90.1957 19.9023 90.1813 19.6016 90.1527 19.3008C90.124 19 90.0668 18.7207 89.9808 18.4629L89.8734 18.5918L88.3265 24.8223C88.3122 24.9798 88.2979 25.1517 88.2836 25.3379C88.2692 25.5098 88.2334 25.6816 88.1761 25.8535C88.1188 26.0111 88.0329 26.1471 87.9183 26.2617C87.8037 26.3763 87.639 26.4408 87.4242 26.4551C87.3382 26.4694 87.2451 26.4551 87.1449 26.4121C87.0446 26.3691 86.9444 26.3118 86.8441 26.2402C86.7438 26.1686 86.6507 26.0898 86.5648 26.0039C86.4932 25.9036 86.4502 25.8105 86.4359 25.7246L83.7074 21.3848L83.2562 20.4824V22.3301C83.2562 23.2038 83.2705 24.0632 83.2992 24.9082C83.3421 25.7389 83.3636 26.5911 83.3636 27.4648C83.3636 27.5365 83.3636 27.6654 83.3636 27.8516C83.3636 28.0234 83.3565 28.2096 83.3421 28.4102C83.3421 28.6107 83.3421 28.804 83.3421 28.9902C83.3421 29.1621 83.3421 29.2839 83.3421 29.3555C83.2849 29.5273 83.1989 29.6777 83.0843 29.8066C82.9841 29.9355 82.8337 30 82.6332 30C82.361 30 82.1462 29.957 81.9886 29.8711C81.8454 29.7708 81.7237 29.599 81.6234 29.3555ZM93.9339 29.1836C93.9339 28.9831 94.0056 28.7969 94.1488 28.625C94.3063 28.4531 94.4854 28.3672 94.6859 28.3672C94.9294 28.3672 95.1227 28.4316 95.266 28.5605C95.4235 28.6895 95.5739 28.8327 95.7171 28.9902V29.0547C95.7171 29.2982 95.6312 29.5202 95.4593 29.7207C95.3018 29.9069 95.0869 30 94.8148 30C94.6286 30 94.4352 29.9141 94.2347 29.7422C94.0342 29.5703 93.9339 29.3841 93.9339 29.1836ZM96.7699 28.6465C96.7699 27.7871 96.8272 26.9349 96.9418 26.0898C97.0563 25.2448 97.1566 24.3997 97.2425 23.5547C97.2425 23.5117 97.2497 23.4186 97.264 23.2754C97.2783 23.1178 97.2927 22.9531 97.307 22.7812C97.3356 22.6094 97.3571 22.4518 97.3714 22.3086C97.4001 22.151 97.4144 22.0508 97.4144 22.0078V21.9219L98.3168 15.2188C98.2881 14.9323 98.3311 14.6816 98.4457 14.4668C98.5746 14.2376 98.8037 14.123 99.1332 14.123C99.4912 14.0801 99.7849 14.1302 100.014 14.2734C100.258 14.4023 100.458 14.5742 100.616 14.7891C100.773 15.0039 100.902 15.2402 101.002 15.498C101.103 15.7559 101.21 15.9922 101.325 16.207C101.396 16.4076 101.482 16.6439 101.582 16.916C101.697 17.1882 101.826 17.5319 101.969 17.9473C102.127 18.3626 102.306 18.8711 102.506 19.4727C102.721 20.0742 102.965 20.8047 103.237 21.6641L103.323 21.75C103.423 21.6927 103.609 21.5996 103.881 21.4707C104.168 21.3418 104.461 21.2057 104.762 21.0625C105.077 20.9193 105.371 20.7832 105.643 20.6543C105.915 20.5254 106.108 20.4395 106.223 20.3965C106.237 20.3678 106.273 20.3464 106.33 20.332C106.402 20.3034 106.452 20.2819 106.481 20.2676H106.524C106.667 20.2676 106.774 20.3249 106.846 20.4395C106.918 20.5397 106.953 20.64 106.953 20.7402C106.953 20.8978 106.918 21.0339 106.846 21.1484C106.774 21.263 106.689 21.3704 106.588 21.4707C106.502 21.5566 106.402 21.6426 106.287 21.7285C106.187 21.8145 106.108 21.9076 106.051 22.0078L103.924 23.082C103.867 23.1536 103.838 23.2109 103.838 23.2539C103.838 23.3685 103.896 23.5475 104.01 23.791C104.139 24.0345 104.239 24.2279 104.311 24.3711C104.354 24.457 104.425 24.6146 104.526 24.8438C104.626 25.0729 104.733 25.3092 104.848 25.5527C104.963 25.7962 105.07 26.0326 105.17 26.2617C105.285 26.4766 105.364 26.627 105.407 26.7129V26.7773C105.407 27.293 105.149 27.5508 104.633 27.5508C104.476 27.5508 104.311 27.5365 104.139 27.5078C103.967 27.4648 103.838 27.3574 103.752 27.1855L102.313 24.1133H102.119C101.575 24.5286 100.995 24.9368 100.379 25.3379C99.7634 25.7389 99.1332 26.0827 98.4886 26.3691C98.3884 26.8848 98.3239 27.4076 98.2953 27.9375C98.2809 28.4674 98.2881 28.9974 98.3168 29.5273C98.2022 29.6849 98.0876 29.8066 97.973 29.8926C97.8584 29.9642 97.7009 30 97.5004 30C97.2998 30 97.1494 29.957 97.0492 29.8711C96.9489 29.7708 96.8773 29.6562 96.8343 29.5273C96.7914 29.3841 96.7699 29.2337 96.7699 29.0762C96.7699 28.9186 96.7699 28.7754 96.7699 28.6465ZM98.682 24.4785C99.1117 24.3066 99.527 24.0775 99.9281 23.791C100.343 23.5046 100.737 23.2396 101.11 22.9961C101.153 22.9674 101.203 22.9388 101.26 22.9102C101.332 22.8815 101.396 22.8457 101.453 22.8027C101.511 22.7598 101.582 22.7096 101.668 22.6523V22.4805L99.6918 16.8516L99.6058 16.7656C99.5629 16.8516 99.5056 17.0951 99.4339 17.4961C99.3767 17.8971 99.305 18.4199 99.2191 19.0645C99.1475 19.6947 99.0615 20.4251 98.9613 21.2559C98.8754 22.0866 98.7823 22.9746 98.682 23.9199V24.4785ZM108.801 25.0156C108.715 24.8294 108.644 24.679 108.586 24.5645C108.543 24.4499 108.522 24.3138 108.522 24.1562C108.522 24.0273 108.536 23.9128 108.565 23.8125C108.608 23.6979 108.629 23.5762 108.629 23.4473C108.629 23.1322 108.615 22.8385 108.586 22.5664C108.572 22.2943 108.55 21.9935 108.522 21.6641C108.508 21.6211 108.457 21.5853 108.371 21.5566C108.286 21.528 108.192 21.4922 108.092 21.4492C107.992 21.3919 107.899 21.3132 107.813 21.2129C107.741 21.1126 107.705 20.9694 107.705 20.7832C107.705 20.6113 107.741 20.4681 107.813 20.3535C107.899 20.2246 107.985 20.11 108.071 20.0098C108.157 19.8952 108.235 19.7806 108.307 19.666C108.393 19.5371 108.436 19.3867 108.436 19.2148C108.436 19.1432 108.429 19.0143 108.414 18.8281C108.4 18.6276 108.386 18.4199 108.371 18.2051C108.371 17.9902 108.364 17.7897 108.35 17.6035C108.35 17.403 108.35 17.2669 108.35 17.1953V17.1523V17.1094C108.407 16.9805 108.45 16.873 108.479 16.7871C108.522 16.7012 108.565 16.6367 108.608 16.5938C108.651 16.5508 108.708 16.5221 108.78 16.5078C108.851 16.4792 108.944 16.4648 109.059 16.4648C109.36 16.4648 109.582 16.5221 109.725 16.6367C109.868 16.7513 109.968 16.8874 110.026 17.0449C110.083 17.1882 110.119 17.3242 110.133 17.4531C110.147 17.582 110.183 17.6536 110.241 17.668L111.787 16.3145H111.873C112.375 15.985 112.905 15.7344 113.463 15.5625C114.022 15.3763 114.609 15.2832 115.225 15.2832C115.411 15.2832 115.633 15.3047 115.891 15.3477C116.163 15.3906 116.414 15.4694 116.643 15.584C116.886 15.6842 117.087 15.8203 117.244 15.9922C117.416 16.1641 117.502 16.3789 117.502 16.6367C117.502 16.9232 117.466 17.2168 117.395 17.5176C117.323 17.8184 117.223 18.1191 117.094 18.4199C116.98 18.7064 116.836 18.9857 116.664 19.2578C116.507 19.5156 116.335 19.7376 116.149 19.9238C116.077 20.0814 115.619 20.4824 114.774 21.127C113.929 21.7715 112.668 22.7311 110.993 24.0059L121.305 24.6504C121.448 24.6647 121.642 24.679 121.885 24.6934C122.143 24.6934 122.386 24.7148 122.616 24.7578C122.859 24.8008 123.067 24.8867 123.239 25.0156C123.411 25.1302 123.496 25.3092 123.496 25.5527C123.496 25.6816 123.475 25.7891 123.432 25.875C123.403 25.9466 123.36 26.0111 123.303 26.0684C123.26 26.1113 123.203 26.1543 123.131 26.1973C123.074 26.2402 123.017 26.2975 122.959 26.3691H122.594H122.229C121.942 26.3405 121.642 26.3047 121.327 26.2617C121.026 26.2188 120.668 26.1686 120.252 26.1113C119.851 26.054 119.379 25.9967 118.834 25.9395C118.29 25.8822 117.638 25.832 116.879 25.7891C116.12 25.7461 115.232 25.7103 114.215 25.6816C113.213 25.653 112.045 25.6387 110.713 25.6387C110.699 25.6387 110.677 25.6602 110.649 25.7031C110.634 25.7461 110.627 25.7819 110.627 25.8105C110.627 26.3548 110.67 26.8919 110.756 27.4219C110.856 27.9375 110.907 28.4531 110.907 28.9688C110.907 29.069 110.892 29.1836 110.864 29.3125C110.849 29.4271 110.814 29.5417 110.756 29.6562C110.699 29.7565 110.627 29.8424 110.541 29.9141C110.455 29.9857 110.348 30.0215 110.219 30.0215C110.133 30.0215 110.033 30.0072 109.918 29.9785C109.804 29.9355 109.689 29.8783 109.575 29.8066C109.474 29.735 109.381 29.6562 109.295 29.5703C109.209 29.4844 109.159 29.3841 109.145 29.2695L108.801 25.0156ZM110.241 20.2676C110.241 20.6257 110.248 20.9622 110.262 21.2773C110.276 21.5924 110.298 21.9362 110.327 22.3086H110.391C110.405 22.3086 110.441 22.2943 110.498 22.2656C110.556 22.237 110.699 22.151 110.928 22.0078C111.157 21.8503 111.508 21.6139 111.981 21.2988C112.453 20.9694 113.119 20.5111 113.979 19.9238C114.151 19.8236 114.337 19.6517 114.537 19.4082C114.738 19.1647 114.924 18.8997 115.096 18.6133C115.268 18.3268 115.411 18.0475 115.526 17.7754C115.64 17.4889 115.698 17.2526 115.698 17.0664C115.698 16.9232 115.626 16.8516 115.483 16.8516C115.354 16.8516 115.239 16.8516 115.139 16.8516C114.924 16.8516 114.681 16.8874 114.409 16.959C114.136 17.0306 113.807 17.1738 113.42 17.3887C113.048 17.6035 112.597 17.9115 112.067 18.3125C111.551 18.7135 110.942 19.2507 110.241 19.9238V20.2676ZM126.225 23.7266C126.024 23.7266 125.845 23.7767 125.688 23.877C125.53 23.9772 125.344 24.0273 125.129 24.0273C125.101 24.0273 125.022 24.0273 124.893 24.0273C124.778 24.013 124.707 24.0059 124.678 24.0059C124.621 23.9342 124.556 23.877 124.485 23.834C124.413 23.791 124.341 23.748 124.27 23.7051C124.198 23.6478 124.134 23.5833 124.077 23.5117C124.034 23.4401 124.012 23.3398 124.012 23.2109C124.012 22.9961 124.098 22.8242 124.27 22.6953C124.442 22.5521 124.642 22.4303 124.871 22.3301C125.101 22.2298 125.33 22.1367 125.559 22.0508C125.802 21.9648 125.996 21.8646 126.139 21.75V20.8047C126.139 19.7448 126.089 18.6849 125.989 17.625C125.888 16.5508 125.838 15.4909 125.838 14.4453C125.838 14.1589 125.91 13.9727 126.053 13.8867C126.196 13.8008 126.39 13.7578 126.633 13.7578C126.92 13.7578 127.127 13.8438 127.256 14.0156C127.399 14.1732 127.5 14.3737 127.557 14.6172C127.614 14.8464 127.643 15.097 127.643 15.3691C127.643 15.627 127.65 15.849 127.664 16.0352C127.664 16.2214 127.679 16.5508 127.707 17.0234C127.736 17.4961 127.765 17.9974 127.793 18.5273C127.822 19.0573 127.851 19.5586 127.879 20.0312C127.908 20.5039 127.929 20.8333 127.944 21.0195C128.001 21.0052 128.108 20.9694 128.266 20.9121C128.438 20.8405 128.617 20.776 128.803 20.7188C128.989 20.6471 129.161 20.5827 129.319 20.5254C129.491 20.4681 129.612 20.4251 129.684 20.3965C130.056 20.2389 130.443 20.0671 130.844 19.8809C131.245 19.6803 131.653 19.5801 132.069 19.5801C132.355 19.5801 132.57 19.6803 132.713 19.8809C132.871 20.0671 132.95 20.2891 132.95 20.5469C132.95 20.7331 132.878 20.8691 132.735 20.9551C132.591 21.041 132.441 21.1198 132.284 21.1914L128.373 22.6523C128.33 22.681 128.287 22.7096 128.244 22.7383C128.202 22.7526 128.159 22.7812 128.116 22.8242V23.5117C128.116 24.013 128.123 24.5358 128.137 25.0801C128.166 25.61 128.216 26.1257 128.287 26.627C128.359 27.0566 128.438 27.4792 128.524 27.8945C128.61 28.3099 128.653 28.7324 128.653 29.1621C128.653 29.291 128.61 29.4629 128.524 29.6777C128.438 29.8926 128.302 30 128.116 30C127.729 30 127.414 29.8854 127.17 29.6562C126.927 29.4271 126.791 29.1191 126.762 28.7324C126.69 27.9876 126.612 27.1712 126.526 26.2832C126.454 25.3952 126.383 24.543 126.311 23.7266H126.225Z" fill="#201F1E"/>
</svg>
