<svg width="154" height="44" viewBox="0 0 154 44" fill="none" xmlns="http://www.w3.org/2000/svg">
<rect width="154" height="44" rx="22" fill="#92FF00"/>
<path d="M21.3415 28H23.1675V22.016C23.1675 19.816 24.3335 18.32 26.0055 18.32C26.4235 18.32 27.0835 18.408 27.6555 18.65V16.956C27.3255 16.78 26.7975 16.67 26.2915 16.67C25.0595 16.67 23.8275 17.374 23.3215 18.386H23.1235V16.89H21.3415V28ZM32.8653 28.352C34.6473 28.352 35.9453 27.648 36.7373 26.372H36.9353V28H38.7613V20.63C38.7613 18.1 36.9353 16.472 34.0533 16.472C31.2593 16.472 29.4333 17.968 29.4333 20.322H31.2813C31.2593 18.936 32.3593 18.122 34.0313 18.122C35.8573 18.122 36.9353 19.09 36.9353 20.586V21.026L33.8553 21.4C30.5553 21.774 28.8833 23.226 28.8833 25.184C28.8833 27.098 30.4673 28.352 32.8653 28.352ZM33.1293 26.834C31.6333 26.834 30.7093 26.196 30.7093 25.14C30.7093 24.106 31.5893 23.226 33.8553 22.94L36.9353 22.588V23.578C36.9353 25.448 35.3953 26.834 33.1293 26.834ZM40.9335 28H50.9655V26.35H43.9475V26.13L50.7455 17.682V16.89H41.1535V18.54H47.7755V18.738L40.9335 27.208V28ZM58.7212 28.44C62.1972 28.44 64.6832 25.954 64.6832 22.434C64.6832 18.936 62.1972 16.45 58.7212 16.45C55.2232 16.45 52.7592 18.936 52.7592 22.434C52.7592 25.954 55.2232 28.44 58.7212 28.44ZM58.7212 26.79C56.3012 26.79 54.5852 24.964 54.5852 22.434C54.5852 19.926 56.3012 18.1 58.7212 18.1C61.1192 18.1 62.8572 19.926 62.8572 22.434C62.8572 24.964 61.1192 26.79 58.7212 26.79ZM72.8364 28.44C76.3124 28.44 78.7984 25.954 78.7984 22.434C78.7984 18.936 76.3124 16.45 72.8364 16.45C69.3384 16.45 66.8744 18.936 66.8744 22.434C66.8744 25.954 69.3384 28.44 72.8364 28.44ZM72.8364 26.79C70.4164 26.79 68.7004 24.964 68.7004 22.434C68.7004 19.926 70.4164 18.1 72.8364 18.1C75.2344 18.1 76.9724 19.926 76.9724 22.434C76.9724 24.964 75.2344 26.79 72.8364 26.79ZM81.5836 28H83.4096V21.356C83.4096 19.398 84.5976 18.1 86.4016 18.1C88.1176 18.1 89.2616 19.398 89.2616 21.356V28H91.0876V21.356C91.0876 19.464 92.3416 18.1 94.1236 18.1C95.7956 18.1 97.0056 19.464 97.0056 21.356V28H98.8316V21.378C98.8316 18.496 96.9616 16.472 94.3436 16.472C92.6716 16.472 91.3956 17.308 90.6256 18.606H90.4276C89.7896 17.308 88.3596 16.45 86.7976 16.45C85.3456 16.45 84.1796 17.22 83.5636 18.364H83.3436V16.89H81.5836V28ZM102.632 28.286C103.336 28.286 103.842 27.78 103.842 27.076C103.842 26.372 103.336 25.866 102.632 25.866C101.906 25.866 101.422 26.372 101.422 27.076C101.422 27.78 101.906 28.286 102.632 28.286ZM109.736 28.352C111.518 28.352 112.816 27.648 113.608 26.372H113.806V28H115.632V20.63C115.632 18.1 113.806 16.472 110.924 16.472C108.13 16.472 106.304 17.968 106.304 20.322H108.152C108.13 18.936 109.23 18.122 110.902 18.122C112.728 18.122 113.806 19.09 113.806 20.586V21.026L110.726 21.4C107.426 21.774 105.754 23.226 105.754 25.184C105.754 27.098 107.338 28.352 109.736 28.352ZM110 26.834C108.504 26.834 107.58 26.196 107.58 25.14C107.58 24.106 108.46 23.226 110.726 22.94L113.806 22.588V23.578C113.806 25.448 112.266 26.834 110 26.834ZM118.795 28H120.621V22.016C120.621 19.816 121.787 18.32 123.459 18.32C123.877 18.32 124.537 18.408 125.109 18.65V16.956C124.779 16.78 124.251 16.67 123.745 16.67C122.513 16.67 121.281 17.374 120.775 18.386H120.577V16.89H118.795V28ZM131.479 28.418C132.029 28.418 132.755 28.308 133.283 28.132V26.658C132.865 26.79 132.293 26.878 131.963 26.878C130.907 26.878 130.247 26.13 130.247 25.074V18.342H133.107V16.89H130.247L130.269 13.304H128.839L128.421 16.89H126.617V18.342H128.421V25.14C128.421 27.098 129.609 28.418 131.479 28.418Z" fill="#201F1E"/>
</svg>
