<svg width="72" height="45" viewBox="0 0 72 45" fill="none" xmlns="http://www.w3.org/2000/svg">
<path d="M65.9993 6H44.9995V0H65.9993V6ZM71.1772 36C69.8512 39.891 65.0903 45 55.8744 45C46.6525 45 39.1826 39.813 39.1826 27.975C39.1826 16.245 46.1575 10.215 55.5804 10.215C64.8263 10.215 70.4722 15.561 71.7052 23.493C71.9392 25.011 72.0322 27.057 71.9902 29.913H47.9095C48.2995 39.546 58.3584 39.849 61.6733 36H71.1772ZM48.1195 24H63.0143C62.6993 19.359 59.6064 17.343 55.5834 17.343C51.1854 17.343 48.7525 19.647 48.1195 24ZM19.3978 44.964H0V0.0629997H20.8588C37.2866 0.306 37.5986 16.395 29.0187 20.781C39.4016 24.561 39.7496 44.964 19.3978 44.964ZM8.9999 18H19.7518C27.2757 18 28.4697 9 18.8158 9H8.9999V18ZM19.1728 27H8.9999V36.048H19.0228C28.1877 36.048 27.6267 27 19.1728 27Z" fill="currentColor"/>
</svg>
