<svg width="140" height="40" viewBox="0 0 140 40" fill="none" xmlns="http://www.w3.org/2000/svg">
<rect width="140" height="40" rx="20" fill="#92FF00"/>
<path d="M19.54 25H21.2V19.56C21.2 17.56 22.26 16.2 23.78 16.2C24.16 16.2 24.76 16.28 25.28 16.5V14.96C24.98 14.8 24.5 14.7 24.04 14.7C22.92 14.7 21.8 15.34 21.34 16.26H21.16V14.9H19.54V25ZM30.0163 25.32C31.6363 25.32 32.8163 24.68 33.5363 23.52H33.7163V25H35.3763V18.3C35.3763 16 33.7163 14.52 31.0963 14.52C28.5563 14.52 26.8963 15.88 26.8963 18.02H28.5763C28.5563 16.76 29.5563 16.02 31.0763 16.02C32.7363 16.02 33.7163 16.9 33.7163 18.26V18.66L30.9163 19C27.9163 19.34 26.3963 20.66 26.3963 22.44C26.3963 24.18 27.8363 25.32 30.0163 25.32ZM30.2563 23.94C28.8963 23.94 28.0563 23.36 28.0563 22.4C28.0563 21.46 28.8563 20.66 30.9163 20.4L33.7163 20.08V20.98C33.7163 22.68 32.3163 23.94 30.2563 23.94ZM37.3509 25H46.4709V23.5H40.0909V23.3L46.2709 15.62V14.9H37.5509V16.4H43.5709V16.58L37.3509 24.28V25ZM53.5216 25.4C56.6816 25.4 58.9416 23.14 58.9416 19.94C58.9416 16.76 56.6816 14.5 53.5216 14.5C50.3416 14.5 48.1016 16.76 48.1016 19.94C48.1016 23.14 50.3416 25.4 53.5216 25.4ZM53.5216 23.9C51.3216 23.9 49.7616 22.24 49.7616 19.94C49.7616 17.66 51.3216 16 53.5216 16C55.7016 16 57.2816 17.66 57.2816 19.94C57.2816 22.24 55.7016 23.9 53.5216 23.9ZM66.3536 25.4C69.5136 25.4 71.7736 23.14 71.7736 19.94C71.7736 16.76 69.5136 14.5 66.3536 14.5C63.1736 14.5 60.9336 16.76 60.9336 19.94C60.9336 23.14 63.1736 25.4 66.3536 25.4ZM66.3536 23.9C64.1536 23.9 62.5936 22.24 62.5936 19.94C62.5936 17.66 64.1536 16 66.3536 16C68.5336 16 70.1136 17.66 70.1136 19.94C70.1136 22.24 68.5336 23.9 66.3536 23.9ZM74.3056 25H75.9656V18.96C75.9656 17.18 77.0456 16 78.6856 16C80.2456 16 81.2856 17.18 81.2856 18.96V25H82.9456V18.96C82.9456 17.24 84.0856 16 85.7056 16C87.2256 16 88.3256 17.24 88.3256 18.96V25H89.9856V18.98C89.9856 16.36 88.2856 14.52 85.9056 14.52C84.3856 14.52 83.2256 15.28 82.5256 16.46H82.3456C81.7656 15.28 80.4656 14.5 79.0456 14.5C77.7256 14.5 76.6656 15.2 76.1056 16.24H75.9056V14.9H74.3056V25ZM93.4403 25.26C94.0803 25.26 94.5403 24.8 94.5403 24.16C94.5403 23.52 94.0803 23.06 93.4403 23.06C92.7803 23.06 92.3403 23.52 92.3403 24.16C92.3403 24.8 92.7803 25.26 93.4403 25.26ZM99.8991 25.32C101.519 25.32 102.699 24.68 103.419 23.52H103.599V25H105.259V18.3C105.259 16 103.599 14.52 100.979 14.52C98.4391 14.52 96.7791 15.88 96.7791 18.02H98.4591C98.4391 16.76 99.4391 16.02 100.959 16.02C102.619 16.02 103.599 16.9 103.599 18.26V18.66L100.799 19C97.7991 19.34 96.2791 20.66 96.2791 22.44C96.2791 24.18 97.7191 25.32 99.8991 25.32ZM100.139 23.94C98.7791 23.94 97.9391 23.36 97.9391 22.4C97.9391 21.46 98.7391 20.66 100.799 20.4L103.599 20.08V20.98C103.599 22.68 102.199 23.94 100.139 23.94ZM108.134 25H109.794V19.56C109.794 17.56 110.854 16.2 112.374 16.2C112.754 16.2 113.354 16.28 113.874 16.5V14.96C113.574 14.8 113.094 14.7 112.634 14.7C111.514 14.7 110.394 15.34 109.934 16.26H109.754V14.9H108.134V25ZM119.665 25.38C120.165 25.38 120.825 25.28 121.305 25.12V23.78C120.925 23.9 120.405 23.98 120.105 23.98C119.145 23.98 118.545 23.3 118.545 22.34V16.22H121.145V14.9H118.545L118.565 11.64H117.265L116.885 14.9H115.245V16.22H116.885V22.4C116.885 24.18 117.965 25.38 119.665 25.38Z" fill="black"/>
</svg>
