<svg width="60" height="50" viewBox="0 0 60 50" fill="none" xmlns="http://www.w3.org/2000/svg">
<path fill-rule="evenodd" clip-rule="evenodd" d="M4.10812 21.5646C20.2109 14.5306 30.9308 9.85678 36.3138 7.58925C51.6344 1.1569 54.855 0.0462759 56.9254 0C57.3854 0 58.3976 0.0925526 59.0877 0.647864C59.6398 1.11062 59.7779 1.71221 59.8699 2.17497C59.9619 2.63773 60.0539 3.60952 59.9619 4.34994C59.1337 13.1424 55.5451 34.4756 53.7048 44.2861C52.9227 48.4509 51.4044 49.8392 49.9321 49.978C46.7116 50.2557 44.2731 47.8493 41.1906 45.8132C36.3137 42.6201 33.5993 40.6303 28.8604 37.4835C23.3855 33.874 26.9281 31.8841 30.0567 28.6448C30.8848 27.8118 45.0093 14.8546 45.2853 13.6977C45.3313 13.5589 45.3313 13.0035 45.0093 12.7259C44.6872 12.4482 44.2271 12.5408 43.8591 12.6333C43.353 12.7259 35.6236 17.9088 20.579 28.1358C18.3706 29.6629 16.3923 30.4033 14.598 30.357C12.6196 30.3107 8.84695 29.2464 5.99445 28.3209C2.54385 27.2103 -0.216635 26.6087 0.0134054 24.6651C0.15143 23.647 1.53167 22.6289 4.10812 21.5646Z" fill="currentColor"/>
</svg>
