<svg width="154" height="44" viewBox="0 0 154 44" fill="none" xmlns="http://www.w3.org/2000/svg">
<rect width="154" height="44" rx="22" fill="#92FF00"/>
<path d="M84.748 28.6139C82.482 28.6139 81.36 27.2499 81.118 25.2919H79.05C79.292 27.9539 80.942 30.2859 84.726 30.2859C87.784 30.2859 90.49 28.7239 90.49 25.5119C90.49 23.8179 89.83 22.2779 87.454 21.5079C89.126 20.8259 90.05 19.4619 90.05 17.8119C90.05 14.8859 87.63 13.7639 84.88 13.7639C81.536 13.7639 79.534 15.7219 79.292 18.5379H81.36C81.536 16.7119 82.702 15.4359 84.836 15.4359C86.53 15.4359 87.938 16.3379 87.938 18.0319C87.938 19.9019 86.486 20.6719 83.692 20.6719H83.428V22.4979H83.758C86.31 22.4979 88.356 23.2459 88.356 25.5339C88.356 27.5359 86.86 28.6139 84.748 28.6139Z" fill="#201F1E"/>
<path d="M65.261 21.2459V22.9619L76.547 27.8679V25.7339L67.769 22.1039L76.547 18.4079V16.2519L65.261 21.2459Z" fill="#201F1E"/>
</svg>
