<svg width="154" height="44" viewBox="0 0 154 44" fill="none" xmlns="http://www.w3.org/2000/svg">
<rect width="154" height="44" rx="22" fill="#92FF00"/>
<mask id="path-2-outside-1_3547_663" maskUnits="userSpaceOnUse" x="32" y="10" width="90" height="24" fill="black">
<rect fill="white" x="32" y="10" width="90" height="24"/>
<path d="M50.3779 11.0243V23.7726H53.144V11.0243H50.3779ZM52.3322 16.3664V18.2119H57.1126V16.3664H52.3322ZM33.0601 20.9559V22.777H35.2249C40.3661 22.777 43.9439 22.6556 48.1531 22.0728L47.9126 20.2517C43.7635 20.8344 40.2458 20.9559 35.2249 20.9559H33.0601ZM33 12.1656V13.9868H42.6511V16.5121H33.0601V22.2671H35.766V18.2362H45.387V12.1656H33ZM43.1622 25.7881V26.298C43.1622 28.6534 39.404 30.7174 34.5333 31.2759L35.5556 32.9757C41.1177 32.2715 45.5073 29.7219 45.5073 26.298V25.7881H43.1622ZM43.7334 25.7881V26.298C43.7334 29.649 48.123 32.2958 53.6852 33L54.6773 31.3002C49.8969 30.7417 46.0485 28.5806 46.0485 26.298V25.7881H43.7334ZM35.6458 24.9382V26.7351H53.595V24.9382H35.6458Z"/>
<path d="M70.5496 22.2914V26.0552H73.2555V22.2914H70.5496ZM71.9026 11.3885C65.9796 11.3885 62.2515 12.9426 62.2515 15.5651C62.2515 18.1634 65.9796 19.6932 71.9026 19.6932C77.8255 19.6932 81.5536 18.1634 81.5536 15.5651C81.5536 12.9426 77.8255 11.3885 71.9026 11.3885ZM71.9026 13.1369C76.1118 13.1369 78.7275 14.011 78.7275 15.5651C78.7275 17.0949 76.1118 17.9691 71.9026 17.9691C67.6934 17.9691 65.0777 17.0949 65.0777 15.5651C65.0777 14.011 67.6934 13.1369 71.9026 13.1369ZM62.5522 25.4724V32.7815H81.2229V25.4724H62.5522ZM78.5471 27.245V30.9845H65.2581V27.245H78.5471ZM59.5757 21.2958V23.0927H84.2295V21.2958H59.5757Z"/>
<path d="M88.0954 29.8017C88.0954 30.2365 88.2667 30.608 88.6092 30.9163C88.9615 31.2166 89.4607 31.3668 90.1066 31.3668C90.7623 31.3668 91.2615 31.2166 91.604 30.9163C91.9564 30.608 92.1325 30.2365 92.1325 29.8017C92.1325 29.367 91.9564 28.9994 91.604 28.699C91.2615 28.3908 90.7623 28.2366 90.1066 28.2366C89.4607 28.2366 88.9615 28.3908 88.6092 28.699C88.2667 28.9994 88.0954 29.367 88.0954 29.8017Z"/>
<path d="M103.351 11.777C99.2926 11.777 96.3762 13.7925 96.3762 16.7307C96.3762 19.6446 99.2926 21.6843 103.351 21.6843C107.41 21.6843 110.327 19.6446 110.327 16.7307C110.327 13.7925 107.41 11.777 103.351 11.777ZM103.351 13.6954C105.817 13.6954 107.621 14.9095 107.621 16.7307C107.621 18.5519 105.817 19.766 103.351 19.766C100.856 19.766 99.0822 18.5519 99.0822 16.7307C99.0822 14.9095 100.856 13.6954 103.351 13.6954ZM114.175 11V22.5828H117.001V11H114.175ZM116.28 15.7351V17.6049H121V15.7351H116.28ZM108.192 31.2274V32.9029H117.422V31.2274H108.192ZM108.643 27.4393V28.9934H116.851V27.4393H108.643ZM108.192 23.6026V32.0287H110.898V25.3024H117.122V23.6026H108.192ZM97.7292 23.6026V25.3024H104.073V27.3422H97.7893V32.0773H100.315V28.8962H106.599V23.6026H97.7292ZM97.7893 31.2759V32.9757H99.2625C101.427 32.9757 103.923 32.9514 107.32 32.5872L107.11 30.9117C103.833 31.2517 101.397 31.2759 99.2625 31.2759H97.7893Z"/>
</mask>
<path d="M50.3779 11.0243V23.7726H53.144V11.0243H50.3779ZM52.3322 16.3664V18.2119H57.1126V16.3664H52.3322ZM33.0601 20.9559V22.777H35.2249C40.3661 22.777 43.9439 22.6556 48.1531 22.0728L47.9126 20.2517C43.7635 20.8344 40.2458 20.9559 35.2249 20.9559H33.0601ZM33 12.1656V13.9868H42.6511V16.5121H33.0601V22.2671H35.766V18.2362H45.387V12.1656H33ZM43.1622 25.7881V26.298C43.1622 28.6534 39.404 30.7174 34.5333 31.2759L35.5556 32.9757C41.1177 32.2715 45.5073 29.7219 45.5073 26.298V25.7881H43.1622ZM43.7334 25.7881V26.298C43.7334 29.649 48.123 32.2958 53.6852 33L54.6773 31.3002C49.8969 30.7417 46.0485 28.5806 46.0485 26.298V25.7881H43.7334ZM35.6458 24.9382V26.7351H53.595V24.9382H35.6458Z" stroke="#201F1E" stroke-width="1.6" mask="url(#path-2-outside-1_3547_663)"/>
<path d="M70.5496 22.2914V26.0552H73.2555V22.2914H70.5496ZM71.9026 11.3885C65.9796 11.3885 62.2515 12.9426 62.2515 15.5651C62.2515 18.1634 65.9796 19.6932 71.9026 19.6932C77.8255 19.6932 81.5536 18.1634 81.5536 15.5651C81.5536 12.9426 77.8255 11.3885 71.9026 11.3885ZM71.9026 13.1369C76.1118 13.1369 78.7275 14.011 78.7275 15.5651C78.7275 17.0949 76.1118 17.9691 71.9026 17.9691C67.6934 17.9691 65.0777 17.0949 65.0777 15.5651C65.0777 14.011 67.6934 13.1369 71.9026 13.1369ZM62.5522 25.4724V32.7815H81.2229V25.4724H62.5522ZM78.5471 27.245V30.9845H65.2581V27.245H78.5471ZM59.5757 21.2958V23.0927H84.2295V21.2958H59.5757Z" stroke="#201F1E" stroke-width="1.6" mask="url(#path-2-outside-1_3547_663)"/>
<path d="M88.0954 29.8017C88.0954 30.2365 88.2667 30.608 88.6092 30.9163C88.9615 31.2166 89.4607 31.3668 90.1066 31.3668C90.7623 31.3668 91.2615 31.2166 91.604 30.9163C91.9564 30.608 92.1325 30.2365 92.1325 29.8017C92.1325 29.367 91.9564 28.9994 91.604 28.699C91.2615 28.3908 90.7623 28.2366 90.1066 28.2366C89.4607 28.2366 88.9615 28.3908 88.6092 28.699C88.2667 28.9994 88.0954 29.367 88.0954 29.8017Z" stroke="#201F1E" stroke-width="1.6" mask="url(#path-2-outside-1_3547_663)"/>
<path d="M103.351 11.777C99.2926 11.777 96.3762 13.7925 96.3762 16.7307C96.3762 19.6446 99.2926 21.6843 103.351 21.6843C107.41 21.6843 110.327 19.6446 110.327 16.7307C110.327 13.7925 107.41 11.777 103.351 11.777ZM103.351 13.6954C105.817 13.6954 107.621 14.9095 107.621 16.7307C107.621 18.5519 105.817 19.766 103.351 19.766C100.856 19.766 99.0822 18.5519 99.0822 16.7307C99.0822 14.9095 100.856 13.6954 103.351 13.6954ZM114.175 11V22.5828H117.001V11H114.175ZM116.28 15.7351V17.6049H121V15.7351H116.28ZM108.192 31.2274V32.9029H117.422V31.2274H108.192ZM108.643 27.4393V28.9934H116.851V27.4393H108.643ZM108.192 23.6026V32.0287H110.898V25.3024H117.122V23.6026H108.192ZM97.7292 23.6026V25.3024H104.073V27.3422H97.7893V32.0773H100.315V28.8962H106.599V23.6026H97.7292ZM97.7893 31.2759V32.9757H99.2625C101.427 32.9757 103.923 32.9514 107.32 32.5872L107.11 30.9117C103.833 31.2517 101.397 31.2759 99.2625 31.2759H97.7893Z" stroke="#201F1E" stroke-width="1.6" mask="url(#path-2-outside-1_3547_663)"/>
</svg>
