<svg width="154" height="44" viewBox="0 0 154 44" fill="none" xmlns="http://www.w3.org/2000/svg">
<rect width="154" height="44" rx="22" fill="#92FF00"/>
<path d="M35.1534 28.352C36.9354 28.352 38.2334 27.648 39.0254 26.372H39.2234V28H41.0494V20.63C41.0494 18.1 39.2234 16.472 36.3414 16.472C33.5474 16.472 31.7214 17.968 31.7214 20.322H33.5694C33.5474 18.936 34.6474 18.122 36.3194 18.122C38.1454 18.122 39.2234 19.09 39.2234 20.586V21.026L36.1434 21.4C32.8434 21.774 31.1714 23.226 31.1714 25.184C31.1714 27.098 32.7554 28.352 35.1534 28.352ZM35.4174 26.834C33.9214 26.834 32.9974 26.196 32.9974 25.14C32.9974 24.106 33.8774 23.226 36.1434 22.94L39.2234 22.588V23.578C39.2234 25.448 37.6834 26.834 35.4174 26.834ZM44.2116 28H46.0376V21.51C46.0376 19.574 47.6436 18.122 49.5136 18.122C51.4276 18.122 52.5496 19.486 52.5496 21.356V28H54.3756V21.356C54.3756 18.54 52.5716 16.472 49.7556 16.472C48.2816 16.472 47.0496 17.176 46.2576 18.408H46.0376V16.89H44.2116V28ZM61.5579 28.418C62.1079 28.418 62.8339 28.308 63.3619 28.132V26.658C62.9439 26.79 62.3719 26.878 62.0419 26.878C60.9859 26.878 60.3259 26.13 60.3259 25.074V18.342H63.1859V16.89H60.3259L60.3479 13.304H58.9179L58.4999 16.89H56.6959V18.342H58.4999V25.14C58.4999 27.098 59.6879 28.418 61.5579 28.418ZM67.2256 14.778C67.9956 14.778 68.5236 14.228 68.5236 13.458C68.5236 12.71 67.9956 12.182 67.2256 12.182C66.4556 12.182 65.9056 12.71 65.9056 13.458C65.9056 14.228 66.4556 14.778 67.2256 14.778ZM66.3016 28H68.1276V16.89H66.3016V28ZM71.6901 28H73.5161V21.51C73.5161 19.53 75.1221 18.1 76.9921 18.1C78.9061 18.1 80.0281 19.442 80.0281 21.334V28H81.8541V21.334C81.8541 18.496 80.0501 16.45 77.2341 16.45C75.7601 16.45 74.5281 17.132 73.7361 18.298H73.5161V11.83H71.6901V28ZM86.0884 32.928C88.4864 32.928 89.3664 30.64 90.3564 28.176L94.7564 16.89H92.7984L89.5424 25.58H89.3224L85.5164 16.89H83.6024L88.5524 27.978C87.8924 29.54 87.4524 31.3 85.8024 31.3C85.3844 31.3 84.8344 31.168 84.3284 30.97V32.576C84.8344 32.796 85.5384 32.928 86.0884 32.928ZM102.813 16.45C100.987 16.45 99.5574 17.242 98.7434 18.584H98.5454V16.89H96.7194V33.06H98.5454V26.35H98.7434C99.5574 27.67 101.053 28.44 102.835 28.44C106.069 28.44 108.555 25.91 108.555 22.434C108.555 18.958 106.047 16.45 102.813 16.45ZM102.615 18.1C104.991 18.1 106.729 19.948 106.729 22.434C106.729 24.876 104.991 26.79 102.615 26.79C100.217 26.79 98.4794 24.876 98.4794 22.434C98.4794 19.992 100.217 18.1 102.615 18.1ZM116.784 28.44C119.248 28.44 121.25 27.296 122.152 25.404L120.634 24.634C119.93 25.954 118.478 26.79 116.828 26.79C114.562 26.79 112.934 25.294 112.67 23.05H122.504C122.526 22.808 122.526 22.544 122.526 22.324C122.526 18.914 120.084 16.45 116.696 16.45C113.264 16.45 110.8 18.914 110.8 22.302C110.8 25.866 113.308 28.44 116.784 28.44ZM112.692 21.444C113 19.442 114.562 18.1 116.608 18.1C118.72 18.1 120.282 19.442 120.612 21.444H112.692Z" fill="#201F1E"/>
</svg>
