<svg width="154" height="44" viewBox="0 0 154 44" fill="none" xmlns="http://www.w3.org/2000/svg">
<rect width="154" height="44" rx="22" fill="#92FF00"/>
<path d="M16.1543 29C16.2343 27.78 16.3743 26.64 16.5543 25.58C18.8143 28.36 20.4743 30.66 22.5743 30.68C23.2143 30.68 23.9143 30.48 24.6743 30L24.5143 26.32C23.3543 27.56 20.0143 29.76 16.6143 25.24C16.6143 25.14 16.6343 25.06 16.6543 24.98C17.7143 26.1 19.0743 26.5 20.2343 26.5C22.9743 26.5 25.4543 24.16 25.4543 20.66C25.4543 17.16 23.0943 14.8 20.0743 14.8C18.1143 15.2 16.2943 21.9 15.9343 28.76H15.7343C15.7543 22.34 16.8143 15 16.8143 15H13.5543L14.1943 29H16.1543ZM18.3943 25.86C18.0543 25.78 17.3543 25.42 16.7143 24.66C17.9943 17.94 20.7343 14.94 22.1543 15.46C23.4343 15.94 23.1343 18.42 22.1343 21.34C21.1143 24.26 19.6143 26.18 18.3943 25.86ZM26.1146 29H29.9346C28.5746 27.76 28.0546 26.86 28.0546 26.2C28.0546 24.32 32.4346 24.48 34.2946 24.22C34.4546 23.66 34.5146 23 34.5146 22.32C34.5146 20 33.7546 17.16 33.3146 15.24H33.5346C35.5346 21.6 36.3746 26.04 36.3746 29H40.1346L35.0146 15H30.1346L26.1146 29ZM26.4546 28.76C28.4146 21.56 32.1146 16.36 32.9546 15.24H33.0946C33.3546 16.54 33.4946 17.62 33.4946 18.5C33.4946 20.38 32.8346 21.48 31.1746 22.58C29.4546 23.72 27.6946 24.84 26.6746 28.76H26.4546ZM52.1255 25.22C51.3655 25.8 50.4055 26 49.3655 26C47.9255 26 46.3255 25.62 44.8255 25.36C44.5855 25.32 44.3655 25.3 44.1455 25.3C42.7455 25.3 41.6655 26.14 41.6655 27.7C41.6655 28.02 41.7055 28.38 41.8055 28.76H41.5655C41.3855 28.04 41.3055 27.4 41.3055 26.8C41.3055 20.76 49.9455 21.16 51.7655 17.9L51.6055 15.26H51.6255L51.6055 15C47.3455 14.98 44.5055 14.62 42.7655 14.62C41.6655 14.62 41.0255 14.76 40.7255 15.2C40.3655 15.72 40.2455 16.38 40.2455 17.02C40.2455 18.3 40.7255 19.5 40.7255 19.5C40.7255 19.5 43.3855 15.36 51.3455 15.26L51.3655 15.46C47.7455 16.22 40.8855 20.18 40.8855 26.22C40.8855 27.1 41.0255 28.04 41.3655 29H42.1455C42.0455 28.6 42.0055 28.28 42.0055 28.02C42.0055 27.38 42.2855 27.14 42.7455 27.14C43.5855 27.14 45.0855 27.98 46.6055 28.52C48.0255 29.04 49.1655 29.2 50.0255 29.2C51.6255 29.2 52.3055 28.62 52.3055 28.62L52.1255 25.22ZM59.0785 14.8C55.7185 14.8 52.9985 17.7 52.9785 22C52.9785 26.3 55.6985 29.2 59.0585 29.2C62.4185 29.22 65.1585 26.32 65.1585 22.02C65.1585 17.72 62.4385 14.8 59.0785 14.8ZM61.6785 23.38C60.4185 26.96 58.5385 29.08 56.8185 28.48C55.0985 27.88 55.1985 24.22 56.4585 20.64C57.7185 17.06 59.5985 14.92 61.3185 15.52C63.0385 16.12 62.9385 19.8 61.6785 23.38ZM72.5941 14.8C69.2341 14.8 66.5141 17.7 66.4941 22C66.4941 26.3 69.2141 29.2 72.5741 29.2C75.9341 29.22 78.6741 26.32 78.6741 22.02C78.6741 17.72 75.9541 14.8 72.5941 14.8ZM75.1941 23.38C73.9341 26.96 72.0541 29.08 70.3341 28.48C68.6141 27.88 68.7141 24.22 69.9741 20.64C71.2341 17.06 73.1141 14.92 74.8341 15.52C76.5541 16.12 76.4541 19.8 75.1941 23.38ZM83.1671 15C81.8071 22.26 78.1671 25.02 79.4271 29H82.6071C80.6271 24.2 82.2671 20.3 83.3671 15.24H83.6071C83.4271 16.26 82.6871 20.52 83.0871 23.48C83.5471 26.92 85.6071 29.2 88.5271 29.2C90.5671 28.6 92.1871 22.06 92.5271 15.24H92.7671C92.7271 21.66 91.6871 29 91.6871 29H94.9471L94.3071 15H92.3071C91.5871 24.92 88.0671 29.1 86.2071 28.36C84.6471 27.74 85.4271 23.88 86.4471 20.22C87.4671 16.44 86.6071 15 86.6071 15H83.1671ZM97.7234 26.72C97.0234 26.72 96.4434 27.32 96.4434 28.22C96.4434 29.12 97.0234 29.74 97.7234 29.74C98.4234 29.74 99.0034 29.12 99.0034 28.22C99.0034 27.32 98.4234 26.72 97.7234 26.72ZM99.9427 29H103.763C102.403 27.76 101.883 26.86 101.883 26.2C101.883 24.32 106.263 24.48 108.123 24.22C108.283 23.66 108.343 23 108.343 22.32C108.343 20 107.583 17.16 107.143 15.24H107.363C109.363 21.6 110.203 26.04 110.203 29H113.963L108.843 15H103.963L99.9427 29ZM100.283 28.76C102.243 21.56 105.943 16.36 106.783 15.24H106.923C107.183 16.54 107.323 17.62 107.323 18.5C107.323 20.38 106.663 21.48 105.003 22.58C103.283 23.72 101.523 24.84 100.503 28.76H100.283ZM117.014 29C117.094 27.78 117.234 26.64 117.414 25.58C119.674 28.36 121.334 30.66 123.434 30.68C124.074 30.68 124.774 30.48 125.534 30L125.374 26.32C124.214 27.56 120.874 29.76 117.474 25.24C117.474 25.14 117.494 25.06 117.514 24.98C118.574 26.1 119.934 26.5 121.094 26.5C123.834 26.5 126.314 24.16 126.314 20.66C126.314 17.16 123.954 14.8 120.934 14.8C118.974 15.2 117.154 21.9 116.794 28.76H116.594C116.614 22.34 117.674 15 117.674 15H114.414L115.054 29H117.014ZM119.254 25.86C118.914 25.78 118.214 25.42 117.574 24.66C118.854 17.94 121.594 14.94 123.014 15.46C124.294 15.94 123.994 18.42 122.994 21.34C121.974 24.26 120.474 26.18 119.254 25.86ZM136.536 29C136.536 29 136.516 28 136.316 24.76C136.156 21.86 135.636 19.54 134.716 17.86C135.696 17.54 136.756 17.3 137.936 17.3C138.976 17.3 140.136 17.5 141.416 17.98L141.296 15.14C141.296 15.14 139.476 14.68 137.556 14.68C137.236 14.68 136.896 14.68 136.576 14.72C136.076 15.28 135.356 16.28 134.316 17.18C133.156 15.44 131.496 14.54 129.316 14.54C127.576 14.54 126.616 15.76 126.616 16.96C126.616 18.22 127.656 19.46 129.976 19.28C131.156 19.18 132.316 18.72 133.556 18.26C133.716 19.12 133.776 20.18 133.776 21.42C133.776 23.42 133.596 25.94 133.236 29H136.536ZM130.276 18.98C129.676 19.04 129.416 18.48 129.416 17.78C129.416 16.56 130.196 14.88 131.336 15.12C132.416 15.36 133.096 16.22 133.476 17.82C132.596 18.4 131.556 18.86 130.276 18.98Z" fill="#201F1E"/>
</svg>
