<svg width="154" height="44" viewBox="0 0 154 44" fill="none" xmlns="http://www.w3.org/2000/svg">
<rect width="154" height="44" rx="22" fill="#92FF00"/>
<path d="M12.3491 29H18.8381V28.727L16.1081 28.517L16.1291 27.677V14.636H16.6331C19.5101 14.636 22.6181 16.148 22.6181 19.718C22.6181 21.146 22.0931 22.469 21.1061 23.393L18.4181 18.479L18.1451 18.605L20.5391 23.834C19.7621 24.338 18.7961 24.653 17.6411 24.653H17.1791V24.989H17.8511C18.9851 24.989 19.9931 24.821 20.8541 24.506L22.7441 28.622L21.6311 28.706V29H26.3561V28.706C26.3561 28.706 25.1381 28.664 24.7601 28.517C24.3401 28.349 24.0461 28.118 23.6681 27.698C23.3111 27.278 22.5971 26.123 22.5551 26.06L21.5471 24.212C23.3951 23.288 24.3821 21.608 24.3821 19.739C24.3821 16.631 21.9671 14.3 16.6331 14.3H12.3491V14.594C12.3491 14.594 13.3151 14.615 13.5881 14.699C14.0711 14.825 14.2391 15.119 14.3021 15.518C14.3651 15.791 14.3651 16.295 14.3651 16.694V26.249C14.3651 26.795 14.3651 27.509 14.3021 27.782C14.2391 28.181 14.0711 28.475 13.5881 28.601C13.3151 28.685 12.3491 28.706 12.3491 28.706V29ZM37.5481 28.706V29H43.5751V28.706C43.5751 28.706 42.8191 28.685 42.3361 28.58C41.1601 28.349 40.6561 27.068 40.2781 26.081L35.8681 14.3H29.6311V14.594C29.6311 14.594 32.7811 14.72 33.0751 14.72C33.7891 14.762 33.8521 15.245 33.7261 15.602C33.4951 16.211 33.1381 17.009 32.9491 17.387L29.7361 24.002L28.7071 26.165C28.6441 26.27 28.1191 27.236 27.7831 27.698C27.4471 28.139 27.0901 28.391 26.6281 28.538C26.2291 28.664 25.0951 28.706 25.0951 28.706V29H32.4031V28.706L27.9091 28.517L29.9881 24.254L36.3301 20.579L39.3121 28.559L37.5481 28.706ZM30.2401 23.708L34.3351 15.287L36.2041 20.264L30.2401 23.708ZM45.797 14.552L44.852 22.091L45.146 22.133C45.146 22.133 45.902 17.345 46.049 16.295C46.196 15.203 46.217 14.93 46.994 14.804C47.813 14.678 50.501 14.636 50.501 14.636H53.294L46.322 25.787C46.259 25.871 45.293 27.404 45.041 27.698C44.327 28.538 43.571 28.706 42.521 28.706V29H55.625L55.562 30.827H55.856L56.066 28.748L57.011 21.209L56.717 21.167C56.717 21.167 55.961 25.955 55.814 27.005C55.667 28.097 55.646 28.37 54.869 28.496C54.05 28.622 51.362 28.664 51.362 28.664H46.595L53.567 17.513C53.63 17.429 54.596 15.896 54.848 15.602C55.562 14.762 56.087 14.741 56.591 14.678C57.074 14.615 57.788 14.594 57.788 14.594V14.3H46.238L46.301 12.473H46.007L45.797 14.552ZM57.9995 21.629C57.9995 25.178 60.4985 29.168 64.7405 29.168C68.1635 29.168 70.7675 26.06 70.7675 21.629C70.7675 18.017 68.1425 14.132 63.7745 14.132C60.3725 14.132 57.9995 17.051 57.9995 21.629ZM69.6125 23.813C69.6125 26.249 68.4365 28.286 65.7695 28.286C61.6115 28.286 59.1755 23.288 59.1755 19.214C59.1755 16.883 60.1835 15.014 62.6825 15.014C67.1345 15.014 69.6125 20.012 69.6125 23.813ZM70.9859 21.629C70.9859 25.178 73.4849 29.168 77.7269 29.168C81.1499 29.168 83.7539 26.06 83.7539 21.629C83.7539 18.017 81.1289 14.132 76.7609 14.132C73.3589 14.132 70.9859 17.051 70.9859 21.629ZM82.5989 23.813C82.5989 26.249 81.4229 28.286 78.7559 28.286C74.5979 28.286 72.1619 23.288 72.1619 19.214C72.1619 16.883 73.1699 15.014 75.6689 15.014C80.1209 15.014 82.5989 20.012 82.5989 23.813ZM92.5402 28.706V29H98.3782V28.706C98.3782 28.706 97.4122 28.685 97.1392 28.601C96.6562 28.475 96.4882 28.181 96.4252 27.782C96.3622 27.509 96.3622 27.005 96.3622 26.606V17.051C96.3622 16.505 96.3622 15.791 96.4252 15.518C96.4882 15.119 96.6562 14.825 97.1392 14.699C97.4122 14.615 98.3782 14.594 98.3782 14.594V14.3H94.5982L91.4692 25.766L87.9832 14.3H83.9722V14.594C83.9722 14.594 84.9382 14.615 85.2112 14.699C85.6942 14.825 85.8622 15.119 85.9252 15.518C85.9882 15.791 85.9882 16.505 85.9882 17.051V26.606C85.9882 27.005 85.9882 27.509 85.9252 27.782C85.8622 28.181 85.6942 28.475 85.2112 28.601C84.9382 28.685 83.9722 28.706 83.9722 28.706V29H88.5712V28.706L86.3242 28.517V14.867L90.5872 29H90.9232L94.5982 15.602V28.538L92.5402 28.706ZM99.0094 28.349C99.0094 28.874 99.3664 29.231 99.8914 29.231C100.416 29.231 100.773 28.874 100.773 28.349C100.773 27.824 100.416 27.467 99.8914 27.467C99.3664 27.467 99.0094 27.824 99.0094 28.349ZM109.531 28.706V29H115.39V28.706C115.39 28.706 114.424 28.685 114.151 28.601C113.647 28.475 113.5 28.181 113.416 27.782C113.374 27.509 113.374 27.005 113.353 26.606V16.694C113.374 16.295 113.374 15.791 113.416 15.518C113.5 15.119 113.647 14.825 114.151 14.699C114.424 14.615 115.39 14.594 115.39 14.594V14.3H105.94V14.594C105.94 14.594 109.972 14.657 110.266 14.678C110.77 14.699 110.917 14.951 110.917 15.245C110.917 15.35 110.896 15.476 110.854 15.581C110.602 16.211 110.203 16.925 110.035 17.219L110.098 17.093L105.268 25.976C104.638 27.215 103.609 28.517 102.139 28.664C101.929 28.685 101.677 28.706 101.404 28.706V29H106.15V28.706L104.239 28.559L106.465 24.506H111.589V28.538L109.531 28.706ZM106.654 24.17L111.589 15.098V24.17H106.654ZM126.426 26.459L123.675 21.377C125.691 20.873 127.056 19.655 127.056 17.996C127.056 16.757 126.006 14.3 120.315 14.3H115.8V14.594C115.8 14.594 116.766 14.615 117.039 14.699C117.522 14.825 117.69 15.119 117.753 15.518C117.816 15.791 117.816 16.295 117.816 16.694V26.249C117.816 26.795 117.816 27.509 117.753 27.782C117.69 28.181 117.522 28.475 117.039 28.601C116.766 28.685 115.8 28.706 115.8 28.706V29H122.289V28.727L119.559 28.517L119.58 27.677V14.636H120.294C123.171 14.636 125.292 15.707 125.292 18.038C125.292 19.949 123.78 21.293 121.533 21.293H120.966V21.629H121.512C122.079 21.629 122.625 21.587 123.129 21.503L126.405 28.622L125.292 28.706V29H130.017V28.706C130.017 28.706 128.799 28.664 128.421 28.517C128.001 28.349 127.707 28.118 127.329 27.698C126.972 27.278 126.216 26.06 126.216 26.06L126.426 26.459ZM129.087 14.321L129.15 12.494H128.856L128.625 14.573L127.701 22.112L127.995 22.154C127.995 22.154 128.352 19.928 128.499 18.878C128.94 15.728 129.57 14.72 131.796 14.678C132.237 14.678 133.014 14.657 133.014 14.657H134.106V26.711C134.106 27.068 134.064 27.593 134.022 27.845C133.959 28.223 133.833 28.496 133.329 28.643C133.077 28.706 132.153 28.727 132.153 28.727V29H137.781V28.706L135.87 28.559V14.636H136.962C136.962 14.636 137.739 14.657 138.18 14.657C140.406 14.699 141.036 15.707 141.477 18.857C141.624 19.907 141.981 22.133 141.981 22.133L142.275 22.091L141.351 14.552L141.12 12.473H140.826L140.889 14.3H134.106L129.087 14.321Z" fill="#201F1E"/>
</svg>
