<svg width="154" height="44" viewBox="0 0 154 44" fill="none" xmlns="http://www.w3.org/2000/svg">
<rect width="154" height="44" rx="22" fill="#92FF00"/>
<path d="M20.147 24.0156C20.0611 23.8294 19.9895 23.679 19.9322 23.5645C19.8892 23.4499 19.8677 23.3138 19.8677 23.1562C19.8677 23.0273 19.882 22.9128 19.9107 22.8125C19.9537 22.6979 19.9751 22.5762 19.9751 22.4473C19.9751 22.1322 19.9608 21.8385 19.9322 21.5664C19.9178 21.2943 19.8964 20.9935 19.8677 20.6641C19.8534 20.6211 19.8033 20.5853 19.7173 20.5566C19.6314 20.528 19.5383 20.4922 19.438 20.4492C19.3378 20.3919 19.2447 20.3132 19.1587 20.2129C19.0871 20.1126 19.0513 19.9694 19.0513 19.7832C19.0513 19.6113 19.0871 19.4681 19.1587 19.3535C19.2447 19.2246 19.3306 19.11 19.4165 19.0098C19.5025 18.8952 19.5813 18.7806 19.6529 18.666C19.7388 18.5371 19.7818 18.3867 19.7818 18.2148C19.7818 18.1432 19.7746 18.0143 19.7603 17.8281C19.746 17.6276 19.7316 17.4199 19.7173 17.2051C19.7173 16.9902 19.7102 16.7897 19.6958 16.6035C19.6958 16.403 19.6958 16.2669 19.6958 16.1953V16.1523V16.1094C19.7531 15.9805 19.7961 15.873 19.8247 15.7871C19.8677 15.7012 19.9107 15.6367 19.9537 15.5938C19.9966 15.5508 20.0539 15.5221 20.1255 15.5078C20.1971 15.4792 20.2902 15.4648 20.4048 15.4648C20.7056 15.4648 20.9276 15.5221 21.0708 15.6367C21.2141 15.7513 21.3143 15.8874 21.3716 16.0449C21.4289 16.1882 21.4647 16.3242 21.479 16.4531C21.4934 16.582 21.5292 16.6536 21.5865 16.668L23.1333 15.3145H23.2193C23.7206 14.985 24.2505 14.7344 24.8091 14.5625C25.3677 14.3763 25.955 14.2832 26.5708 14.2832C26.757 14.2832 26.979 14.3047 27.2369 14.3477C27.509 14.3906 27.7596 14.4694 27.9888 14.584C28.2323 14.6842 28.4328 14.8203 28.5904 14.9922C28.7622 15.1641 28.8482 15.3789 28.8482 15.6367C28.8482 15.9232 28.8124 16.2168 28.7408 16.5176C28.6691 16.8184 28.5689 17.1191 28.44 17.4199C28.3254 17.7064 28.1822 17.9857 28.0103 18.2578C27.8527 18.5156 27.6809 18.7376 27.4947 18.9238C27.4231 19.0814 26.9647 19.4824 26.1197 20.127C25.2746 20.7715 24.0142 21.7311 22.3384 23.0059L32.6509 23.6504C32.7941 23.6647 32.9875 23.679 33.231 23.6934C33.4888 23.6934 33.7323 23.7148 33.9615 23.7578C34.205 23.8008 34.4126 23.8867 34.5845 24.0156C34.7564 24.1302 34.8423 24.3092 34.8423 24.5527C34.8423 24.6816 34.8208 24.7891 34.7779 24.875C34.7492 24.9466 34.7063 25.0111 34.649 25.0684C34.606 25.1113 34.5487 25.1543 34.4771 25.1973C34.4198 25.2402 34.3625 25.2975 34.3052 25.3691H33.94H33.5747C33.2883 25.3405 32.9875 25.3047 32.6724 25.2617C32.3716 25.2188 32.0135 25.1686 31.5982 25.1113C31.1971 25.054 30.7245 24.9967 30.1802 24.9395C29.6359 24.8822 28.9843 24.832 28.2251 24.7891C27.466 24.7461 26.578 24.7103 25.5611 24.6816C24.5585 24.653 23.3912 24.6387 22.0591 24.6387C22.0448 24.6387 22.0233 24.6602 21.9947 24.7031C21.9803 24.7461 21.9732 24.7819 21.9732 24.8105C21.9732 25.3548 22.0162 25.8919 22.1021 26.4219C22.2023 26.9375 22.2525 27.4531 22.2525 27.9688C22.2525 28.069 22.2382 28.1836 22.2095 28.3125C22.1952 28.4271 22.1594 28.5417 22.1021 28.6562C22.0448 28.7565 21.9732 28.8424 21.8872 28.9141C21.8013 28.9857 21.6939 29.0215 21.565 29.0215C21.479 29.0215 21.3788 29.0072 21.2642 28.9785C21.1496 28.9355 21.035 28.8783 20.9204 28.8066C20.8202 28.735 20.7271 28.6562 20.6412 28.5703C20.5552 28.4844 20.5051 28.3841 20.4908 28.2695L20.147 24.0156ZM21.5865 19.2676C21.5865 19.6257 21.5936 19.9622 21.6079 20.2773C21.6223 20.5924 21.6438 20.9362 21.6724 21.3086H21.7369C21.7512 21.3086 21.787 21.2943 21.8443 21.2656C21.9016 21.237 22.0448 21.151 22.274 21.0078C22.5031 20.8503 22.854 20.6139 23.3267 20.2988C23.7994 19.9694 24.4654 19.5111 25.3247 18.9238C25.4966 18.8236 25.6828 18.6517 25.8833 18.4082C26.0839 18.1647 26.2701 17.8997 26.4419 17.6133C26.6138 17.3268 26.757 17.0475 26.8716 16.7754C26.9862 16.4889 27.0435 16.2526 27.0435 16.0664C27.0435 15.9232 26.9719 15.8516 26.8287 15.8516C26.6997 15.8516 26.5852 15.8516 26.4849 15.8516C26.2701 15.8516 26.0266 15.8874 25.7544 15.959C25.4823 16.0306 25.1529 16.1738 24.7662 16.3887C24.3938 16.6035 23.9426 16.9115 23.4126 17.3125C22.897 17.7135 22.2883 18.2507 21.5865 18.9238V19.2676ZM40.5142 23.0059C40.3853 23.235 40.2349 23.5143 40.063 23.8438C39.9055 24.1589 39.7336 24.5026 39.5474 24.875C39.3612 25.2331 39.1535 25.5983 38.9244 25.9707C38.7095 26.3288 38.4803 26.6582 38.2369 26.959C38.0077 27.2598 37.7642 27.5176 37.5064 27.7324C37.2486 27.9329 36.9836 28.0547 36.7115 28.0977C36.5969 28.0977 36.468 28.0905 36.3247 28.0762C36.1815 28.0475 36.0383 28.0117 35.8951 27.9688C35.7518 27.9115 35.6301 27.8398 35.5298 27.7539C35.4439 27.6536 35.4009 27.5247 35.4009 27.3672C35.4152 25.9062 35.5227 24.5814 35.7232 23.3926C35.9237 22.1895 36.2388 21.1367 36.6685 20.2344C37.0982 19.3177 37.6496 18.5586 38.3228 17.957C38.996 17.3555 39.8124 16.9258 40.772 16.668C40.8007 16.668 40.8508 16.668 40.9224 16.668C41.0083 16.6536 41.0656 16.6465 41.0943 16.6465C41.524 16.6322 41.8319 16.8327 42.0181 17.248C42.2186 17.6491 42.3619 18.2936 42.4478 19.1816C42.5481 20.0553 42.6125 21.1868 42.6412 22.5762C42.6841 23.9512 42.7629 25.6055 42.8775 27.5391C42.9204 27.6966 42.9419 27.8327 42.9419 27.9473C42.9563 28.0618 42.9634 28.1979 42.9634 28.3555C42.9634 28.5703 42.899 28.735 42.7701 28.8496C42.6412 28.9499 42.4764 29 42.2759 29C41.8606 29 41.5669 28.8854 41.3951 28.6562C41.2232 28.4271 41.1086 28.1191 41.0513 27.7324C41.0513 27.7181 41.037 27.6035 41.0083 27.3887C40.994 27.1738 40.9654 26.9303 40.9224 26.6582C40.8938 26.3717 40.8651 26.0853 40.8365 25.7988C40.8078 25.5124 40.7863 25.276 40.772 25.0898V25.0039C40.7434 24.8607 40.7219 24.6816 40.7076 24.4668C40.7076 24.252 40.6932 24.0443 40.6646 23.8438C40.6359 23.6003 40.6145 23.3568 40.6001 23.1133L40.5142 23.0059ZM40.0415 18.752C39.6548 19.0384 39.2753 19.4251 38.9029 19.9121C38.5305 20.3991 38.2655 20.8717 38.1079 21.3301C38.0363 21.5449 37.9576 21.8385 37.8716 22.2109C37.7857 22.5833 37.7069 22.9557 37.6353 23.3281C37.578 23.6862 37.5279 24.0228 37.4849 24.3379C37.4419 24.6387 37.4204 24.832 37.4204 24.918C37.4348 24.918 37.4491 24.9036 37.4634 24.875C37.4921 24.8464 37.5135 24.8249 37.5279 24.8105C38.4159 23.9512 39.0389 23.0273 39.397 22.0391C39.7694 21.0365 39.9843 19.9408 40.0415 18.752ZM46.272 28.1406C46.272 28.112 46.272 28.069 46.272 28.0117C46.2863 27.9544 46.3007 27.9186 46.315 27.9043L49.3872 22.082C49.4302 21.9818 49.4803 21.8457 49.5376 21.6738C49.6093 21.4876 49.6737 21.3086 49.731 21.1367C49.7883 20.9505 49.8384 20.7858 49.8814 20.6426C49.9244 20.4993 49.9458 20.4134 49.9458 20.3848V20.1484C49.4732 20.1484 48.9576 20.263 48.399 20.4922C47.8404 20.707 47.2889 20.8932 46.7447 21.0508C46.2004 21.2083 45.6919 21.2513 45.2193 21.1797C44.7466 21.0938 44.3599 20.75 44.0591 20.1484C44.0591 19.9766 44.1594 19.8405 44.3599 19.7402C44.5604 19.6257 44.7251 19.5684 44.854 19.5684C44.8827 19.5684 44.9686 19.5827 45.1119 19.6113C45.2694 19.64 45.3625 19.6543 45.3912 19.6543C45.8065 19.6113 46.2219 19.5254 46.6372 19.3965C47.0526 19.2676 47.4608 19.1387 47.8619 19.0098C48.2772 18.8809 48.6854 18.7734 49.0865 18.6875C49.5018 18.5872 49.91 18.5514 50.3111 18.5801C50.4829 18.5801 50.6691 18.5872 50.8697 18.6016C51.0845 18.6016 51.2779 18.6302 51.4497 18.6875C51.6359 18.7305 51.7935 18.8164 51.9224 18.9453C52.0513 19.0742 52.1158 19.2533 52.1158 19.4824C52.1158 19.6829 52.08 19.8906 52.0083 20.1055C51.951 20.3203 51.8651 20.5065 51.7505 20.6641L49.2154 26.5508V26.7441L50.7622 26.0137H50.8482L57.8521 23.8223H58.1958C58.3104 23.8223 58.4393 23.8366 58.5826 23.8652C58.7401 23.8796 58.8833 23.9154 59.0122 23.9727C59.1412 24.0156 59.2486 24.0872 59.3345 24.1875C59.4204 24.2878 59.4634 24.4167 59.4634 24.5742C59.4921 24.7604 59.3775 24.9251 59.1197 25.0684C58.8619 25.2116 58.4966 25.3548 58.024 25.498C57.5513 25.627 56.9856 25.7702 56.3267 25.9277C55.6822 26.071 54.9803 26.2572 54.2212 26.4863C53.4621 26.7012 52.66 26.9661 51.815 27.2812C50.9843 27.5964 50.1464 27.9831 49.3013 28.4414C49.2583 28.4271 49.1509 28.4486 48.979 28.5059C48.8072 28.5632 48.6138 28.6348 48.399 28.7207C48.1984 28.7923 47.9979 28.8639 47.7974 28.9355C47.6112 28.9928 47.4751 29.0215 47.3892 29.0215C47.16 29.0215 46.9165 28.9427 46.6587 28.7852C46.4009 28.6133 46.272 28.3984 46.272 28.1406ZM60.4537 24.1055C60.4537 23.0117 60.5175 21.918 60.6451 20.8242C60.7727 19.7122 60.9003 18.6276 61.0279 17.5703C61.0279 17.4245 61.0643 17.3151 61.1372 17.2422C61.2102 17.1693 61.2831 17.0872 61.356 16.9961C61.356 16.9779 61.3742 16.9414 61.4107 16.8867C61.4471 16.832 61.4654 16.7956 61.4654 16.7773C61.7388 16.1211 62.1854 15.5742 62.8052 15.1367C63.425 14.681 64.0904 14.4531 64.8013 14.4531C65.2023 14.4531 65.5396 14.5078 65.813 14.6172C66.0865 14.7083 66.3234 14.8542 66.524 15.0547C66.7245 15.237 66.9068 15.4648 67.0708 15.7383C67.2349 15.9935 67.4172 16.2852 67.6177 16.6133C67.7635 16.9414 67.882 17.3151 67.9732 17.7344C68.0643 18.1536 68.1281 18.582 68.1646 19.0195C68.2193 19.457 68.2557 19.8945 68.274 20.332C68.2922 20.7513 68.3013 21.1432 68.3013 21.5078C68.2648 22.1094 68.1919 22.7474 68.0826 23.4219C67.9914 24.0781 67.8365 24.7253 67.6177 25.3633C67.399 25.9831 67.0982 26.5573 66.7154 27.0859C66.3508 27.6146 65.8768 28.0521 65.2935 28.3984C65.0565 28.5443 64.7922 28.681 64.5005 28.8086C64.2271 28.9362 63.9537 29 63.6802 29C63.0422 29 62.5135 28.8451 62.0943 28.5352C61.6932 28.207 61.3651 27.7969 61.1099 27.3047C60.8729 26.8125 60.6997 26.2839 60.5904 25.7188C60.4992 25.1354 60.4537 24.5977 60.4537 24.1055ZM62.5044 25.1992C62.5227 25.3268 62.55 25.4909 62.5865 25.6914C62.6412 25.8919 62.705 26.0924 62.7779 26.293C62.869 26.4935 62.9784 26.6667 63.106 26.8125C63.2336 26.9583 63.3977 27.0312 63.5982 27.0312C63.744 27.0312 63.8807 26.9948 64.0083 26.9219C64.1542 26.849 64.2727 26.776 64.3638 26.7031C64.8378 26.3385 65.2115 25.901 65.4849 25.3906C65.7766 24.8802 65.9953 24.3424 66.1412 23.7773C66.287 23.194 66.3781 22.6107 66.4146 22.0273C66.451 21.4258 66.4693 20.8516 66.4693 20.3047C66.4693 20.2318 66.4693 20.1133 66.4693 19.9492C66.4693 19.7852 66.4602 19.6211 66.4419 19.457C66.4419 19.2747 66.4419 19.1016 66.4419 18.9375C66.4419 18.7734 66.4419 18.6641 66.4419 18.6094C66.4237 18.4089 66.3781 18.1445 66.3052 17.8164C66.2323 17.4701 66.132 17.1419 66.0044 16.832C65.8768 16.5039 65.7037 16.2214 65.4849 15.9844C65.2844 15.7474 65.0383 15.6289 64.7466 15.6289C64.5826 15.6289 64.3912 15.6836 64.1724 15.793C63.9537 15.8841 63.744 16.0026 63.5435 16.1484C63.3612 16.2943 63.1971 16.4674 63.0513 16.668C62.9237 16.8503 62.8599 17.0326 62.8599 17.2148C62.8599 17.3607 62.8964 17.4792 62.9693 17.5703C63.0604 17.6615 63.106 17.7982 63.106 17.9805V18.2812C63.0878 18.3359 63.0513 18.5 62.9966 18.7734C62.9602 19.0286 62.9146 19.3021 62.8599 19.5938C62.8052 19.8854 62.7505 20.168 62.6958 20.4414C62.6594 20.6966 62.632 20.8516 62.6138 20.9062C62.5409 21.362 62.4953 21.8268 62.4771 22.3008C62.4771 22.7747 62.4771 23.2305 62.4771 23.668C62.4771 23.7227 62.4771 23.8229 62.4771 23.9688C62.4771 24.1146 62.4771 24.2695 62.4771 24.4336C62.4953 24.5977 62.5044 24.7526 62.5044 24.8984C62.5044 25.0443 62.5044 25.1445 62.5044 25.1992ZM70.9429 25.1973C70.9572 25.1113 70.9572 24.8822 70.9429 24.5098C70.9285 24.1374 70.9214 23.679 70.9214 23.1348C70.9357 22.5762 70.95 21.9674 70.9644 21.3086C70.993 20.6497 71.0431 19.9837 71.1147 19.3105C71.2007 18.6374 71.3153 17.9928 71.4585 17.377C71.616 16.7467 71.8166 16.2025 72.0601 15.7441C72.146 15.3574 72.3537 15.0924 72.6831 14.9492C73.0125 14.7917 73.478 14.6986 74.0796 14.6699C74.4663 14.6699 74.7957 14.7702 75.0679 14.9707C75.34 15.1712 75.5692 15.4219 75.7554 15.7227C75.9559 16.0091 76.1278 16.3242 76.271 16.668C76.4142 17.0117 76.5431 17.3197 76.6577 17.5918V17.6992C76.758 17.9857 76.8296 18.4154 76.8726 18.9883C76.9299 19.5469 76.9657 20.1413 76.98 20.7715C77.0086 21.3874 77.0229 21.9818 77.0229 22.5547C77.0229 23.1276 77.0229 23.5645 77.0229 23.8652C77.0229 24.2949 76.9657 24.8105 76.8511 25.4121C76.7365 25.9993 76.5503 26.5579 76.2925 27.0879C76.049 27.6178 75.7267 28.069 75.3257 28.4414C74.9246 28.8138 74.4448 29 73.8862 29C73.4136 29 72.991 28.8783 72.6187 28.6348C72.2606 28.3913 71.9526 28.0833 71.6948 27.7109C71.4513 27.3242 71.2651 26.9089 71.1362 26.4648C71.0073 26.0208 70.9429 25.5983 70.9429 25.1973ZM73.0269 26.6367C73.0555 26.7943 73.1343 26.959 73.2632 27.1309C73.4064 27.2884 73.5711 27.3672 73.7573 27.3672H73.9292C74.5308 26.8229 74.9246 26.1999 75.1108 25.498C75.297 24.7819 75.3901 24.0299 75.3901 23.2422C75.3901 23.056 75.383 22.7695 75.3687 22.3828C75.3543 21.9961 75.3257 21.5664 75.2827 21.0938C75.2541 20.6068 75.2111 20.0983 75.1538 19.5684C75.0965 19.0384 75.0249 18.5443 74.939 18.0859C74.853 17.6133 74.7528 17.2051 74.6382 16.8613C74.5236 16.5176 74.3875 16.2812 74.23 16.1523C74.2157 16.1667 74.1942 16.1953 74.1655 16.2383C74.1512 16.2812 74.144 16.3099 74.144 16.3242C73.8433 16.6966 73.5711 17.2051 73.3276 17.8496C73.0841 18.4941 72.8979 19.2604 72.769 20.1484C72.6545 21.0221 72.6043 22.0104 72.6187 23.1133C72.6473 24.2018 72.7834 25.3763 73.0269 26.6367ZM79.2805 28.3555C79.2519 26.7656 79.2089 25.1829 79.1516 23.6074C79.1087 22.0176 79.0872 20.4277 79.0872 18.8379C79.0872 18.7233 79.0872 18.5228 79.0872 18.2363C79.0872 17.9355 79.0872 17.6204 79.0872 17.291C79.1015 16.9616 79.1087 16.6536 79.1087 16.3672C79.1087 16.0807 79.1087 15.8802 79.1087 15.7656C79.1659 15.5365 79.2519 15.3574 79.3665 15.2285C79.481 15.0853 79.6601 15.0137 79.9036 15.0137C80.1471 15.0137 80.3619 15.0924 80.5481 15.25C80.7343 15.3932 80.8847 15.5651 80.9993 15.7656L84.093 21.7383C84.1073 21.7669 84.1575 21.8529 84.2434 21.9961C84.3294 22.1393 84.3938 22.2396 84.4368 22.2969C84.4511 22.3112 84.4726 22.3255 84.5012 22.3398C84.5299 22.3542 84.5442 22.3685 84.5442 22.3828L84.6301 22.1895L86.4563 15.7656C86.5852 15.5651 86.6783 15.3431 86.7356 15.0996C86.8072 14.8418 86.8788 14.5911 86.9504 14.3477C87.0364 14.1042 87.1366 13.875 87.2512 13.6602C87.3801 13.4453 87.5663 13.2663 87.8098 13.123H87.9817C88.3684 13.123 88.6549 13.2376 88.8411 13.4668C89.0273 13.6816 89.1562 13.9538 89.2278 14.2832C89.2994 14.5983 89.3281 14.9349 89.3137 15.293C89.3137 15.6367 89.3209 15.9375 89.3352 16.1953C89.3352 16.2956 89.3424 16.4889 89.3567 16.7754C89.3853 17.0618 89.414 17.3984 89.4426 17.7852C89.4713 18.1719 89.4999 18.5872 89.5286 19.0312C89.5572 19.4609 89.5787 19.8691 89.593 20.2559C89.6217 20.6426 89.6432 20.9792 89.6575 21.2656C89.6861 21.5521 89.7004 21.7383 89.7004 21.8242V21.9102C89.7148 22.0391 89.7434 22.2539 89.7864 22.5547C89.8294 22.8555 89.8723 23.1777 89.9153 23.5215C89.9726 23.8509 90.0227 24.166 90.0657 24.4668C90.1087 24.7676 90.1445 24.9753 90.1731 25.0898C90.1874 25.1615 90.2089 25.2689 90.2376 25.4121C90.2805 25.5553 90.3235 25.7129 90.3665 25.8848C90.4238 26.0423 90.4739 26.1927 90.5169 26.3359C90.5598 26.4792 90.5956 26.5794 90.6243 26.6367C90.567 26.9661 90.481 27.224 90.3665 27.4102C90.2662 27.582 90.037 27.668 89.679 27.668C89.636 27.668 89.5715 27.668 89.4856 27.668C89.3997 27.6536 89.3495 27.6465 89.3352 27.6465C89.2922 27.6178 89.2063 27.5462 89.0774 27.4316C88.9628 27.3171 88.8984 27.2383 88.884 27.1953L88.5403 26.0137L87.8958 21.1152V20.9219C87.8814 20.6641 87.8743 20.3919 87.8743 20.1055C87.8743 19.8047 87.8671 19.5039 87.8528 19.2031C87.8528 18.9023 87.8385 18.6016 87.8098 18.3008C87.7812 18 87.7239 17.7207 87.6379 17.4629L87.5305 17.5918L85.9837 23.8223C85.9693 23.9798 85.955 24.1517 85.9407 24.3379C85.9264 24.5098 85.8906 24.6816 85.8333 24.8535C85.776 25.0111 85.69 25.1471 85.5754 25.2617C85.4609 25.3763 85.2962 25.4408 85.0813 25.4551C84.9954 25.4694 84.9023 25.4551 84.802 25.4121C84.7017 25.3691 84.6015 25.3118 84.5012 25.2402C84.401 25.1686 84.3079 25.0898 84.2219 25.0039C84.1503 24.9036 84.1073 24.8105 84.093 24.7246L81.3645 20.3848L80.9133 19.4824V21.3301C80.9133 22.2038 80.9277 23.0632 80.9563 23.9082C80.9993 24.7389 81.0208 25.5911 81.0208 26.4648C81.0208 26.5365 81.0208 26.6654 81.0208 26.8516C81.0208 27.0234 81.0136 27.2096 80.9993 27.4102C80.9993 27.6107 80.9993 27.804 80.9993 27.9902C80.9993 28.1621 80.9993 28.2839 80.9993 28.3555C80.942 28.5273 80.856 28.6777 80.7415 28.8066C80.6412 28.9355 80.4908 29 80.2903 29C80.0182 29 79.8033 28.957 79.6458 28.8711C79.5025 28.7708 79.3808 28.599 79.2805 28.3555ZM93.1474 27.7754C93.1474 27.4746 93.2548 27.1953 93.4697 26.9375C93.706 26.6797 93.9745 26.5508 94.2753 26.5508C94.6406 26.5508 94.9306 26.6475 95.1454 26.8408C95.3818 27.0342 95.6074 27.249 95.8222 27.4854V27.582C95.8222 27.9473 95.6933 28.2803 95.4355 28.5811C95.1992 28.8604 94.8769 29 94.4687 29C94.1894 29 93.8994 28.8711 93.5986 28.6133C93.2978 28.3555 93.1474 28.0762 93.1474 27.7754ZM99.1128 27.6465C99.1128 26.7871 99.17 25.9349 99.2846 25.0898C99.3992 24.2448 99.4995 23.3997 99.5854 22.5547C99.5854 22.5117 99.5926 22.4186 99.6069 22.2754C99.6212 22.1178 99.6355 21.9531 99.6499 21.7812C99.6785 21.6094 99.7 21.4518 99.7143 21.3086C99.743 21.151 99.7573 21.0508 99.7573 21.0078V20.9219L100.66 14.2188C100.631 13.9323 100.674 13.6816 100.789 13.4668C100.917 13.2376 101.147 13.123 101.476 13.123C101.834 13.0801 102.128 13.1302 102.357 13.2734C102.6 13.4023 102.801 13.5742 102.958 13.7891C103.116 14.0039 103.245 14.2402 103.345 14.498C103.445 14.7559 103.553 14.9922 103.667 15.207C103.739 15.4076 103.825 15.6439 103.925 15.916C104.04 16.1882 104.169 16.5319 104.312 16.9473C104.47 17.3626 104.649 17.8711 104.849 18.4727C105.064 19.0742 105.307 19.8047 105.58 20.6641L105.665 20.75C105.766 20.6927 105.952 20.5996 106.224 20.4707C106.511 20.3418 106.804 20.2057 107.105 20.0625C107.42 19.9193 107.714 19.7832 107.986 19.6543C108.258 19.5254 108.451 19.4395 108.566 19.3965C108.58 19.3678 108.616 19.3464 108.673 19.332C108.745 19.3034 108.795 19.2819 108.824 19.2676H108.867C109.01 19.2676 109.117 19.3249 109.189 19.4395C109.261 19.5397 109.296 19.64 109.296 19.7402C109.296 19.8978 109.261 20.0339 109.189 20.1484C109.117 20.263 109.031 20.3704 108.931 20.4707C108.845 20.5566 108.745 20.6426 108.63 20.7285C108.53 20.8145 108.451 20.9076 108.394 21.0078L106.267 22.082C106.21 22.1536 106.181 22.2109 106.181 22.2539C106.181 22.3685 106.238 22.5475 106.353 22.791C106.482 23.0345 106.582 23.2279 106.654 23.3711C106.697 23.457 106.768 23.6146 106.869 23.8438C106.969 24.0729 107.076 24.3092 107.191 24.5527C107.305 24.7962 107.413 25.0326 107.513 25.2617C107.628 25.4766 107.707 25.627 107.749 25.7129V25.7773C107.749 26.293 107.492 26.5508 106.976 26.5508C106.818 26.5508 106.654 26.5365 106.482 26.5078C106.31 26.4648 106.181 26.3574 106.095 26.1855L104.656 23.1133H104.462C103.918 23.5286 103.338 23.9368 102.722 24.3379C102.106 24.7389 101.476 25.0827 100.832 25.3691C100.731 25.8848 100.667 26.4076 100.638 26.9375C100.624 27.4674 100.631 27.9974 100.66 28.5273C100.545 28.6849 100.43 28.8066 100.316 28.8926C100.201 28.9642 100.044 29 99.8432 29C99.6427 29 99.4923 28.957 99.3921 28.8711C99.2918 28.7708 99.2202 28.6562 99.1772 28.5273C99.1342 28.3841 99.1128 28.2337 99.1128 28.0762C99.1128 27.9186 99.1128 27.7754 99.1128 27.6465ZM101.025 23.4785C101.455 23.3066 101.87 23.0775 102.271 22.791C102.686 22.5046 103.08 22.2396 103.453 21.9961C103.496 21.9674 103.546 21.9388 103.603 21.9102C103.675 21.8815 103.739 21.8457 103.796 21.8027C103.854 21.7598 103.925 21.7096 104.011 21.6523V21.4805L102.035 15.8516L101.949 15.7656C101.906 15.8516 101.848 16.0951 101.777 16.4961C101.72 16.8971 101.648 17.4199 101.562 18.0645C101.49 18.6947 101.404 19.4251 101.304 20.2559C101.218 21.0866 101.125 21.9746 101.025 22.9199V23.4785ZM111.144 24.0156C111.058 23.8294 110.986 23.679 110.929 23.5645C110.886 23.4499 110.865 23.3138 110.865 23.1562C110.865 23.0273 110.879 22.9128 110.908 22.8125C110.951 22.6979 110.972 22.5762 110.972 22.4473C110.972 22.1322 110.958 21.8385 110.929 21.5664C110.915 21.2943 110.893 20.9935 110.865 20.6641C110.85 20.6211 110.8 20.5853 110.714 20.5566C110.628 20.528 110.535 20.4922 110.435 20.4492C110.335 20.3919 110.242 20.3132 110.156 20.2129C110.084 20.1126 110.048 19.9694 110.048 19.7832C110.048 19.6113 110.084 19.4681 110.156 19.3535C110.242 19.2246 110.328 19.11 110.414 19.0098C110.499 18.8952 110.578 18.7806 110.65 18.666C110.736 18.5371 110.779 18.3867 110.779 18.2148C110.779 18.1432 110.772 18.0143 110.757 17.8281C110.743 17.6276 110.729 17.4199 110.714 17.2051C110.714 16.9902 110.707 16.7897 110.693 16.6035C110.693 16.403 110.693 16.2669 110.693 16.1953V16.1523V16.1094C110.75 15.9805 110.793 15.873 110.822 15.7871C110.865 15.7012 110.908 15.6367 110.951 15.5938C110.994 15.5508 111.051 15.5221 111.123 15.5078C111.194 15.4792 111.287 15.4648 111.402 15.4648C111.703 15.4648 111.925 15.5221 112.068 15.6367C112.211 15.7513 112.311 15.8874 112.369 16.0449C112.426 16.1882 112.462 16.3242 112.476 16.4531C112.49 16.582 112.526 16.6536 112.583 16.668L114.13 15.3145H114.216C114.718 14.985 115.248 14.7344 115.806 14.5625C116.365 14.3763 116.952 14.2832 117.568 14.2832C117.754 14.2832 117.976 14.3047 118.234 14.3477C118.506 14.3906 118.757 14.4694 118.986 14.584C119.229 14.6842 119.43 14.8203 119.587 14.9922C119.759 15.1641 119.845 15.3789 119.845 15.6367C119.845 15.9232 119.809 16.2168 119.738 16.5176C119.666 16.8184 119.566 17.1191 119.437 17.4199C119.322 17.7064 119.179 17.9857 119.007 18.2578C118.85 18.5156 118.678 18.7376 118.492 18.9238C118.42 19.0814 117.962 19.4824 117.117 20.127C116.272 20.7715 115.011 21.7311 113.335 23.0059L123.648 23.6504C123.791 23.6647 123.984 23.679 124.228 23.6934C124.486 23.6934 124.729 23.7148 124.958 23.7578C125.202 23.8008 125.41 23.8867 125.582 24.0156C125.753 24.1302 125.839 24.3092 125.839 24.5527C125.839 24.6816 125.818 24.7891 125.775 24.875C125.746 24.9466 125.703 25.0111 125.646 25.0684C125.603 25.1113 125.546 25.1543 125.474 25.1973C125.417 25.2402 125.359 25.2975 125.302 25.3691H124.937H124.572C124.285 25.3405 123.984 25.3047 123.669 25.2617C123.369 25.2188 123.011 25.1686 122.595 25.1113C122.194 25.054 121.721 24.9967 121.177 24.9395C120.633 24.8822 119.981 24.832 119.222 24.7891C118.463 24.7461 117.575 24.7103 116.558 24.6816C115.555 24.653 114.388 24.6387 113.056 24.6387C113.042 24.6387 113.02 24.6602 112.992 24.7031C112.977 24.7461 112.97 24.7819 112.97 24.8105C112.97 25.3548 113.013 25.8919 113.099 26.4219C113.199 26.9375 113.249 27.4531 113.249 27.9688C113.249 28.069 113.235 28.1836 113.207 28.3125C113.192 28.4271 113.156 28.5417 113.099 28.6562C113.042 28.7565 112.97 28.8424 112.884 28.9141C112.798 28.9857 112.691 29.0215 112.562 29.0215C112.476 29.0215 112.376 29.0072 112.261 28.9785C112.147 28.9355 112.032 28.8783 111.917 28.8066C111.817 28.735 111.724 28.6562 111.638 28.5703C111.552 28.4844 111.502 28.3841 111.488 28.2695L111.144 24.0156ZM112.583 19.2676C112.583 19.6257 112.591 19.9622 112.605 20.2773C112.619 20.5924 112.641 20.9362 112.669 21.3086H112.734C112.748 21.3086 112.784 21.2943 112.841 21.2656C112.899 21.237 113.042 21.151 113.271 21.0078C113.5 20.8503 113.851 20.6139 114.324 20.2988C114.796 19.9694 115.462 19.5111 116.322 18.9238C116.494 18.8236 116.68 18.6517 116.88 18.4082C117.081 18.1647 117.267 17.8997 117.439 17.6133C117.611 17.3268 117.754 17.0475 117.869 16.7754C117.983 16.4889 118.04 16.2526 118.04 16.0664C118.04 15.9232 117.969 15.8516 117.826 15.8516C117.697 15.8516 117.582 15.8516 117.482 15.8516C117.267 15.8516 117.024 15.8874 116.751 15.959C116.479 16.0306 116.15 16.1738 115.763 16.3887C115.391 16.6035 114.94 16.9115 114.41 17.3125C113.894 17.7135 113.285 18.2507 112.583 18.9238V19.2676ZM128.568 22.7266C128.367 22.7266 128.188 22.7767 128.031 22.877C127.873 22.9772 127.687 23.0273 127.472 23.0273C127.443 23.0273 127.365 23.0273 127.236 23.0273C127.121 23.013 127.05 23.0059 127.021 23.0059C126.964 22.9342 126.899 22.877 126.828 22.834C126.756 22.791 126.684 22.748 126.613 22.7051C126.541 22.6478 126.477 22.5833 126.419 22.5117C126.376 22.4401 126.355 22.3398 126.355 22.2109C126.355 21.9961 126.441 21.8242 126.613 21.6953C126.785 21.5521 126.985 21.4303 127.214 21.3301C127.443 21.2298 127.673 21.1367 127.902 21.0508C128.145 20.9648 128.339 20.8646 128.482 20.75V19.8047C128.482 18.7448 128.432 17.6849 128.332 16.625C128.231 15.5508 128.181 14.4909 128.181 13.4453C128.181 13.1589 128.253 12.9727 128.396 12.8867C128.539 12.8008 128.733 12.7578 128.976 12.7578C129.262 12.7578 129.47 12.8438 129.599 13.0156C129.742 13.1732 129.843 13.3737 129.9 13.6172C129.957 13.8464 129.986 14.097 129.986 14.3691C129.986 14.627 129.993 14.849 130.007 15.0352C130.007 15.2214 130.022 15.5508 130.05 16.0234C130.079 16.4961 130.108 16.9974 130.136 17.5273C130.165 18.0573 130.193 18.5586 130.222 19.0312C130.251 19.5039 130.272 19.8333 130.287 20.0195C130.344 20.0052 130.451 19.9694 130.609 19.9121C130.781 19.8405 130.96 19.776 131.146 19.7188C131.332 19.6471 131.504 19.5827 131.662 19.5254C131.833 19.4681 131.955 19.4251 132.027 19.3965C132.399 19.2389 132.786 19.0671 133.187 18.8809C133.588 18.6803 133.996 18.5801 134.412 18.5801C134.698 18.5801 134.913 18.6803 135.056 18.8809C135.214 19.0671 135.292 19.2891 135.292 19.5469C135.292 19.7331 135.221 19.8691 135.078 19.9551C134.934 20.041 134.784 20.1198 134.626 20.1914L130.716 21.6523C130.673 21.681 130.63 21.7096 130.587 21.7383C130.544 21.7526 130.501 21.7812 130.458 21.8242V22.5117C130.458 23.013 130.466 23.5358 130.48 24.0801C130.509 24.61 130.559 25.1257 130.63 25.627C130.702 26.0566 130.781 26.4792 130.867 26.8945C130.953 27.3099 130.996 27.7324 130.996 28.1621C130.996 28.291 130.953 28.4629 130.867 28.6777C130.781 28.8926 130.645 29 130.458 29C130.072 29 129.757 28.8854 129.513 28.6562C129.27 28.4271 129.134 28.1191 129.105 27.7324C129.033 26.9876 128.955 26.1712 128.869 25.2832C128.797 24.3952 128.725 23.543 128.654 22.7266H128.568Z" fill="#201F1E"/>
</svg>
