<svg width="154" height="44" viewBox="0 0 154 44" fill="none" xmlns="http://www.w3.org/2000/svg">
<rect width="154" height="44" rx="22" fill="#92FF00"/>
<path d="M132.659 17H130.833V22.984C130.833 25.184 129.667 26.68 127.995 26.68C127.577 26.68 126.917 26.592 126.345 26.35V28.044C126.675 28.22 127.203 28.33 127.709 28.33C128.941 28.33 130.173 27.626 130.679 26.614H130.877V28.11H132.659V17ZM121.135 16.648C119.353 16.648 118.055 17.352 117.263 18.628H117.065V17H115.239V24.37C115.239 26.9 117.065 28.528 119.947 28.528C122.741 28.528 124.567 27.032 124.567 24.678H122.719C122.741 26.064 121.641 26.878 119.969 26.878C118.143 26.878 117.065 25.91 117.065 24.414V23.974L120.145 23.6C123.445 23.226 125.117 21.774 125.117 19.816C125.117 17.902 123.533 16.648 121.135 16.648ZM120.871 18.166C122.367 18.166 123.291 18.804 123.291 19.86C123.291 20.894 122.411 21.774 120.145 22.06L117.065 22.412V21.422C117.065 19.552 118.605 18.166 120.871 18.166ZM113.067 17H103.035V18.65H110.053V18.87L103.255 27.318V28.11H112.847V26.46H106.225V26.262L113.067 17.792V17ZM95.2788 16.56C91.8028 16.56 89.3168 19.046 89.3168 22.566C89.3168 26.064 91.8028 28.55 95.2788 28.55C98.7768 28.55 101.241 26.064 101.241 22.566C101.241 19.046 98.7768 16.56 95.2788 16.56ZM95.2788 18.21C97.6988 18.21 99.4148 20.036 99.4148 22.566C99.4148 25.074 97.6988 26.9 95.2788 26.9C92.8808 26.9 91.1428 25.074 91.1428 22.566C91.1428 20.036 92.8808 18.21 95.2788 18.21ZM81.1636 16.56C77.6876 16.56 75.2016 19.046 75.2016 22.566C75.2016 26.064 77.6876 28.55 81.1636 28.55C84.6616 28.55 87.1256 26.064 87.1256 22.566C87.1256 19.046 84.6616 16.56 81.1636 16.56ZM81.1636 18.21C83.5836 18.21 85.2996 20.036 85.2996 22.566C85.2996 25.074 83.5836 26.9 81.1636 26.9C78.7656 26.9 77.0276 25.074 77.0276 22.566C77.0276 20.036 78.7656 18.21 81.1636 18.21ZM72.4164 17H70.5904V23.644C70.5904 25.602 69.4024 26.9 67.5984 26.9C65.8824 26.9 64.7384 25.602 64.7384 23.644V17H62.9124V23.644C62.9124 25.536 61.6584 26.9 59.8764 26.9C58.2044 26.9 56.9944 25.536 56.9944 23.644V17H55.1684V23.622C55.1684 26.504 57.0384 28.528 59.6564 28.528C61.3284 28.528 62.6044 27.692 63.3744 26.394H63.5724C64.2104 27.692 65.6404 28.55 67.2024 28.55C68.6544 28.55 69.8204 27.78 70.4364 26.636H70.6564V28.11H72.4164V17ZM51.3682 16.714C50.6642 16.714 50.1582 17.22 50.1582 17.924C50.1582 18.628 50.6642 19.134 51.3682 19.134C52.0942 19.134 52.5782 18.628 52.5782 17.924C52.5782 17.22 52.0942 16.714 51.3682 16.714ZM44.2636 16.648C42.4816 16.648 41.1836 17.352 40.3916 18.628H40.1936V17H38.3676V24.37C38.3676 26.9 40.1936 28.528 43.0756 28.528C45.8696 28.528 47.6956 27.032 47.6956 24.678H45.8476C45.8696 26.064 44.7696 26.878 43.0976 26.878C41.2716 26.878 40.1936 25.91 40.1936 24.414V23.974L43.2736 23.6C46.5736 23.226 48.2456 21.774 48.2456 19.816C48.2456 17.902 46.6616 16.648 44.2636 16.648ZM43.9996 18.166C45.4956 18.166 46.4196 18.804 46.4196 19.86C46.4196 20.894 45.5396 21.774 43.2736 22.06L40.1936 22.412V21.422C40.1936 19.552 41.7336 18.166 43.9996 18.166ZM35.2054 17H33.3794V22.984C33.3794 25.184 32.2134 26.68 30.5414 26.68C30.1234 26.68 29.4634 26.592 28.8914 26.35V28.044C29.2214 28.22 29.7494 28.33 30.2554 28.33C31.4874 28.33 32.7194 27.626 33.2254 26.614H33.4234V28.11H35.2054V17ZM22.5212 16.582C21.9712 16.582 21.2452 16.692 20.7172 16.868V18.342C21.1352 18.21 21.7072 18.122 22.0372 18.122C23.0932 18.122 23.7532 18.87 23.7532 19.926V26.658H20.8932V28.11H23.7532L23.7312 31.696H25.1612L25.5792 28.11H27.3832V26.658H25.5792V19.86C25.5792 17.902 24.3912 16.582 22.5212 16.582Z" fill="#201F1E"/>
</svg>
