<svg width="154" height="44" viewBox="0 0 154 44" fill="none" xmlns="http://www.w3.org/2000/svg">
<rect width="154" height="44" rx="22" fill="#92FF00"/>
<path d="M47.4987 28H49.3247V22.016C49.3247 19.816 50.4907 18.32 52.1627 18.32C52.5807 18.32 53.2407 18.408 53.8127 18.65V16.956C53.4827 16.78 52.9547 16.67 52.4487 16.67C51.2167 16.67 49.9847 17.374 49.4787 18.386H49.2807V16.89H47.4987V28ZM55.1669 28H65.1989V26.35H58.1809V26.13L64.9789 17.682V16.89H55.3869V18.54H62.0089V18.738L55.1669 27.208V28ZM67.5866 28H69.4126V21.356C69.4126 19.398 70.6006 18.1 72.4046 18.1C74.1206 18.1 75.2646 19.398 75.2646 21.356V28H77.0906V21.356C77.0906 19.464 78.3446 18.1 80.1266 18.1C81.7986 18.1 83.0086 19.464 83.0086 21.356V28H84.8346V21.378C84.8346 18.496 82.9646 16.472 80.3466 16.472C78.6746 16.472 77.3986 17.308 76.6286 18.606H76.4306C75.7926 17.308 74.3626 16.45 72.8006 16.45C71.3486 16.45 70.1826 17.22 69.5666 18.364H69.3466V16.89H67.5866V28ZM87.9967 28H89.8227V22.016C89.8227 19.816 90.9887 18.32 92.6607 18.32C93.0787 18.32 93.7387 18.408 94.3107 18.65V16.956C93.9807 16.78 93.4527 16.67 92.9467 16.67C91.7147 16.67 90.4827 17.374 89.9767 18.386H89.7787V16.89H87.9967V28ZM100.681 28.418C101.231 28.418 101.957 28.308 102.485 28.132V26.658C102.067 26.79 101.495 26.878 101.165 26.878C100.109 26.878 99.4489 26.13 99.4489 25.074V18.342H102.309V16.89H99.4489L99.4709 13.304H98.0409L97.6229 16.89H95.8189V18.342H97.6229V25.14C97.6229 27.098 98.8109 28.418 100.681 28.418ZM105.887 28.286C106.591 28.286 107.097 27.78 107.097 27.076C107.097 26.372 106.591 25.866 105.887 25.866C105.161 25.866 104.677 26.372 104.677 27.076C104.677 27.78 105.161 28.286 105.887 28.286Z" fill="#201F1E"/>
</svg>
