{
    "asset" : {
        "generator" : "Khronos glTF Blender I/O v3.4.50",
        "version" : "2.0"
    },
    "scene" : 0,
    "scenes" : [
        {
            "name" : "Scene",
            "nodes" : [
                0
            ]
        }
    ],
    "nodes" : [
        {
            "mesh" : 0,
            "name" : "Text.001",
            "rotation" : [
                0.70710688829422,
                0,
                0,
                0.7071066498756409
            ],
            "scale" : [
                12.548824310302734,
                26.00087547302246,
                12.548823356628418
            ],
            "translation" : [
                13.02434253692627,
                6.308296203613281,
                27.3609676361084
            ]
        }
    ],
    "animations" : [
        {
            "channels" : [
                {
                    "sampler" : 0,
                    "target" : {
                        "node" : 0,
                        "path" : "rotation"
                    }
                }
            ],
            "name" : "Text.001Action",
            "samplers" : [
                {
                    "input" : 3,
                    "interpolation" : "LINEAR",
                    "output" : 4
                }
            ]
        }
    ],
    "materials" : [
        {
            "doubleSided" : true,
            "name" : "Material.002",
            "pbrMetallicRoughness" : {
                "baseColorFactor" : [
                    0.11662158370018005,
                    0.1196112111210823,
                    0.5,
                    1
                ],
                "metallicFactor" : 0,
                "roughnessFactor" : 0.5
            }
        }
    ],
    "meshes" : [
        {
            "name" : "Text",
            "primitives" : [
                {
                    "attributes" : {
                        "POSITION" : 0,
                        "NORMAL" : 1
                    },
                    "indices" : 2,
                    "material" : 0
                }
            ]
        }
    ],
    "accessors" : [
        {
            "bufferView" : 0,
            "componentType" : 5126,
            "count" : 14170,
            "max" : [
                0.9443573951721191,
                0.023138854652643204,
                0.2811375558376312
            ],
            "min" : [
                -1.0171133279800415,
                -0.025912050157785416,
                -0.29181477427482605
            ],
            "type" : "VEC3"
        },
        {
            "bufferView" : 1,
            "componentType" : 5126,
            "count" : 14170,
            "type" : "VEC3"
        },
        {
            "bufferView" : 2,
            "componentType" : 5123,
            "count" : 57396,
            "type" : "SCALAR"
        },
        {
            "bufferView" : 3,
            "componentType" : 5126,
            "count" : 73,
            "max" : [
                3.0333333363135657
            ],
            "min" : [
                0.033333336313565574
            ],
            "type" : "SCALAR"
        },
        {
            "bufferView" : 4,
            "componentType" : 5126,
            "count" : 73,
            "type" : "VEC4"
        }
    ],
    "bufferViews" : [
        {
            "buffer" : 0,
            "byteLength" : 170040,
            "byteOffset" : 0,
            "target" : 34962
        },
        {
            "buffer" : 0,
            "byteLength" : 170040,
            "byteOffset" : 170040,
            "target" : 34962
        },
        {
            "buffer" : 0,
            "byteLength" : 114792,
            "byteOffset" : 340080,
            "target" : 34963
        },
        {
            "buffer" : 0,
            "byteLength" : 292,
            "byteOffset" : 454872
        },
        {
            "buffer" : 0,
            "byteLength" : 1168,
            "byteOffset" : 455164
        }
    ],
    "buffers" : [
        {
            "byteLength" : 456332,
            "uri" : "data:application/octet-stream;base64,"
        }
    ]
}
