<svg width="154" height="44" viewBox="0 0 154 44" fill="none" xmlns="http://www.w3.org/2000/svg">
<rect width="154" height="44" rx="22" fill="#92FF00"/>
<path d="M66.0574 16.89H64.2314V23.358C64.2314 25.316 62.6254 26.746 60.7554 26.746C58.8414 26.746 57.7414 25.404 57.7414 23.512V16.89H55.9154V23.512C55.9154 26.35 57.6974 28.396 60.5354 28.396C61.9874 28.396 63.2414 27.692 64.0114 26.482H64.2314V28H66.0574V16.89ZM71.9637 28H74.5597L76.8917 19.002H77.1117L79.4217 28H82.0397L85.7577 16.89H83.9537L80.9177 26.218H80.7197L78.1677 16.89H75.8357L73.3497 26.196H73.1517L70.0497 16.89H68.2457L71.9637 28ZM97.8543 16.89H96.0283V23.358C96.0283 25.316 94.4223 26.746 92.5523 26.746C90.6383 26.746 89.5383 25.404 89.5383 23.512V16.89H87.7123V23.512C87.7123 26.35 89.4943 28.396 92.3323 28.396C93.7843 28.396 95.0383 27.692 95.8083 26.482H96.0283V28H97.8543V16.89Z" fill="#201F1E"/>
</svg>
