<svg width="154" height="44" viewBox="0 0 154 44" fill="none" xmlns="http://www.w3.org/2000/svg">
<rect width="154" height="44" rx="22" fill="#92FF00"/>
<path d="M32.6454 16.45C30.8194 16.45 29.3894 17.242 28.5754 18.584H28.3774V16.89H26.5514V33.06H28.3774V26.35H28.5754C29.3894 27.67 30.8854 28.44 32.6674 28.44C35.9014 28.44 38.3874 25.91 38.3874 22.434C38.3874 18.958 35.8794 16.45 32.6454 16.45ZM32.4474 18.1C34.8234 18.1 36.5614 19.948 36.5614 22.434C36.5614 24.876 34.8234 26.79 32.4474 26.79C30.0494 26.79 28.3114 24.876 28.3114 22.434C28.3114 19.992 30.0494 18.1 32.4474 18.1ZM44.3058 28.352C46.0878 28.352 47.3858 27.648 48.1778 26.372H48.3758V28H50.2018V20.63C50.2018 18.1 48.3758 16.472 45.4938 16.472C42.6998 16.472 40.8738 17.968 40.8738 20.322H42.7218C42.6998 18.936 43.7998 18.122 45.4718 18.122C47.2978 18.122 48.3758 19.09 48.3758 20.586V21.026L45.2958 21.4C41.9958 21.774 40.3238 23.226 40.3238 25.184C40.3238 27.098 41.9078 28.352 44.3058 28.352ZM44.5698 26.834C43.0738 26.834 42.1498 26.196 42.1498 25.14C42.1498 24.106 43.0298 23.226 45.2958 22.94L48.3758 22.588V23.578C48.3758 25.448 46.8358 26.834 44.5698 26.834ZM57.6539 28.44C60.2499 28.44 62.1199 27.01 62.1199 24.92C62.1199 23.556 61.3059 22.566 59.9859 22.28V22.06C61.1299 21.774 61.8119 20.982 61.8119 19.772C61.8119 17.792 59.9859 16.45 57.4999 16.45C54.8159 16.45 52.9239 18.034 52.9459 20.234H54.7059C54.7059 18.98 55.8279 18.1 57.4559 18.1C58.9519 18.1 60.0299 18.804 60.0299 19.86C60.0299 20.784 59.1939 21.422 58.0279 21.422H56.0259V23.072H58.0059C59.3259 23.072 60.2939 23.644 60.2939 24.788C60.2939 25.976 59.1939 26.79 57.6319 26.79C55.8499 26.79 54.5959 25.734 54.5959 24.26H52.7699C52.7699 26.68 54.8159 28.44 57.6539 28.44ZM65.7857 32.928C68.1837 32.928 69.0637 30.64 70.0537 28.176L74.4537 16.89H72.4957L69.2397 25.58H69.0197L65.2137 16.89H63.2997L68.2497 27.978C67.5897 29.54 67.1497 31.3 65.4997 31.3C65.0817 31.3 64.5317 31.168 64.0257 30.97V32.576C64.5317 32.796 65.2357 32.928 65.7857 32.928ZM76.4381 28H78.2641V19.442H78.4621L82.4221 28H84.0501L88.0101 19.442H88.2301V28H90.0561V16.89H87.3941L83.3241 25.712H83.1041L79.0781 16.89H76.4381V28ZM96.5343 28.352C98.3163 28.352 99.6143 27.648 100.406 26.372H100.604V28H102.43V20.63C102.43 18.1 100.604 16.472 97.7223 16.472C94.9283 16.472 93.1023 17.968 93.1023 20.322H94.9503C94.9283 18.936 96.0283 18.122 97.7003 18.122C99.5263 18.122 100.604 19.09 100.604 20.586V21.026L97.5243 21.4C94.2243 21.774 92.5523 23.226 92.5523 25.184C92.5523 27.098 94.1363 28.352 96.5343 28.352ZM96.7983 26.834C95.3023 26.834 94.3783 26.196 94.3783 25.14C94.3783 24.106 95.2583 23.226 97.5243 22.94L100.604 22.588V23.578C100.604 25.448 99.0643 26.834 96.7983 26.834ZM111.686 16.45C109.86 16.45 108.43 17.242 107.616 18.584H107.418V16.89H105.592V33.06H107.418V26.35H107.616C108.43 27.67 109.926 28.44 111.708 28.44C114.942 28.44 117.428 25.91 117.428 22.434C117.428 18.958 114.92 16.45 111.686 16.45ZM111.488 18.1C113.864 18.1 115.602 19.948 115.602 22.434C115.602 24.876 113.864 26.79 111.488 26.79C109.09 26.79 107.352 24.876 107.352 22.434C107.352 19.992 109.09 18.1 111.488 18.1ZM122.846 28H124.672V18.54H128.676V16.89H118.82V18.54H122.846V28Z" fill="#201F1E"/>
</svg>
