<svg width="721" height="117" viewBox="0 0 721 117" fill="none" xmlns="http://www.w3.org/2000/svg">
<rect x="17.5225" width="703.477" height="115" rx="57.5" fill="#262628"/>
<path d="M87.9857 76.5227V48.4H83.2289V61.2068C80.6153 61.8341 78.4198 62.1477 76.5903 62.1477C72.6176 62.1477 70.6312 60.7363 70.6312 56.5545V48.4H65.8744V57.5477C65.8744 63.6636 68.9585 66.2772 74.8653 66.2772C77.4267 66.2772 79.9357 65.9113 83.2289 65.1272V76.5227H87.9857ZM116.778 52.5295V48.4H92.7846V52.5295H102.403V76.5227H107.16V52.5295H116.778ZM123.661 62.5659C123.661 54.8818 127.738 52.1113 132.077 52.1113C136.416 52.1113 140.493 55.0386 140.493 62.5659C140.493 69.7795 136.416 73.0204 132.077 73.0204C127.738 73.0204 123.661 70.0932 123.661 62.5659ZM132.077 47.9295C125.543 47.9295 118.591 52.3727 118.591 62.5659C118.591 72.7591 125.543 77.2023 132.077 77.2023C138.611 77.2023 145.563 72.7591 145.563 62.5659C145.563 52.3727 138.611 47.9295 132.077 47.9295ZM167.381 64.4477V59.9523H150.758V64.4477H167.381ZM194.472 52.5295V48.4H170.479V52.5295H180.097V76.5227H184.854V52.5295H194.472ZM201.355 62.5659C201.355 54.8818 205.433 52.1113 209.771 52.1113C214.11 52.1113 218.187 55.0386 218.187 62.5659C218.187 69.7795 214.11 73.0204 209.771 73.0204C205.433 73.0204 201.355 70.0932 201.355 62.5659ZM209.771 47.9295C203.237 47.9295 196.285 52.3727 196.285 62.5659C196.285 72.7591 203.237 77.2023 209.771 77.2023C216.305 77.2023 223.258 72.7591 223.258 62.5659C223.258 52.3727 216.305 47.9295 209.771 47.9295ZM259.7 76.5227H265.606L253.897 61.6772L264.509 48.4H258.863L249.925 59.9H246.422V48.4H241.613V76.5227H246.422V64.0295H250.029L259.7 76.5227ZM270.149 48.4V85.6704H274.906V72.2886C276.631 75.2682 279.558 77.2023 284.106 77.2023C290.587 77.2023 296.128 71.9227 296.128 62.5659C296.128 53.3659 290.587 47.9295 284.106 47.9295C279.558 47.9295 276.631 49.8636 274.906 52.8432V48.4H270.149ZM274.697 62.5659C274.697 55.1432 278.669 52.0068 282.903 52.0068C287.765 52.0068 290.953 55.8227 290.953 62.5659C290.953 69.3091 287.765 73.125 282.903 73.125C278.669 73.125 274.697 69.9886 274.697 62.5659ZM299.819 85.6704H302.276C308.601 85.6704 309.96 83.7886 312.051 77.725L322.088 48.4H317.122L310.169 70.0932L303.008 48.4H297.728L307.869 76.5227L307.66 77.0977C306.406 81.4886 304.89 81.6977 301.753 81.6977H299.819V85.6704ZM347.105 52.5295V48.4H323.111V52.5295H332.73V76.5227H337.486V52.5295H347.105ZM353.988 62.5659C353.988 54.8818 358.065 52.1113 362.404 52.1113C366.742 52.1113 370.82 55.0386 370.82 62.5659C370.82 69.7795 366.742 73.0204 362.404 73.0204C358.065 73.0204 353.988 70.0932 353.988 62.5659ZM362.404 47.9295C355.87 47.9295 348.917 52.3727 348.917 62.5659C348.917 72.7591 355.87 77.2023 362.404 77.2023C368.938 77.2023 375.89 72.7591 375.89 62.5659C375.89 52.3727 368.938 47.9295 362.404 47.9295ZM406.818 64.0295C407.393 55.0909 402.322 47.9295 393.697 47.9295C386.013 47.9295 380.054 53.575 380.054 62.5136C380.054 70.825 384.968 77.2023 393.854 77.2023C400.702 77.2023 405.197 73.1773 406.452 68.3682H401.538C400.336 71.1386 398.036 73.0204 393.854 73.0204C389.724 73.0204 385.333 70.0932 385.177 64.0295H406.818ZM393.697 52.0068C398.768 52.0068 401.643 55.9795 401.799 59.9523H385.229C385.647 54.3068 389.515 52.0068 393.697 52.0068ZM444.367 76.5227H449.124V48.4H444.367L429.835 69.6227V48.4H425.078V76.5227H429.835L444.367 55.3V76.5227ZM495.885 72.3932H491.964V48.4H472.99L472.624 57.4432C472.205 68.2113 470.533 72.3932 467.344 72.3932H466.089V82.7432H470.69V76.5227H491.285V82.7432H495.885V72.3932ZM487.208 72.3932H473.512C475.708 70.3023 476.91 66.225 477.328 57.9136L477.59 52.5295H487.208V72.3932ZM525.248 64.0295C525.823 55.0909 520.752 47.9295 512.127 47.9295C504.443 47.9295 498.484 53.575 498.484 62.5136C498.484 70.825 503.398 77.2023 512.284 77.2023C519.132 77.2023 523.627 73.1773 524.882 68.3682H519.968C518.766 71.1386 516.466 73.0204 512.284 73.0204C508.155 73.0204 503.764 70.0932 503.607 64.0295H525.248ZM512.127 52.0068C517.198 52.0068 520.073 55.9795 520.23 59.9523H503.659C504.077 54.3068 507.946 52.0068 512.127 52.0068ZM531.104 48.4V85.6704H535.861V72.2886C537.586 75.2682 540.513 77.2023 545.061 77.2023C551.543 77.2023 557.084 71.9227 557.084 62.5659C557.084 53.3659 551.543 47.9295 545.061 47.9295C540.513 47.9295 537.586 49.8636 535.861 52.8432V48.4H531.104ZM535.652 62.5659C535.652 55.1432 539.625 52.0068 543.859 52.0068C548.72 52.0068 551.909 55.8227 551.909 62.5659C551.909 69.3091 548.72 73.125 543.859 73.125C539.625 73.125 535.652 69.9886 535.652 62.5659ZM578.012 61.7818C580.521 60.5795 582.456 58.5932 582.456 55.7182C582.456 50.4386 577.333 47.7727 571.792 47.7727C565.885 47.7727 561.337 50.9613 560.344 57.0772H565.258C565.885 53.2613 568.551 51.9545 572.053 51.9545C575.137 51.9545 577.542 53.1568 577.542 55.8227C577.542 58.75 575.556 60.2136 572.262 60.2136H568.028V64.1341H572.524C576.496 64.1341 578.64 65.4409 578.64 68.7341C578.64 71.4 576.131 73.2295 572.158 73.2295C568.133 73.2295 565.467 71.5568 564.683 67.95H559.874C560.867 74.3795 565.833 77.2023 571.844 77.2023C578.117 77.2023 583.71 74.5886 583.71 68.525C583.71 64.7613 580.992 62.6182 578.012 61.7818ZM607.436 76.5227H613.343L601.633 61.6772L612.245 48.4H606.599L597.661 59.9H594.158V48.4H589.349V76.5227H594.158V64.0295H597.765L607.436 76.5227ZM619.844 62.5659C619.844 54.8818 623.921 52.1113 628.26 52.1113C632.598 52.1113 636.675 55.0386 636.675 62.5659C636.675 69.7795 632.598 73.0204 628.26 73.0204C623.921 73.0204 619.844 70.0932 619.844 62.5659ZM628.26 47.9295C621.725 47.9295 614.773 52.3727 614.773 62.5659C614.773 72.7591 621.725 77.2023 628.26 77.2023C634.794 77.2023 641.746 72.7591 641.746 62.5659C641.746 52.3727 634.794 47.9295 628.26 47.9295ZM672.673 64.0295C673.248 55.0909 668.178 47.9295 659.553 47.9295C651.869 47.9295 645.91 53.575 645.91 62.5136C645.91 70.825 650.823 77.2023 659.71 77.2023C666.557 77.2023 671.053 73.1773 672.307 68.3682H667.394C666.192 71.1386 663.892 73.0204 659.71 73.0204C655.58 73.0204 651.189 70.0932 651.032 64.0295H672.673ZM659.553 52.0068C664.623 52.0068 667.498 55.9795 667.655 59.9523H651.085C651.503 54.3068 655.371 52.0068 659.553 52.0068Z" fill="white"/>
<path d="M1.34618 115.853C17.9998 118.415 34.44 109.245 39.7777 103.373C34.276 90.2537 68.2424 58.389 45.824 58.3877C40.6402 58.3877 36.2127 44.8083 17.3593 55.003C17.2914 59.1242 17.3593 73.3899 17.3593 75.8188C17.3593 109.446 -1.85645 113.921 1.34618 115.853Z" fill="#262628"/>
</svg>
