<svg width="381" height="117" viewBox="0 0 381 117" fill="none" xmlns="http://www.w3.org/2000/svg">
<rect x="16.8184" width="363.477" height="115" rx="57.5" fill="#262628"/>
<path d="M81.6362 61.7818C84.1453 60.5795 86.0794 58.5932 86.0794 55.7182C86.0794 50.4386 80.9566 47.7727 75.4157 47.7727C69.5089 47.7727 64.9612 50.9613 63.968 57.0772H68.8816C69.5089 53.2613 72.1748 51.9545 75.6771 51.9545C78.7612 51.9545 81.1657 53.1568 81.1657 55.8227C81.1657 58.75 79.1794 60.2136 75.8862 60.2136H71.6521V64.1341H76.1476C80.1203 64.1341 82.2635 65.4409 82.2635 68.7341C82.2635 71.4 79.7544 73.2295 75.7816 73.2295C71.7566 73.2295 69.0907 71.5568 68.3066 67.95H63.4975C64.4907 74.3795 69.4566 77.2023 75.468 77.2023C81.7407 77.2023 87.3339 74.5886 87.3339 68.525C87.3339 64.7613 84.6157 62.6182 81.6362 61.7818ZM91.3005 85.6704H93.7573C100.082 85.6704 101.441 83.7886 103.532 77.725L113.569 48.4H108.603L101.651 70.0932L94.4892 48.4H89.2096L99.3505 76.5227L99.1414 77.0977C97.8869 81.4886 96.371 81.6977 93.2346 81.6977H91.3005V85.6704ZM148.57 48.4H141.774L133.358 70.0409L124.629 48.4H117.833V76.5227H122.486V54.2545L131.477 76.5227H134.874L143.918 53.9409V76.5227H148.57V48.4ZM181.198 64.0295C181.773 55.0909 176.702 47.9295 168.077 47.9295C160.393 47.9295 154.434 53.575 154.434 62.5136C154.434 70.825 159.348 77.2023 168.234 77.2023C175.082 77.2023 179.577 73.1773 180.832 68.3682H175.918C174.716 71.1386 172.416 73.0204 168.234 73.0204C164.105 73.0204 159.714 70.0932 159.557 64.0295H181.198ZM168.077 52.0068C173.148 52.0068 176.023 55.9795 176.18 59.9523H159.609C160.027 54.3068 163.895 52.0068 168.077 52.0068ZM187.054 48.4V85.6704H191.811V72.2886C193.536 75.2682 196.463 77.2023 201.011 77.2023C207.493 77.2023 213.033 71.9227 213.033 62.5659C213.033 53.3659 207.493 47.9295 201.011 47.9295C196.463 47.9295 193.536 49.8636 191.811 52.8432V48.4H187.054ZM191.602 62.5659C191.602 55.1432 195.574 52.0068 199.808 52.0068C204.67 52.0068 207.858 55.8227 207.858 62.5659C207.858 69.3091 204.67 73.125 199.808 73.125C195.574 73.125 191.602 69.9886 191.602 62.5659ZM230.711 47.9295C222.4 47.9295 217.121 54.15 217.121 62.5136C217.121 71.0863 222.139 77.2023 230.241 77.2023C236.827 77.2023 241.793 72.6545 242.786 67.375H237.873C237.193 70.3023 234.423 73.0204 230.398 73.0204C226.216 73.0204 222.296 69.5704 222.296 62.4613C222.296 55.4045 226.216 52.1113 230.398 52.1113C234.109 52.1113 236.984 54.4636 237.664 57.8091H242.473C241.793 53 237.611 47.9295 230.711 47.9295ZM266.5 76.5227H272.406L260.697 61.6772L271.309 48.4H265.663L256.725 59.9H253.222V48.4H248.413V76.5227H253.222V64.0295H256.829L266.5 76.5227ZM278.907 62.5659C278.907 54.8818 282.985 52.1113 287.323 52.1113C291.662 52.1113 295.739 55.0386 295.739 62.5659C295.739 69.7795 291.662 73.0204 287.323 73.0204C282.985 73.0204 278.907 70.0932 278.907 62.5659ZM287.323 47.9295C280.789 47.9295 273.837 52.3727 273.837 62.5659C273.837 72.7591 280.789 77.2023 287.323 77.2023C293.857 77.2023 300.81 72.7591 300.81 62.5659C300.81 52.3727 293.857 47.9295 287.323 47.9295ZM331.737 64.0295C332.312 55.0909 327.242 47.9295 318.617 47.9295C310.933 47.9295 304.973 53.575 304.973 62.5136C304.973 70.825 309.887 77.2023 318.773 77.2023C325.621 77.2023 330.117 73.1773 331.371 68.3682H326.458C325.255 71.1386 322.955 73.0204 318.773 73.0204C314.644 73.0204 310.253 70.0932 310.096 64.0295H331.737ZM318.617 52.0068C323.687 52.0068 326.562 55.9795 326.719 59.9523H310.148C310.567 54.3068 314.435 52.0068 318.617 52.0068Z" fill="white"/>
<path d="M1.34618 115.853C17.9998 118.415 34.44 109.245 39.7777 103.373C34.276 90.2536 68.2424 58.3888 45.824 58.3876C40.6402 58.3876 36.2127 44.8082 17.3593 55.0028C17.2914 59.1241 17.3593 73.3898 17.3593 75.8186C17.3593 109.446 -1.85645 113.921 1.34618 115.853Z" fill="#262628"/>
</svg>
