<svg width="673" height="348" viewBox="0 0 673 348" fill="none" xmlns="http://www.w3.org/2000/svg">
<path d="M261.075 236.355L619.608 193.095C641.894 190.406 661.467 204.199 663.55 223.636L667.267 258.306C669.35 277.743 653.198 295.847 630.911 298.536L272.378 341.796C250.092 344.485 230.519 330.692 228.436 311.255L224.719 276.585C222.635 257.148 238.788 239.044 261.075 236.355Z" fill="black" stroke="#DDFF20" stroke-width="1.8794"/>
<path d="M221.906 256.76C219.756 236.701 236.406 218.22 259.095 215.483L617.628 172.222C640.317 169.485 660.453 183.527 662.603 203.586L666.32 238.255C668.47 258.314 651.82 276.795 629.131 279.533L270.598 322.793C247.909 325.53 227.773 311.488 225.623 291.429L221.906 256.76Z" fill="black"/>
<path fill-rule="evenodd" clip-rule="evenodd" d="M617.805 173.873L259.272 217.133C237.614 219.747 221.721 237.387 223.774 256.534L227.49 291.204C229.543 310.351 248.764 323.755 270.421 321.142L628.954 277.882C650.612 275.268 666.505 257.628 664.452 238.481L660.736 203.811C658.683 184.664 639.462 171.26 617.805 173.873ZM259.095 215.483C236.406 218.22 219.756 236.701 221.906 256.76L225.623 291.429C227.773 311.488 247.909 325.53 270.598 322.793L629.131 279.533C651.82 276.795 668.47 258.314 666.32 238.255L662.603 203.586C660.453 183.527 640.317 169.485 617.628 172.222L259.095 215.483Z" fill="#DDFF20"/>
<path fill-rule="evenodd" clip-rule="evenodd" d="M282.248 297.976L275.603 235.989L290.507 234.19L293.099 258.374L338.282 252.922L335.69 228.739L350.594 226.94L357.239 288.927L342.335 290.726L339.539 264.648L294.356 270.1L297.152 296.178L282.248 297.976ZM288.816 236.067L291.409 260.25L340.327 254.348L337.734 230.164L348.904 228.817L355.195 287.502L344.025 288.85L341.23 262.772L292.312 268.674L295.107 294.752L283.938 296.1L277.647 237.414L288.816 236.067ZM385.54 285.513L378.895 223.526L441.303 215.996L442.543 227.56L394.856 233.314L396.252 246.336L438.742 241.209L439.947 252.451L397.457 257.578L399.035 272.293L447.314 266.467L448.541 277.911L385.54 285.513ZM445.624 268.344L446.497 276.485L387.23 283.637L380.939 224.951L439.613 217.872L440.499 226.134L392.812 231.888L394.562 248.212L437.051 243.085L437.903 251.026L395.413 256.152L397.344 274.169L445.624 268.344ZM471.872 275.096L465.227 213.109L480.131 211.311L485.524 261.612L529.336 256.326L530.588 268.011L471.872 275.096ZM527.645 258.202L528.544 266.586L473.563 273.22L467.271 214.535L478.441 213.187L483.833 263.488L527.645 258.202ZM550.819 265.57L544.174 203.583L582.696 198.935C592.222 197.786 599.885 198.548 605.395 201.541C610.993 204.56 614.076 209.518 614.785 216.129C615.462 222.448 613.49 227.91 608.785 232.339C604.065 236.782 596.716 239.442 587.109 240.574C587.109 240.574 587.108 240.574 587.107 240.574L563.541 243.418L565.723 263.772L550.819 265.57ZM586.936 238.923C596.331 237.816 603.167 235.249 607.446 231.222C611.724 227.195 613.548 222.239 612.917 216.354C612.252 210.147 609.403 205.687 604.371 202.973C599.37 200.256 592.203 199.46 582.873 200.586L546.218 205.009L552.51 263.694L563.679 262.346L561.497 241.992L586.936 238.923ZM596.681 210.066C593.71 208.492 589.034 208.09 582.651 208.86L558.261 211.803L560.646 234.052L585.036 231.109C591.449 230.335 595.932 228.787 598.485 226.465C601.037 224.143 602.127 221.235 601.752 217.742C601.372 214.195 599.681 211.636 596.681 210.066ZM562.336 232.176L584.859 229.458C591.148 228.699 595.088 227.22 597.169 225.326C599.273 223.413 600.212 221.025 599.885 217.967C599.551 214.853 598.118 212.786 595.68 211.511L595.672 211.506C593.243 210.219 589.095 209.755 582.828 210.511L560.305 213.229L562.336 232.176Z" fill="#DDFF20"/>
<path d="M75.2025 82.0062L431.518 142.474C453.622 146.225 468.193 165.775 464.239 186.021L457.213 222.005C453.26 242.252 432.235 255.761 410.132 252.01L53.8156 191.542C31.7117 187.791 17.1415 168.241 21.0946 147.995L28.1206 112.01C32.0737 91.7639 53.0987 78.2551 75.2025 82.0062Z" fill="black" stroke="#DDFF20" stroke-width="1.8794"/>
<path d="M31.4803 91.2345C35.5454 70.4145 57.1201 56.6387 79.6687 60.4652L435.985 120.933C458.533 124.76 473.517 144.74 469.452 165.56L462.426 201.544C458.361 222.364 436.786 236.14 414.238 232.313L57.9216 171.845C35.373 168.019 20.3892 148.039 24.4543 127.219L31.4803 91.2345Z" fill="black"/>
<path fill-rule="evenodd" clip-rule="evenodd" d="M435.65 122.647L79.3341 62.1788C57.8104 58.5261 37.2164 71.6758 33.3361 91.5494L26.3101 127.534C22.4298 147.407 36.7325 166.479 58.2562 170.132L414.572 230.6C436.096 234.252 456.69 221.103 460.57 201.229L467.596 165.245C471.477 145.371 457.174 126.299 435.65 122.647ZM79.6687 60.4652C57.1201 56.6387 35.5454 70.4145 31.4803 91.2345L24.4543 127.219C20.3892 148.039 35.373 168.019 57.9216 171.845L414.238 232.313C436.786 236.14 458.361 222.364 462.426 201.544L469.452 165.56C473.517 144.74 458.533 124.76 435.985 120.933L79.6687 60.4652Z" fill="#DDFF20"/>
<path fill-rule="evenodd" clip-rule="evenodd" d="M76.644 150.238L89.2061 85.8994L104.018 88.4131L99.1172 113.514L144.021 121.134L148.922 96.0334L163.734 98.547L151.172 162.885L136.36 160.371L141.645 133.305L96.7409 125.684L91.456 152.751L76.644 150.238ZM101.828 89.8117L96.9268 114.912L145.542 123.163L150.443 98.0618L161.544 99.9456L149.651 160.857L138.55 158.973L143.835 131.906L95.2196 123.656L89.9348 150.723L78.8344 148.839L90.7273 87.9279L101.828 89.8117ZM179.297 167.658L191.859 103.32L253.882 113.845L251.539 125.849L204.147 117.806L201.508 131.322L243.735 138.488L241.456 150.156L199.229 142.99L196.247 158.263L244.228 166.406L241.909 178.283L179.297 167.658ZM242.038 167.804L240.388 176.255L181.488 166.259L193.381 105.348L251.692 115.244L250.017 123.82L202.625 115.778L199.317 132.721L241.544 139.887L239.935 148.128L197.708 140.962L194.057 159.662L242.038 167.804ZM265.096 182.218L277.658 117.88L292.47 120.394L282.276 172.603L325.817 179.992L323.449 192.121L265.096 182.218ZM323.627 181.391L321.928 190.093L267.286 180.82L279.179 119.909L290.28 121.793L280.086 174.002L323.627 181.391ZM343.555 195.533L356.117 131.195L394.4 137.692C403.867 139.298 410.968 142.29 415.327 146.9C419.763 151.565 421.2 157.451 419.861 164.313C418.58 170.872 415.025 175.799 409.171 178.893C403.297 181.996 395.452 182.543 385.914 180.895C385.913 180.895 385.913 180.895 385.912 180.895L362.492 176.92L358.367 198.047L343.555 195.533ZM386.252 179.182C395.58 180.794 402.906 180.193 408.23 177.38C413.554 174.566 416.812 170.105 418.005 163.998C419.263 157.555 417.898 152.238 413.911 148.046C409.954 143.859 403.339 140.979 394.066 139.405L357.638 133.223L345.745 194.134L356.846 196.018L360.971 174.892L386.252 179.182ZM404.386 152.956C402.024 150.509 397.671 148.748 391.328 147.671L367.089 143.558L362.58 166.65L386.819 170.764C393.193 171.846 397.955 171.588 401.107 169.99C404.259 168.393 406.188 165.781 406.896 162.156C407.615 158.474 406.778 155.408 404.386 152.956ZM364.77 165.252L387.154 169.05C393.403 170.111 397.625 169.765 400.196 168.462C402.792 167.146 404.421 165.014 405.04 161.841C405.672 158.608 404.931 156.112 402.987 154.12L402.981 154.113C401.05 152.113 397.221 150.442 390.994 149.385L368.61 145.586L364.77 165.252Z" fill="#DDFF20"/>
</svg>
