<svg width="154" height="44" viewBox="0 0 154 44" fill="none" xmlns="http://www.w3.org/2000/svg">
<rect width="154" height="44" rx="22" fill="#92FF00"/>
<path d="M22.375 21.875V19.5H24.75V21.875H22.375ZM12.875 29V17.125H15.25V19.5H17.625V21.875H15.25V29H12.875ZM17.625 19.5V17.125H22.375V19.5H17.625ZM27.125 26.625V24.25H29.5V26.625H27.125ZM29.5 29V26.625H36.625V24.25H29.5V21.875H36.625V19.5H39V29H29.5ZM29.5 19.5V17.125H36.625V19.5H29.5ZM41.375 29V26.625H43.75V24.25H46.125V26.625H53.25V29H41.375ZM46.125 24.25V21.875H48.5V24.25H46.125ZM48.5 21.875V19.5H41.375V17.125H53.25V19.5H50.875V21.875H48.5ZM58 29V26.625H65.125V29H58ZM55.625 26.625V19.5H58V26.625H55.625ZM65.125 26.625V19.5H67.5V26.625H65.125ZM58 19.5V17.125H65.125V19.5H58ZM72.25 29V26.625H79.375V29H72.25ZM69.875 26.625V19.5H72.25V26.625H69.875ZM79.375 26.625V19.5H81.75V26.625H79.375ZM72.25 19.5V17.125H79.375V19.5H72.25ZM88.875 24.25V19.5H91.25V24.25H88.875ZM93.625 29V19.5H96V29H93.625ZM84.125 29V17.125H88.875V19.5H86.5V29H84.125ZM91.25 19.5V17.125H93.625V19.5H91.25ZM98.375 29V24.25H100.75V29H98.375ZM103.125 26.625V24.25H105.5V26.625H103.125ZM105.5 29V26.625H112.625V24.25H105.5V21.875H112.625V19.5H115V29H105.5ZM105.5 19.5V17.125H112.625V19.5H105.5ZM126.875 21.875V19.5H129.25V21.875H126.875ZM117.375 29V17.125H119.75V19.5H122.125V21.875H119.75V29H117.375ZM122.125 19.5V17.125H126.875V19.5H122.125ZM136.375 29V26.625H138.75V29H136.375ZM134 26.625V19.5H131.625V17.125H134V12.375H136.375V17.125H138.75V19.5H136.375V26.625H134Z" fill="#201F1E"/>
</svg>
