<svg width="176" height="42" viewBox="0 0 176 42" fill="none" xmlns="http://www.w3.org/2000/svg">
<rect width="176" height="42" rx="21" fill="#92FF00"/>
<path d="M31.352 24.338L28.47 19.014C30.582 18.486 32.012 17.21 32.012 15.472C32.012 14.174 30.912 11.6 24.95 11.6H20.22V11.908C20.22 11.908 21.232 11.93 21.518 12.018C22.024 12.15 22.2 12.458 22.266 12.876C22.332 13.162 22.332 13.69 22.332 14.108V24.118C22.332 24.69 22.332 25.438 22.266 25.724C22.2 26.142 22.024 26.45 21.518 26.582C21.232 26.67 20.22 26.692 20.22 26.692V27H27.018V26.714L24.158 26.494L24.18 25.614V11.952H24.928C27.942 11.952 30.164 13.074 30.164 15.516C30.164 17.518 28.58 18.926 26.226 18.926H25.632V19.278H26.204C26.798 19.278 27.37 19.234 27.898 19.146L31.33 26.604L30.164 26.692V27H35.114V26.692C35.114 26.692 33.838 26.648 33.442 26.494C33.002 26.318 32.694 26.076 32.298 25.636C31.924 25.196 31.132 23.92 31.132 23.92L31.352 24.338ZM43.3052 26.692V27H49.6192V26.692C49.6192 26.692 48.8272 26.67 48.3212 26.56C47.0892 26.318 46.5612 24.976 46.1652 23.942L41.5452 11.6H35.0112V11.908C35.0112 11.908 38.3112 12.04 38.6192 12.04C39.3672 12.084 39.4332 12.59 39.3012 12.964C39.0592 13.602 38.6852 14.438 38.4872 14.834L35.1212 21.764L34.0432 24.03C33.9772 24.14 33.4272 25.152 33.0752 25.636C32.7232 26.098 32.3492 26.362 31.8652 26.516C31.4472 26.648 30.2592 26.692 30.2592 26.692V27H37.9152V26.692L33.2072 26.494L35.3852 22.028L42.0292 18.178L45.1532 26.538L43.3052 26.692ZM35.6492 21.456L39.9392 12.634L41.8972 17.848L35.6492 21.456ZM51.9469 11.864L50.9569 19.762L51.2649 19.806C51.2649 19.806 52.0569 14.79 52.2109 13.69C52.3649 12.546 52.3869 12.26 53.2009 12.128C54.0589 11.996 56.8749 11.952 56.8749 11.952H59.8009L52.4969 23.634C52.4309 23.722 51.4189 25.328 51.1549 25.636C50.4069 26.516 49.6149 26.692 48.5149 26.692V27H62.2429L62.1769 28.914H62.4849L62.7049 26.736L63.6949 18.838L63.3869 18.794C63.3869 18.794 62.5949 23.81 62.4409 24.91C62.2869 26.054 62.2649 26.34 61.4509 26.472C60.5929 26.604 57.7769 26.648 57.7769 26.648H52.7829L60.0869 14.966C60.1529 14.878 61.1649 13.272 61.4289 12.964C62.1769 12.084 62.7269 12.062 63.2549 11.996C63.7609 11.93 64.5089 11.908 64.5089 11.908V11.6H52.4089L52.4749 9.686H52.1669L51.9469 11.864ZM64.9505 19.344C64.9505 23.062 67.2605 27.242 71.3525 27.242C74.6965 27.242 77.5125 23.986 77.5125 19.344C77.5125 15.56 75.1145 11.27 70.9345 11.27C67.5245 11.27 64.9505 14.548 64.9505 19.344ZM76.3025 21.192C76.3025 24.184 74.9165 26.318 72.5845 26.318C68.6025 26.318 66.1825 21.17 66.1825 17.342C66.1825 14.46 67.3265 12.194 69.6145 12.194C73.8825 12.194 76.3025 17.65 76.3025 21.192ZM77.7285 19.278C77.7285 22.996 80.3465 27.176 84.7905 27.176C88.3765 27.176 91.1045 23.92 91.1045 19.278C91.1045 15.494 88.3545 11.424 83.7785 11.424C80.2145 11.424 77.7285 14.482 77.7285 19.278ZM89.8945 21.566C89.8945 24.118 88.6625 26.252 85.8685 26.252C81.5125 26.252 78.9605 21.016 78.9605 16.748C78.9605 14.306 80.0165 12.348 82.6345 12.348C87.2985 12.348 89.8945 17.584 89.8945 21.566ZM100.309 26.692V27H106.425V26.692C106.425 26.692 105.413 26.67 105.127 26.582C104.621 26.45 104.445 26.142 104.379 25.724C104.313 25.438 104.313 24.91 104.313 24.492V14.482C104.313 13.91 104.313 13.162 104.379 12.876C104.445 12.458 104.621 12.15 105.127 12.018C105.413 11.93 106.425 11.908 106.425 11.908V11.6H102.465L99.1873 23.612L95.5353 11.6H91.3333V11.908C91.3333 11.908 92.3453 11.93 92.6313 12.018C93.1373 12.15 93.3133 12.458 93.3793 12.876C93.4453 13.162 93.4453 13.91 93.4453 14.482V24.492C93.4453 24.91 93.4453 25.438 93.3793 25.724C93.3133 26.142 93.1373 26.45 92.6313 26.582C92.3453 26.67 91.3333 26.692 91.3333 26.692V27H96.1513V26.692L93.7973 26.494V12.194L98.2633 27H98.6153L102.465 12.964V26.516L100.309 26.692ZM107.086 26.318C107.086 26.868 107.46 27.242 108.01 27.242C108.56 27.242 108.934 26.868 108.934 26.318C108.934 25.768 108.56 25.394 108.01 25.394C107.46 25.394 107.086 25.768 107.086 26.318ZM122.754 26.692V27H129.068V26.692C129.068 26.692 128.276 26.67 127.77 26.56C126.538 26.318 126.01 24.976 125.614 23.942L120.994 11.6H114.46V11.908C114.46 11.908 117.76 12.04 118.068 12.04C118.816 12.084 118.882 12.59 118.75 12.964C118.508 13.602 118.134 14.438 117.936 14.834L114.57 21.764L113.492 24.03C113.426 24.14 112.876 25.152 112.524 25.636C112.172 26.098 111.798 26.362 111.314 26.516C110.896 26.648 109.708 26.692 109.708 26.692V27H117.364V26.692L112.656 26.494L114.834 22.028L121.478 18.178L124.602 26.538L122.754 26.692ZM115.098 21.456L119.388 12.634L121.346 17.848L115.098 21.456ZM139.096 24.338L136.214 19.014C138.326 18.486 139.756 17.21 139.756 15.472C139.756 14.174 138.656 11.6 132.694 11.6H127.964V11.908C127.964 11.908 128.976 11.93 129.262 12.018C129.768 12.15 129.944 12.458 130.01 12.876C130.076 13.162 130.076 13.69 130.076 14.108V24.118C130.076 24.69 130.076 25.438 130.01 25.724C129.944 26.142 129.768 26.45 129.262 26.582C128.976 26.67 127.964 26.692 127.964 26.692V27H134.762V26.714L131.902 26.494L131.924 25.614V11.952H132.672C135.686 11.952 137.908 13.074 137.908 15.516C137.908 17.518 136.324 18.926 133.97 18.926H133.376V19.278H133.948C134.542 19.278 135.114 19.234 135.642 19.146L139.074 26.604L137.908 26.692V27H142.858V26.692C142.858 26.692 141.582 26.648 141.186 26.494C140.746 26.318 140.438 26.076 140.042 25.636C139.668 25.196 138.876 23.92 138.876 23.92L139.096 24.338ZM141.883 11.622L141.949 9.708H141.641L141.399 11.886L140.431 19.784L140.739 19.828C140.739 19.828 141.113 17.496 141.267 16.396C141.729 13.096 142.389 12.04 144.721 11.996C145.183 11.996 145.997 11.974 145.997 11.974H147.141V24.602C147.141 24.976 147.097 25.526 147.053 25.79C146.987 26.186 146.855 26.472 146.327 26.626C146.063 26.692 145.095 26.714 145.095 26.714V27H150.991V26.692L148.989 26.538V11.952H150.133C150.133 11.952 150.947 11.974 151.409 11.974C153.741 12.018 154.401 13.074 154.863 16.374C155.017 17.474 155.391 19.806 155.391 19.806L155.699 19.762L154.731 11.864L154.489 9.686H154.181L154.247 11.6H147.141L141.883 11.622Z" fill="#201F1E"/>
</svg>
