<svg width="209" height="39" viewBox="0 0 209 39" fill="none" xmlns="http://www.w3.org/2000/svg">
<rect width="208.835" height="38.3848" rx="19.1924" fill="#92FF00"/>
<path d="M33.6623 31.8643C34.1615 31.8643 35.0285 31.2074 35.0285 30.7607C35.0285 30.5768 34.9497 30.4192 34.7658 30.1564L32.2698 26.7934C31.2451 25.4271 30.089 24.0609 29.7212 22.2743C29.4059 20.8818 29.1695 19.4367 28.933 18.0179C28.8542 17.6238 28.8016 17.256 28.7228 16.8619C28.7228 16.5728 28.9593 16.6779 28.644 16.7568C29.9577 16.4152 31.14 14.8388 31.14 13.4725L31.0612 13.3149C31.0612 13.3149 31.0612 13.2886 31.0086 13.2361C30.9035 13.0784 30.7722 12.9208 30.6408 12.7894C29.6424 11.9749 28.4863 11.1341 27.4091 10.2934C26.5683 9.68908 26.2005 9.40007 25.7276 9.03223C25.4911 8.84831 25.097 8.69067 24.808 8.69067C23.8359 8.69067 23.0739 10.0569 22.8637 11.8698C22.6535 13.4462 22.2594 14.9701 21.839 16.5203C21.6551 17.2034 21.4449 17.9391 21.2873 18.5959C21.2873 18.8587 21.3661 19.0951 21.5763 19.5155C21.7077 19.752 21.7339 19.8045 21.7339 19.9359C21.7865 20.1986 21.8653 20.6453 21.9441 21.1445C22.5222 24.8228 22.89 28.2385 23.7308 28.2385C24.3351 28.2385 25.0445 27.5028 25.0445 26.951C25.0445 26.7934 24.9656 26.662 24.808 26.373C24.6766 26.084 24.5978 25.9001 24.5715 25.6636C24.4664 25.217 24.3876 24.7178 24.2825 24.2185C23.9935 22.7998 23.7308 21.4072 23.4943 19.9622C23.4943 19.5155 24.2037 19.0689 26.1217 18.2281C26.2793 18.1493 26.4895 18.0705 26.6472 17.9916C26.726 18.123 26.8836 18.6222 27.0675 19.9884C27.4354 22.9574 28.2761 25.1119 29.7475 26.951C30.1153 27.3977 30.7196 28.291 31.2976 29.1318C32.3486 30.6819 33.0843 31.8643 33.6623 31.8643ZM23.3629 17.5975C23.3367 17.5975 23.2841 17.5712 23.1265 17.5187C23.0476 17.4924 22.9951 17.4924 22.89 17.4399L23.1527 17.7814C23.3892 17.0458 23.5994 16.4677 23.8096 15.8634C24.2562 14.576 24.6504 13.3937 24.9131 12.08C25.0445 11.2655 25.1496 11.3706 24.8868 11.3706C24.9919 11.3706 28.6965 13.7353 28.6965 14.6548C28.6965 14.7599 28.2499 15.049 28.0922 15.049C27.4354 15.049 27.2252 15.2066 26.6472 15.7846C25.6225 16.8093 24.1511 17.5975 23.3629 17.5975ZM37.0683 29.9725C37.5675 29.8149 37.6463 29.5259 37.5937 28.9216C37.5675 28.8165 37.5675 28.7377 37.5675 28.6851C37.5675 28.5537 37.5675 28.3961 37.5675 28.2385C37.5412 28.0808 37.5412 27.9232 37.5412 27.7655C37.5412 26.0577 37.9353 24.2448 38.3294 22.4582C38.4608 21.8276 38.5921 21.1708 38.7235 20.5927C38.7498 20.3826 39.3015 20.3037 40.7203 20.2775C41.0882 20.2775 41.3772 20.2512 41.5348 20.2249C41.9027 20.2512 42.2442 20.3037 42.6383 20.33C43.7156 20.4088 44.7928 20.5139 45.8963 20.6453C46.3955 20.6978 46.6582 20.9343 46.6582 21.3284C46.6582 21.4861 46.6057 21.67 46.3692 22.0904C46.1065 22.6158 46.0014 22.8523 46.0014 23.0888C46.0014 23.6931 46.5531 24.3236 47.0523 24.9017C47.9194 25.9001 48.2347 26.4518 48.3135 27.1612C48.366 27.5028 49.128 27.7918 49.6797 27.7918C50.284 27.7918 50.9672 26.951 50.6519 26.3993C50.3366 25.2695 49.9162 24.1135 49.4958 22.9311C49.3119 22.4582 49.128 21.959 49.128 21.4335C49.128 21.3284 49.1543 21.2233 49.2331 20.9869C49.3644 20.6453 49.417 20.4877 49.417 20.33C49.417 19.9096 49.1543 19.3579 48.7076 19.3579H48.7601C48.3398 19.3053 48.3135 18.9638 48.2084 18.412C48.1033 17.9128 47.9982 17.3348 47.9194 16.783C47.5778 14.7074 47.2363 12.5004 45.581 10.8714C45.3445 10.6349 45.003 10.2671 44.6877 9.92554C43.2689 8.37538 42.6383 7.84991 42.0603 7.84991C41.5085 7.84991 41.0619 8.19147 40.7992 8.76949C40.4839 9.50516 40.2474 10.2146 39.9847 10.9502C39.4592 12.4216 38.9337 13.9192 38.0667 15.049C37.9616 15.2066 37.909 15.2329 37.7251 15.338C37.2259 15.5744 37.0683 15.7584 37.0683 16.1787C37.0683 16.5203 37.1471 16.8881 37.1996 17.2034C37.3047 17.6238 37.331 17.834 37.331 18.0442C37.331 18.1493 37.3047 18.2018 37.1996 18.2018C36.9894 18.1755 36.7267 18.123 36.4902 18.0967C36.0436 18.0179 35.5969 17.9391 35.1503 17.9391C34.4671 17.9391 33.8366 18.3857 33.8366 18.8849C33.8366 19.8045 34.9401 19.8834 35.6495 19.9359C36.464 19.9884 36.5953 20.041 36.5953 20.33C36.5953 20.33 36.5953 20.33 36.5953 20.3826C36.5691 20.4614 36.5691 20.5139 36.5691 20.5665C36.4902 21.1445 36.4114 21.6963 36.3063 22.2743C36.0698 23.877 35.8071 25.5585 35.8071 27.135C35.8071 28.58 36.1487 30.2353 37.0683 29.9725ZM46.0539 18.7798C45.3445 18.7536 44.6089 18.701 43.8995 18.6748C42.4544 18.5959 41.0093 18.5171 39.5117 18.4646C39.2227 18.4646 39.4592 18.5959 39.4592 18.4908C39.4592 18.4383 39.4855 18.3857 39.5117 18.3069C40.4839 15.6795 41.3772 13.131 42.2968 10.5561C42.4019 10.2934 42.3493 10.3985 42.2179 10.3985C42.1654 10.3985 42.1654 10.3722 42.3756 10.5561C44.3199 12.08 45.4234 14.2082 45.6598 16.8881C45.6861 17.3348 45.8175 17.8077 45.9226 18.2806C46.0014 18.5959 46.0277 18.7536 46.0539 18.9375L46.2641 18.6485C46.2116 18.6748 46.2116 18.6748 46.159 18.701C46.0802 18.7536 46.0277 18.7798 46.0539 18.7798ZM59.0706 28.6851C59.1757 28.6851 59.3596 28.6588 59.5698 28.6063C59.78 28.5537 59.9902 28.5012 60.2004 28.5012C61.6454 28.5012 63.0642 28.4749 64.5093 28.4486C65.9281 28.4486 67.3731 28.4224 68.7919 28.4224C69.2911 28.4224 69.8166 28.4224 70.3158 28.4224C70.8413 28.4486 71.3405 28.4486 71.866 28.4486C73.1534 28.4486 74.2569 27.6604 74.2569 26.6883C74.2569 26.2942 73.6789 26.1891 73.1534 26.1891C71.9185 26.1891 70.8676 26.2416 69.8429 26.3205C68.8182 26.373 67.7935 26.4256 66.6112 26.4256C66.401 26.4256 66.1383 26.3993 65.9018 26.373C65.7179 26.373 65.534 26.3467 65.4026 26.3467C64.6932 26.3467 64.0101 26.3467 63.3007 26.373C62.6176 26.373 61.9082 26.3993 61.1988 26.3993C60.936 26.3993 61.0937 26.4518 61.0937 26.4256C61.0937 26.3467 61.12 26.2416 61.1725 26.1628C62.0133 24.2448 62.8803 22.4056 63.5897 20.5402C64.5618 17.9916 65.7967 16.205 67.3731 14.9964C67.6622 14.7862 67.8198 14.6548 68.2665 14.3396C69.2386 13.6827 70.2896 12.9733 70.8676 11.8435C70.9201 11.7647 70.9201 11.7647 70.9464 11.7122C71.1829 11.3443 71.2617 11.1604 71.2617 11.0028C71.2617 10.6349 70.8413 10.4247 70.2633 10.3722C70.4472 10.3722 70.4209 10.451 70.3421 10.2146C70.1845 9.82045 69.9743 9.61026 69.5802 9.61026C69.4225 9.61026 69.186 9.66281 68.9759 9.74163C68.897 9.7679 68.8708 9.7679 68.8182 9.7679C68.5292 9.89927 68.319 9.95182 67.8461 10.1357C66.401 10.6612 65.0348 11.1604 63.5634 11.1604C62.1446 11.1604 60.6996 10.8189 59.2545 10.4773C57.8094 10.1095 56.3381 9.7679 54.8142 9.7679C53.6582 9.7679 52.7911 10.451 52.7911 11.3443C52.7911 11.9749 53.5793 12.7106 54.2099 12.1326C54.5252 11.9749 54.8668 11.8961 55.2872 11.8961C55.8652 11.8961 56.4695 12.0537 57.1001 12.2376C57.4416 12.3427 57.5993 12.3953 57.8094 12.4478C59.6486 12.8945 61.4878 13.3149 63.3795 13.3149C64.5093 13.3149 65.6391 13.1572 66.6638 12.8157C66.7163 12.8157 66.7951 12.8419 66.8739 12.8682C66.9528 12.8682 67.0053 12.8682 67.0841 12.8945L66.7951 12.5267C66.7426 12.6055 66.7163 12.6318 66.69 12.7106C66.6112 12.9208 66.6112 12.9733 66.6375 12.8945C66.2696 13.3674 65.9806 13.709 65.3238 14.4972C64.4305 15.5482 63.5109 16.6517 62.854 17.7814C61.8556 19.4892 61.0937 21.2233 60.3317 23.0099C60.069 23.6142 59.8063 24.2448 59.5435 24.7966C59.4384 25.033 59.3859 25.1381 59.202 25.506C58.7816 26.3205 58.3087 27.2663 58.3087 28.0283C58.3087 28.4486 58.5977 28.6851 59.0706 28.6851ZM82.6282 29.9463C82.8647 29.9463 83.1537 29.8412 83.3639 29.6835C83.6266 29.4996 83.7843 29.3945 84.1784 29.1318C85.0192 28.58 85.9387 27.9757 86.6481 27.2926C88.3034 25.795 88.934 23.9558 88.934 20.8029C88.934 20.0673 88.9077 19.3579 88.8814 18.6222C88.7238 13.8404 85.4133 9.18987 82.0765 9.18987C80.8153 9.18987 79.4491 9.71535 77.7413 10.8714C77.2946 11.1604 77.2158 11.4757 77.137 12.2114C77.1107 12.3165 77.1107 12.4216 77.0844 12.5004L77.6099 12.7894C78.0303 12.658 78.3456 12.5529 78.7397 12.4741L78.2405 12.2114C78.2405 12.3953 78.2405 12.4216 78.2668 12.369L78.293 12.3427C77.2684 13.3674 76.9005 14.4447 76.6115 17.1509L76.6378 17.256C76.7166 17.6238 76.848 18.0967 76.9531 18.5697C77.1895 19.6732 77.4785 20.8818 77.9777 22.0904C78.6346 23.6142 79.4754 25.1644 80.2899 26.662C80.7628 27.5291 81.2094 28.3435 81.6824 29.2369C81.8663 29.7098 82.1816 29.9463 82.6282 29.9463ZM83.6004 27.424C83.7055 27.424 83.6004 27.4502 83.5215 27.2926C83.2588 26.7671 82.9172 26.1628 82.602 25.5848C81.7612 24.0346 80.9467 22.5633 80.2373 20.908C79.7906 19.8308 79.5016 18.6222 79.2126 17.4136C79.055 16.8356 78.9236 16.2838 78.766 15.7058C79.055 13.9717 79.5279 13.131 80.5 12.6318C80.7891 12.4741 80.9467 12.2639 81.1832 11.8698C81.551 11.2655 81.5773 11.3181 81.4984 11.3181L81.3671 11.2918C81.3671 11.3181 81.3934 11.3181 81.4196 11.3181C81.6035 11.3969 81.8926 11.502 82.129 11.5808C83.0486 11.8961 83.3376 12.08 83.6529 12.4216C85.6497 14.7074 86.6744 17.4136 86.6744 20.4088C86.6744 21.8802 86.4379 23.4303 85.965 25.0593C85.6497 26.084 84.9929 26.7146 83.4953 27.424C83.4427 27.424 83.3902 27.4502 83.3376 27.4765L83.6004 27.424ZM99.8608 27.7392C100.833 27.6604 101.91 27.3714 103.171 26.7934C105.51 25.7687 106.718 23.3252 106.718 19.7783C106.718 18.5697 106.377 17.9654 105.378 17.9654C104.8 17.9654 104.38 18.4908 104.38 19.1214C104.38 19.3579 104.406 19.5943 104.432 19.8308C104.432 20.041 104.459 20.2249 104.459 20.4351C104.459 22.8786 103.093 25.6111 99.8608 25.6111C95.7884 25.6111 94.3959 24.455 94.3959 21.0657C94.3959 18.2281 95.7096 15.9423 97.1283 13.4725C97.4699 12.8682 98.0479 12.6318 98.9938 12.6318C99.6769 12.6318 100.202 12.8419 100.78 13.2886C100.964 13.4462 101.253 13.6564 101.516 13.8404C102.62 14.6548 103.565 15.338 103.565 16.783C103.565 17.0983 103.513 17.3873 103.46 17.6238C103.434 17.9654 104.117 18.5434 104.511 18.5434C105.326 18.5434 105.536 17.834 105.536 16.7305C105.536 15.5744 105.3 14.865 104.669 14.2082C103.224 12.7106 101.175 10.8451 98.8624 10.8451C97.6013 10.8451 95.5782 11.0553 95.2892 12.7894C95.1578 13.6827 94.6586 14.3921 94.0806 15.2066C93.6339 15.8634 93.1084 16.5991 92.8457 17.3348C92.399 18.5434 92.1889 19.7257 92.1889 20.9606C92.1889 21.5123 92.2151 21.9853 92.2939 22.4582C92.3202 22.6158 92.3465 22.8523 92.3465 23.0625C92.4253 24.2974 92.6355 24.8228 93.3449 25.3746C95.4205 27.0824 97.6801 27.8969 99.8608 27.7392ZM128.651 29.7098C129.492 29.7098 129.86 29.4733 130.228 28.6326L130.254 28.5275C130.254 28.1596 129.334 27.6867 128.94 27.6867C128.861 27.6867 128.782 27.6867 128.704 27.713C128.651 27.713 128.599 27.713 128.546 27.713C128.257 27.713 128.126 27.3977 127.968 26.1103C127.81 24.744 127.626 24.1397 127.153 23.588C127.127 23.5617 127.022 21.1708 127.022 18.3332C127.022 17.0195 127.101 16.0211 127.285 15.2329V15.1803C127.285 14.3921 127.075 13.6302 126.891 12.8945C126.786 12.5004 126.733 12.3165 126.681 12.08C126.602 11.7384 126.024 11.5808 125.498 11.5808C124.447 11.5808 123.16 12.2114 122.766 12.947C122.582 13.2623 122.45 13.4725 122.135 13.998C121.636 14.8125 121.084 15.6795 120.69 16.494C120.296 17.3085 120.06 18.0967 119.823 18.9112C119.744 19.2002 119.639 19.4892 119.587 19.7257C119.534 19.8834 119.508 19.9884 119.429 20.2775C119.219 21.1445 119.061 21.5649 118.982 21.6437L119.534 21.7225C119.481 21.6437 119.35 21.4335 119.245 21.3021C119.009 20.9606 118.93 20.8029 118.93 20.6453C118.93 20.619 118.93 20.5665 118.93 20.4614C118.956 20.3563 118.956 20.3037 118.956 20.2249C118.956 19.6732 118.693 19.1477 118.431 18.6748C118.22 18.2281 118.01 17.834 117.958 17.3085C117.852 16.4152 117.747 15.4956 117.642 14.576C117.406 12.6843 117.196 10.8189 117.012 8.92714C116.907 8.00755 116.145 7.955 115.54 7.955C115.067 7.955 114.2 7.955 114.122 8.95341C114.095 9.45261 113.938 9.873 113.754 10.3459C113.701 10.5298 113.622 10.74 113.57 10.8977C113.307 11.6859 113.307 12.4216 113.307 13.1572C113.281 13.8404 113.281 14.5235 113.097 15.1278C112.466 17.072 112.388 18.0442 112.309 19.1477C112.23 20.041 112.151 21.0131 111.783 22.5896C111.757 22.6947 111.757 22.7209 111.599 22.8786C111.337 23.1413 111.231 23.2727 111.205 23.4041C110.89 24.3499 110.653 25.217 110.391 26.1365C110.259 26.6357 110.102 27.1875 109.97 27.6867C109.944 27.7655 109.944 27.7655 109.918 27.8181C109.786 28.1071 109.76 28.2122 109.76 28.3435C109.76 28.7902 110.312 29.0792 110.916 29.0792C111.468 29.0792 111.836 28.7639 111.993 28.2122C112.072 28.002 112.099 27.8443 112.23 27.3714C113.018 24.4025 113.281 24.0872 113.044 24.1397C113.833 23.7719 114.069 23.3252 114.122 22.248C114.122 22.0641 114.148 21.8539 114.174 21.7225C114.568 19.463 114.726 18.2018 114.936 16.8093C115.067 15.7321 115.251 14.576 115.514 12.8945C115.54 12.7106 115.54 12.5792 115.567 12.3427C115.593 12.1063 115.593 11.8698 115.672 11.6333H114.91L114.962 11.8698C115.199 14.9439 115.593 18.1755 116.618 21.197C116.696 21.4335 116.802 21.7225 116.88 21.959C117.169 22.7735 117.432 23.4829 117.432 24.2185C117.432 24.455 117.432 24.5338 117.406 24.5864C117.406 24.7703 117.38 24.9017 117.38 25.0593C117.353 25.217 117.353 25.2958 117.353 25.4009C117.353 26.0052 118.036 26.7934 118.641 26.7934C119.534 26.7934 120.033 25.9789 120.559 24.0872C120.69 23.6668 120.769 23.3778 120.979 22.6684C121.321 21.4598 121.662 20.2249 121.977 19.0426C122.477 17.0195 123.58 15.4431 124.789 13.7615C124.946 13.5251 124.973 13.5513 124.92 13.5513C124.5 13.5513 124.868 12.9208 124.868 15.049C124.868 15.8634 124.815 16.7568 124.763 17.7026C124.684 18.7273 124.631 19.8308 124.631 20.8818C124.631 22.4582 124.763 23.6142 125.052 24.6389C125.157 25.1119 125.288 25.6373 125.367 26.084C125.84 28.1596 126.181 29.7098 128.651 29.7098ZM137.399 28.869L137.452 28.8165C137.504 28.7114 137.504 28.6851 137.583 28.5537C137.767 28.1596 137.819 27.9757 137.846 27.7918C137.846 27.6342 137.872 27.5291 137.872 27.3189C137.872 26.8985 137.898 26.6883 137.977 26.5832C138.108 26.3993 138.214 26.1628 138.214 25.9789C138.214 25.8213 138.161 25.7424 138.03 25.6373C138.003 25.6111 137.951 25.4797 137.925 25.1907C137.819 24.6127 137.557 24.3499 136.952 24.3499C136.269 24.3499 135.744 24.6389 135.744 25.1381C135.744 25.1644 135.823 25.1381 135.718 25.217C135.481 25.3483 135.35 25.4534 135.35 25.6636C135.35 25.7687 135.376 25.8738 135.402 26.084C135.455 26.2416 135.455 26.3205 135.455 26.3993C135.455 26.5044 135.455 26.6095 135.402 26.8197C135.376 27.0824 135.35 27.2138 135.35 27.3451C135.35 28.3961 135.718 29.1843 136.558 29.1843C136.9 29.1843 137.241 29.0529 137.399 28.869ZM145.986 28.6588C146.354 28.6588 146.721 28.4749 146.932 28.1859L146.905 27.8443L146.879 27.8181V28.1859C147.089 27.9757 147.194 27.7655 147.194 27.5291C147.194 27.2926 147.115 27.135 146.958 26.9773C146.958 26.8985 146.932 26.8197 146.932 26.7146C146.905 26.5832 146.905 26.5044 146.905 26.4256C146.905 26.373 146.905 26.3467 146.932 26.2942C146.958 26.1365 146.958 26.084 146.958 26.0052C146.958 25.506 146.879 25.0068 146.8 24.5076C146.826 24.455 146.853 24.4287 146.879 24.3762C147.037 24.0609 147.168 23.7982 147.352 23.6931C147.772 23.4041 148.088 23.0362 148.193 22.5896C148.324 22.1692 148.429 21.8276 148.666 21.092C148.797 20.6978 148.928 20.2775 149.033 19.8834C149.27 19.9359 149.48 19.9622 149.717 19.9884C150.295 20.041 150.951 20.2775 151.635 20.4877C151.976 20.5927 152.213 20.6716 152.397 20.7241C152.633 21.381 152.791 22.6684 152.948 24.0084C153.29 26.8985 153.526 27.8969 154.026 28.3698C154.131 28.5012 154.446 28.58 154.709 28.58C155.287 28.58 155.786 28.2122 155.786 27.7392C155.786 27.1875 155.497 26.0577 155.234 25.6111C155.103 24.9542 155.05 24.2711 154.971 23.5617C154.919 22.6947 154.84 21.8276 154.604 20.9606C154.919 20.8029 155.182 20.5139 155.182 20.2249C155.182 19.6732 154.604 19.4367 154.183 19.3316C153.894 18.1493 153.553 17.2034 153.08 16.3101C152.975 16.1262 152.922 15.916 152.843 15.627C152.607 14.6023 151.897 12.6055 151.503 11.5283C151.477 11.4494 151.451 11.3443 151.372 11.1604C151.24 10.7663 151.188 10.5561 151.188 10.3459C151.267 10.1883 151.319 10.0306 151.319 9.89927C151.319 9.29497 150.636 8.87459 149.927 8.97968L150.4 9.24242V9.1636C150.4 9.11105 150.4 9.05851 150.426 8.95341C150.479 8.79577 150.479 8.74322 150.479 8.63812C150.479 8.08637 150.032 7.66599 149.454 7.66599C148.718 7.66599 148.324 8.16519 148.324 8.97968C148.324 9.55771 148.508 10.0306 148.955 10.5298C149.007 10.5824 149.086 10.74 149.191 11.1079C149.217 11.1867 149.244 11.2392 149.27 11.3443C149.795 12.6843 150.321 14.3133 150.794 16.0211C150.925 16.5728 151.188 17.1771 151.451 17.7289C151.74 18.412 151.871 18.7273 152.002 19.1477L152.475 18.8061C152.344 18.7798 152.16 18.701 151.976 18.6485C151.424 18.4908 150.899 18.3069 150.268 18.2281C150.032 18.2018 149.795 18.1493 149.533 18.0705C149.743 17.1509 149.953 16.2576 150.111 15.3905C150.163 15.1015 150.216 14.8913 150.321 14.6023C150.452 14.2345 150.61 13.7878 150.61 13.3937C150.61 12.7894 150.242 12.3427 149.664 12.3427C149.349 12.3427 149.007 12.5004 148.902 12.7631C148.298 13.9455 147.746 16.4415 147.51 17.7814L148.035 17.5975C147.956 17.5712 147.799 17.4924 147.667 17.4399C147.352 17.3085 146.984 17.1509 146.59 17.1509C146.065 17.1509 145.618 17.5187 145.618 17.9916C145.618 18.6485 146.511 19.0426 147.089 19.2791C146.826 20.2249 146.537 21.1182 146.222 22.0378L146.248 22.0115C146.196 22.0115 146.143 22.0378 146.091 22.0641L146.669 22.3006C146.669 21.5649 146.248 21.0131 145.565 21.0131C145.04 21.0131 144.593 21.4072 144.593 21.8802C144.593 22.248 144.646 22.6421 144.672 22.9837C144.725 23.3252 144.751 23.6668 144.751 24.0084C144.698 24.1397 144.672 24.2711 144.672 24.3762C144.672 24.5338 144.725 24.6915 144.856 24.9017C144.882 24.9805 144.882 24.9805 144.882 25.033C144.882 25.1644 144.882 25.2695 144.856 25.4009C144.83 25.6111 144.83 25.7162 144.83 25.8475C144.83 26.6357 144.908 29.2631 145.644 27.6079L144.961 27.8443C145.04 28.3173 145.486 28.6588 145.986 28.6588ZM173.141 23.1413C171.722 21.4861 168.464 19.1214 165.784 17.7814C165.679 17.7289 165.495 17.6763 165.285 17.5975C165.469 17.3873 165.836 16.9407 166.52 16.1525C168.306 14.1819 168.963 13.3412 168.963 12.9996C168.963 12.1063 167.071 11.5808 164.523 11.5808C163.288 11.5808 161.475 11.6333 160.266 12.2376C159.61 12.5529 158.637 13.709 158.637 14.1556C158.637 14.5498 159.11 15.1278 159.531 15.1278C159.899 15.1278 160.188 14.9701 160.45 14.6548C160.608 14.4709 160.608 14.5498 160.398 14.5498C160.371 14.5498 161.081 16.5728 161.081 16.6779C161.081 17.5187 161.291 17.9128 161.974 18.3069C162 18.3069 162.631 20.33 163.288 22.8523C163.498 23.7456 163.603 24.1135 163.682 24.3762C163.524 24.5338 163.367 24.744 163.34 24.9017C163.262 25.4797 163.971 26.1103 164.602 26.0577C165.469 26.0052 165.889 25.3221 165.889 24.2711C165.889 23.5617 164.759 20.041 164.496 19.3579L164.523 19.4367C164.523 19.4104 164.496 19.4104 164.496 19.3841C164.733 19.4892 164.996 19.5943 165.232 19.6994C166.388 20.1724 166.861 20.3826 167.439 20.7504C167.676 20.8818 168.227 21.3284 169.515 22.4845C171.17 23.9558 172.168 24.8491 172.72 24.8491C173.167 24.8491 173.587 24.5076 173.587 24.0872C173.587 23.8244 173.403 23.4566 173.141 23.1413ZM163.367 16.3101C163.209 16.3101 163.051 16.1787 162.92 15.8634C162.867 15.7584 162.736 15.5219 162.631 15.338C162.184 14.4184 162 13.998 162 13.8141C162 13.709 162.342 13.6564 163.551 13.6302C163.892 13.6039 164.26 13.6039 164.523 13.5776C164.628 13.5776 164.733 13.5776 164.864 13.5776C164.996 13.5513 165.18 13.5513 165.337 13.5513C165.705 13.5513 165.863 13.5776 165.889 13.6302C163.971 15.9685 163.603 16.3101 163.367 16.3101ZM181.643 30.2878C181.722 30.2878 181.879 30.2615 181.958 30.209C182.457 29.8149 182.957 29.3945 182.957 28.6851C182.957 28.5275 182.957 28.4224 182.93 28.3173C182.746 27.2926 182.641 26.1103 182.641 24.8491C182.641 23.3778 182.773 21.9327 182.93 20.4614C183.062 18.99 183.219 17.4924 183.219 16.0211C183.219 14.865 183.114 13.8929 182.904 12.9208C182.878 12.8945 182.878 12.8419 182.878 12.8157C182.851 12.7369 182.851 12.7106 182.851 12.6843C182.851 12.7106 182.668 12.7369 182.641 12.7369C182.668 12.7369 182.694 12.7369 182.825 12.7631C182.878 12.7894 182.904 12.7894 182.904 12.7894C183.272 12.8945 183.771 13.0259 184.244 13.1835C185.558 13.5776 186.976 13.998 188.185 13.998C188.921 13.998 189.551 13.709 189.998 13.1572C189.998 13.1572 189.893 13.1572 189.945 13.1572L189.814 13.131C189.893 13.1572 190.024 13.1835 190.129 13.1835C190.839 13.1835 191.285 12.7106 191.417 11.9749C191.469 11.6071 190.55 11.0553 190.024 11.029C188.159 10.924 186.293 10.8451 184.402 10.7663C183.771 10.74 183.167 10.7138 182.562 10.6875C182.273 10.6612 182.247 10.6612 182.116 10.2408C181.958 9.79417 181.748 9.55771 181.275 9.37379C180.723 9.34752 180.382 9.55771 180.093 10.0306C179.935 10.3197 179.935 10.3459 179.883 10.3459C179.725 10.3459 179.515 10.2934 179.278 10.2408C178.096 9.97809 176.625 9.58398 175.285 9.50516C174.89 9.50516 174.575 9.7679 174.207 10.2146C174.102 10.2934 174.076 10.3722 174.05 10.3722C173.787 10.6612 174.286 11.2655 174.654 11.3443C176.178 11.6333 177.728 11.8698 179.226 12.1063C180.382 12.2902 180.776 12.6843 180.881 13.8404C180.96 14.7337 181.039 15.6795 181.039 16.5991C181.039 18.0967 180.907 19.5681 180.776 21.0657C180.644 22.5633 180.513 24.0872 180.513 25.5848C180.513 26.6357 180.566 27.6604 180.671 28.6851C180.723 29.8149 180.776 30.2878 181.643 30.2878Z" fill="#201F1E"/>
</svg>
