<svg width="134" height="44" viewBox="0 0 134 44" fill="none" xmlns="http://www.w3.org/2000/svg">
<rect width="134" height="44" rx="22" fill="#92FF00"/>
<path d="M24.796 29.352C26.578 29.352 27.876 28.648 28.668 27.372H28.866V29H30.692V21.63C30.692 19.1 28.866 17.472 25.984 17.472C23.19 17.472 21.364 18.968 21.364 21.322H23.212C23.19 19.936 24.29 19.122 25.962 19.122C27.788 19.122 28.866 20.09 28.866 21.586V22.026L25.786 22.4C22.486 22.774 20.814 24.226 20.814 26.184C20.814 28.098 22.398 29.352 24.796 29.352ZM25.06 27.834C23.564 27.834 22.64 27.196 22.64 26.14C22.64 25.106 23.52 24.226 25.786 23.94L28.866 23.588V24.578C28.866 26.448 27.326 27.834 25.06 27.834ZM33.8542 29H35.6802V22.51C35.6802 20.574 37.2862 19.122 39.1562 19.122C41.0702 19.122 42.1922 20.486 42.1922 22.356V29H44.0182V22.356C44.0182 19.54 42.2142 17.472 39.3982 17.472C37.9242 17.472 36.6922 18.176 35.9002 19.408H35.6802V17.89H33.8542V29ZM51.2005 29.418C51.7505 29.418 52.4765 29.308 53.0045 29.132V27.658C52.5865 27.79 52.0145 27.878 51.6845 27.878C50.6285 27.878 49.9685 27.13 49.9685 26.074V19.342H52.8285V17.89H49.9685L49.9905 14.304H48.5605L48.1425 17.89H46.3385V19.342H48.1425V26.14C48.1425 28.098 49.3305 29.418 51.2005 29.418ZM56.8682 15.778C57.6382 15.778 58.1662 15.228 58.1662 14.458C58.1662 13.71 57.6382 13.182 56.8682 13.182C56.0982 13.182 55.5482 13.71 55.5482 14.458C55.5482 15.228 56.0982 15.778 56.8682 15.778ZM55.9442 29H57.7702V17.89H55.9442V29ZM61.3327 29H63.1587V22.51C63.1587 20.53 64.7647 19.1 66.6347 19.1C68.5487 19.1 69.6707 20.442 69.6707 22.334V29H71.4967V22.334C71.4967 19.496 69.6927 17.45 66.8767 17.45C65.4027 17.45 64.1707 18.132 63.3787 19.298H63.1587V12.83H61.3327V29ZM75.731 33.928C78.129 33.928 79.009 31.64 79.999 29.176L84.399 17.89H82.441L79.185 26.58H78.965L75.159 17.89H73.245L78.195 28.978C77.535 30.54 77.095 32.3 75.445 32.3C75.027 32.3 74.477 32.168 73.971 31.97V33.576C74.477 33.796 75.181 33.928 75.731 33.928ZM92.456 17.45C90.63 17.45 89.2 18.242 88.386 19.584H88.188V17.89H86.362V34.06H88.188V27.35H88.386C89.2 28.67 90.696 29.44 92.478 29.44C95.712 29.44 98.198 26.91 98.198 23.434C98.198 19.958 95.69 17.45 92.456 17.45ZM92.258 19.1C94.634 19.1 96.372 20.948 96.372 23.434C96.372 25.876 94.634 27.79 92.258 27.79C89.86 27.79 88.122 25.876 88.122 23.434C88.122 20.992 89.86 19.1 92.258 19.1ZM106.426 29.44C108.89 29.44 110.892 28.296 111.794 26.404L110.276 25.634C109.572 26.954 108.12 27.79 106.47 27.79C104.204 27.79 102.576 26.294 102.312 24.05H112.146C112.168 23.808 112.168 23.544 112.168 23.324C112.168 19.914 109.726 17.45 106.338 17.45C102.906 17.45 100.442 19.914 100.442 23.302C100.442 26.866 102.95 29.44 106.426 29.44ZM102.334 22.444C102.642 20.442 104.204 19.1 106.25 19.1C108.362 19.1 109.924 20.442 110.254 22.444H102.334Z" fill="#201F1E"/>
</svg>
