<svg width="154" height="44" viewBox="0 0 154 44" fill="none" xmlns="http://www.w3.org/2000/svg">
<rect width="154" height="44" rx="22" fill="#92FF00"/>
<path d="M52.7981 12.0221V23.6115H55.3127V12.0221H52.7981ZM54.5747 16.8786V18.5563H58.9206V16.8786H54.5747ZM37.0547 21.0508V22.7064H39.0226C43.6964 22.7064 46.949 22.596 50.7755 22.0662L50.5569 20.4106C46.785 20.9404 43.5871 21.0508 39.0226 21.0508H37.0547ZM37 13.0596V14.7152H45.7737V17.011H37.0547V22.2428H39.5146V18.5784H48.2609V13.0596H37ZM46.2383 25.4437V25.9073C46.2383 28.0486 42.8218 29.9249 38.394 30.4327L39.3233 31.9779C44.3797 31.3377 48.3703 29.0199 48.3703 25.9073V25.4437H46.2383ZM46.7577 25.4437V25.9073C46.7577 28.9536 50.7482 31.3598 55.8047 32L56.7067 30.4547C52.3608 29.947 48.8623 27.9823 48.8623 25.9073V25.4437H46.7577ZM39.4053 24.6711V26.3046H55.7227V24.6711H39.4053Z" fill="#201F1E"/>
<path d="M71.136 22.2649V25.6865H73.5959V22.2649H71.136ZM72.366 12.3532C66.9815 12.3532 63.5923 13.766 63.5923 16.1501C63.5923 18.5121 66.9815 19.9029 72.366 19.9029C77.7505 19.9029 81.1397 18.5121 81.1397 16.1501C81.1397 13.766 77.7505 12.3532 72.366 12.3532ZM72.366 13.9426C76.1925 13.9426 78.5704 14.7373 78.5704 16.1501C78.5704 17.5408 76.1925 18.3355 72.366 18.3355C68.5394 18.3355 66.1615 17.5408 66.1615 16.1501C66.1615 14.7373 68.5394 13.9426 72.366 13.9426ZM63.8656 25.1567V31.8013H80.839V25.1567H63.8656ZM78.4064 26.7682V30.1678H66.3255V26.7682H78.4064ZM61.1597 21.3598V22.9934H83.5723V21.3598H61.1597Z" fill="#201F1E"/>
<path d="M87.0867 29.0925C87.0867 29.4877 87.2424 29.8254 87.5538 30.1057C87.8741 30.3787 88.3279 30.5153 88.9151 30.5153C89.5112 30.5153 89.965 30.3787 90.2764 30.1057C90.5967 29.8254 90.7568 29.4877 90.7568 29.0925C90.7568 28.6973 90.5967 28.3631 90.2764 28.09C89.965 27.8098 89.5112 27.6697 88.9151 27.6697C88.3279 27.6697 87.8741 27.8098 87.5538 28.09C87.2424 28.3631 87.0867 28.6973 87.0867 29.0925Z" fill="#201F1E"/>
<path d="M100.956 12.7064C97.266 12.7064 94.6148 14.5386 94.6148 17.2097C94.6148 19.8587 97.266 21.713 100.956 21.713C104.646 21.713 107.297 19.8587 107.297 17.2097C107.297 14.5386 104.646 12.7064 100.956 12.7064ZM100.956 14.4503C103.197 14.4503 104.837 15.5541 104.837 17.2097C104.837 18.8653 103.197 19.9691 100.956 19.9691C98.6873 19.9691 97.0747 18.8653 97.0747 17.2097C97.0747 15.5541 98.6873 14.4503 100.956 14.4503ZM110.796 12V22.5298H113.365V12H110.796ZM112.709 16.3046V18.0044H117V16.3046H112.709ZM105.356 30.3885V31.9117H113.747V30.3885H105.356ZM105.766 26.9448V28.3576H113.228V26.9448H105.766ZM105.356 23.457V31.117H107.816V25.0022H113.474V23.457H105.356ZM95.8447 23.457V25.0022H101.612V26.8565H95.8994V31.1611H98.1953V28.2693H103.908V23.457H95.8447ZM95.8994 30.4327V31.9779H97.2387C99.2066 31.9779 101.475 31.9559 104.564 31.6247L104.372 30.1015C101.393 30.4106 99.1793 30.4327 97.2387 30.4327H95.8994Z" fill="#201F1E"/>
</svg>
