<svg width="85" height="85" viewBox="0 0 85 85" fill="none" xmlns="http://www.w3.org/2000/svg">
<rect width="85" height="85" rx="42.5" fill="#DEF0D6"/>
<path d="M31.1275 61V57.804L43.1303 44.6648C44.5389 43.1259 45.699 41.7884 46.6104 40.652C47.5219 39.5038 48.1966 38.4266 48.6346 37.4205C49.0844 36.4025 49.3093 35.3371 49.3093 34.2244C49.3093 32.946 49.0015 31.8393 48.386 30.9041C47.7823 29.969 46.9537 29.2469 45.9002 28.7379C44.8467 28.2289 43.663 27.9744 42.3491 27.9744C40.9523 27.9744 39.7331 28.2644 38.6914 28.8445C37.6616 29.4126 36.8626 30.2116 36.2944 31.2415C35.738 32.2713 35.4599 33.4787 35.4599 34.8636H31.2695C31.2695 32.733 31.7608 30.8627 32.7433 29.2528C33.7257 27.643 35.0633 26.3883 36.756 25.4886C38.4606 24.589 40.3723 24.1392 42.4911 24.1392C44.6218 24.1392 46.5098 24.589 48.1552 25.4886C49.8005 26.3883 51.0908 27.6016 52.0259 29.1286C52.9611 30.6555 53.4286 32.3542 53.4286 34.2244C53.4286 35.562 53.186 36.87 52.7006 38.1484C52.2272 39.415 51.3986 40.8295 50.2148 42.392C49.043 43.9427 47.4154 45.8366 45.332 48.0739L37.1644 56.8097V57.0938H54.0678V61H31.1275Z" fill="#201F1E"/>
</svg>
