<svg width="85" height="85" viewBox="0 0 85 85" fill="none" xmlns="http://www.w3.org/2000/svg">
<rect width="85" height="85" rx="42.5" fill="#D6EDF0"/>
<path d="M42.1332 61.4972C39.7894 61.4972 37.7002 61.0947 35.8654 60.2898C34.0425 59.4848 32.5924 58.3662 31.5153 56.9339C30.4499 55.4898 29.8699 53.8149 29.7752 51.9091H34.2496C34.3443 53.081 34.7468 54.093 35.457 54.9453C36.1673 55.7857 37.0965 56.4368 38.2447 56.8984C39.3929 57.3601 40.6654 57.5909 42.0621 57.5909C43.6246 57.5909 45.0096 57.3187 46.217 56.7741C47.4244 56.2296 48.3713 55.4721 49.0579 54.5014C49.7444 53.5308 50.0877 52.4062 50.0877 51.1278C50.0877 49.7902 49.7563 48.6125 49.0934 47.5945C48.4305 46.5646 47.4599 45.7597 46.1815 45.1797C44.9031 44.5997 43.3406 44.3097 41.494 44.3097H38.582V40.4034H41.494C42.9381 40.4034 44.2047 40.143 45.2937 39.6222C46.3945 39.1013 47.2527 38.3674 47.8683 37.4205C48.4956 36.4735 48.8093 35.3608 48.8093 34.0824C48.8093 32.8513 48.5371 31.7801 47.9925 30.8686C47.448 29.9571 46.6786 29.2469 45.6843 28.7379C44.7018 28.2289 43.5418 27.9744 42.2042 27.9744C40.9495 27.9744 39.7657 28.2053 38.6531 28.6669C37.5522 29.1167 36.6526 29.7737 35.9542 30.6378C35.2558 31.4901 34.877 32.5199 34.8178 33.7273H30.5565C30.6275 31.8215 31.2016 30.1525 32.2788 28.7202C33.3559 27.276 34.7646 26.1515 36.5046 25.3466C38.2565 24.5417 40.18 24.1392 42.2752 24.1392C44.5243 24.1392 46.4537 24.5949 48.0636 25.5064C49.6734 26.406 50.9104 27.5956 51.7745 29.0753C52.6386 30.5549 53.0707 32.1529 53.0707 33.8693C53.0707 35.9171 52.5321 37.6631 51.4549 39.1072C50.3896 40.5514 48.9395 41.5516 47.1048 42.108V42.392C49.4012 42.7708 51.1945 43.7474 52.4847 45.3217C53.775 46.8842 54.4201 48.8196 54.4201 51.1278C54.4201 53.1046 53.8815 54.8802 52.8043 56.4545C51.739 58.017 50.283 59.2481 48.4364 60.1477C46.5898 61.0473 44.4888 61.4972 42.1332 61.4972Z" fill="#201F1E"/>
</svg>
